ISO-10303-21;
HEADER;
/* Generated by software containing ST-Developer
 * from STEP Tools, Inc. (www.steptools.com) 
 */
/* OPTION: using custom renumber hook */

FILE_DESCRIPTION(
/* description */ ('STEP AP242 Edition 2',
'CAx-IF Rec.Pracs.---Representation and Presentation of Product Manufa
cturing Information (PMI)---4.0---2014-10-13',
'CAx-IF Rec.Pracs.---3D Tessellated Geometry---0.4---2014-09-14','2;1',
'CAx-IF Rec.Pracs.---User Defined Attributes---1.5---2016-08-15'),
/* implementation_level */ '2;1');

FILE_NAME(
/* name */ 'Button -',
/* time_stamp */ '2026-07-29T14:42:13Z',
/* author */ (''),
/* organization */ (''),
/* preprocessor_version */ 'ST-DEVELOPER v20',
/* originating_system */ 'ONSHAPE BY PTC INC, 1.218',
/* authorisation */ '  ');

FILE_SCHEMA (('AP242_MANAGED_MODEL_BASED_3D_ENGINEERING_MIM_LF { 1 0 10303 442 3 1 4 }'));
ENDSEC;

DATA;
#10=SHAPE_REPRESENTATION_RELATIONSHIP('','',#227,#11);
#11=ADVANCED_BREP_SHAPE_REPRESENTATION('',(#225),#359);
#12=CYLINDRICAL_SURFACE('',#236,0.00175);
#13=CIRCLE('',#235,0.00175);
#14=CIRCLE('',#237,0.00175);
#15=ORIENTED_EDGE('',*,*,#67,.F.);
#16=ORIENTED_EDGE('',*,*,#68,.T.);
#17=ORIENTED_EDGE('',*,*,#69,.T.);
#18=ORIENTED_EDGE('',*,*,#70,.F.);
#19=ORIENTED_EDGE('',*,*,#71,.T.);
#20=ORIENTED_EDGE('',*,*,#72,.T.);
#21=ORIENTED_EDGE('',*,*,#73,.T.);
#22=ORIENTED_EDGE('',*,*,#74,.T.);
#23=ORIENTED_EDGE('',*,*,#75,.F.);
#24=ORIENTED_EDGE('',*,*,#76,.F.);
#25=ORIENTED_EDGE('',*,*,#67,.T.);
#26=ORIENTED_EDGE('',*,*,#77,.T.);
#27=ORIENTED_EDGE('',*,*,#78,.T.);
#28=ORIENTED_EDGE('',*,*,#79,.F.);
#29=ORIENTED_EDGE('',*,*,#68,.F.);
#30=ORIENTED_EDGE('',*,*,#76,.T.);
#31=ORIENTED_EDGE('',*,*,#80,.T.);
#32=ORIENTED_EDGE('',*,*,#81,.F.);
#33=ORIENTED_EDGE('',*,*,#69,.F.);
#34=ORIENTED_EDGE('',*,*,#79,.T.);
#35=ORIENTED_EDGE('',*,*,#82,.F.);
#36=ORIENTED_EDGE('',*,*,#77,.F.);
#37=ORIENTED_EDGE('',*,*,#70,.T.);
#38=ORIENTED_EDGE('',*,*,#81,.T.);
#39=ORIENTED_EDGE('',*,*,#83,.T.);
#40=ORIENTED_EDGE('',*,*,#75,.T.);
#41=ORIENTED_EDGE('',*,*,#82,.T.);
#42=ORIENTED_EDGE('',*,*,#80,.F.);
#43=ORIENTED_EDGE('',*,*,#78,.F.);
#44=ORIENTED_EDGE('',*,*,#84,.T.);
#45=ORIENTED_EDGE('',*,*,#83,.F.);
#46=ORIENTED_EDGE('',*,*,#84,.F.);
#47=ORIENTED_EDGE('',*,*,#72,.F.);
#48=ORIENTED_EDGE('',*,*,#85,.F.);
#49=ORIENTED_EDGE('',*,*,#86,.T.);
#50=ORIENTED_EDGE('',*,*,#87,.T.);
#51=ORIENTED_EDGE('',*,*,#71,.F.);
#52=ORIENTED_EDGE('',*,*,#88,.F.);
#53=ORIENTED_EDGE('',*,*,#89,.T.);
#54=ORIENTED_EDGE('',*,*,#85,.T.);
#55=ORIENTED_EDGE('',*,*,#74,.F.);
#56=ORIENTED_EDGE('',*,*,#90,.F.);
#57=ORIENTED_EDGE('',*,*,#91,.T.);
#58=ORIENTED_EDGE('',*,*,#88,.T.);
#59=ORIENTED_EDGE('',*,*,#73,.F.);
#60=ORIENTED_EDGE('',*,*,#87,.F.);
#61=ORIENTED_EDGE('',*,*,#92,.T.);
#62=ORIENTED_EDGE('',*,*,#90,.T.);
#63=ORIENTED_EDGE('',*,*,#86,.F.);
#64=ORIENTED_EDGE('',*,*,#89,.F.);
#65=ORIENTED_EDGE('',*,*,#91,.F.);
#66=ORIENTED_EDGE('',*,*,#92,.F.);
#67=EDGE_CURVE('',#93,#94,#111,.T.);
#68=EDGE_CURVE('',#93,#95,#112,.T.);
#69=EDGE_CURVE('',#95,#96,#113,.T.);
#70=EDGE_CURVE('',#94,#96,#114,.T.);
#71=EDGE_CURVE('',#97,#98,#115,.T.);
#72=EDGE_CURVE('',#98,#99,#116,.T.);
#73=EDGE_CURVE('',#99,#100,#117,.T.);
#74=EDGE_CURVE('',#100,#97,#118,.T.);
#75=EDGE_CURVE('',#101,#102,#119,.T.);
#76=EDGE_CURVE('',#93,#101,#120,.T.);
#77=EDGE_CURVE('',#94,#102,#121,.T.);
#78=EDGE_CURVE('',#101,#103,#122,.T.);
#79=EDGE_CURVE('',#95,#103,#123,.T.);
#80=EDGE_CURVE('',#103,#104,#124,.T.);
#81=EDGE_CURVE('',#96,#104,#125,.T.);
#82=EDGE_CURVE('',#102,#104,#126,.T.);
#83=EDGE_CURVE('',#105,#105,#13,.T.);
#84=EDGE_CURVE('',#106,#106,#14,.T.);
#85=EDGE_CURVE('',#107,#98,#127,.T.);
#86=EDGE_CURVE('',#107,#108,#128,.T.);
#87=EDGE_CURVE('',#108,#99,#129,.T.);
#88=EDGE_CURVE('',#109,#97,#130,.T.);
#89=EDGE_CURVE('',#109,#107,#131,.T.);
#90=EDGE_CURVE('',#110,#100,#132,.T.);
#91=EDGE_CURVE('',#110,#109,#133,.T.);
#92=EDGE_CURVE('',#108,#110,#134,.T.);
#93=VERTEX_POINT('',#303);
#94=VERTEX_POINT('',#304);
#95=VERTEX_POINT('',#306);
#96=VERTEX_POINT('',#308);
#97=VERTEX_POINT('',#311);
#98=VERTEX_POINT('',#312);
#99=VERTEX_POINT('',#314);
#100=VERTEX_POINT('',#316);
#101=VERTEX_POINT('',#320);
#102=VERTEX_POINT('',#321);
#103=VERTEX_POINT('',#326);
#104=VERTEX_POINT('',#330);
#105=VERTEX_POINT('',#336);
#106=VERTEX_POINT('',#339);
#107=VERTEX_POINT('',#343);
#108=VERTEX_POINT('',#345);
#109=VERTEX_POINT('',#349);
#110=VERTEX_POINT('',#353);
#111=LINE('',#302,#135);
#112=LINE('',#305,#136);
#113=LINE('',#307,#137);
#114=LINE('',#309,#138);
#115=LINE('',#310,#139);
#116=LINE('',#313,#140);
#117=LINE('',#315,#141);
#118=LINE('',#317,#142);
#119=LINE('',#319,#143);
#120=LINE('',#322,#144);
#121=LINE('',#323,#145);
#122=LINE('',#325,#146);
#123=LINE('',#327,#147);
#124=LINE('',#329,#148);
#125=LINE('',#331,#149);
#126=LINE('',#333,#150);
#127=LINE('',#342,#151);
#128=LINE('',#344,#152);
#129=LINE('',#346,#153);
#130=LINE('',#348,#154);
#131=LINE('',#350,#155);
#132=LINE('',#352,#156);
#133=LINE('',#354,#157);
#134=LINE('',#356,#158);
#135=VECTOR('',#248,1.);
#136=VECTOR('',#249,1.);
#137=VECTOR('',#250,1.);
#138=VECTOR('',#251,1.);
#139=VECTOR('',#252,1.);
#140=VECTOR('',#253,1.);
#141=VECTOR('',#254,1.);
#142=VECTOR('',#255,1.);
#143=VECTOR('',#258,1.);
#144=VECTOR('',#259,1.);
#145=VECTOR('',#260,1.);
#146=VECTOR('',#263,1.);
#147=VECTOR('',#264,1.);
#148=VECTOR('',#267,1.);
#149=VECTOR('',#268,1.);
#150=VECTOR('',#271,1.);
#151=VECTOR('',#284,1.);
#152=VECTOR('',#285,1.);
#153=VECTOR('',#286,1.);
#154=VECTOR('',#289,1.);
#155=VECTOR('',#290,1.);
#156=VECTOR('',#293,1.);
#157=VECTOR('',#294,1.);
#158=VECTOR('',#297,1.);
#159=EDGE_LOOP('',(#15,#16,#17,#18));
#160=EDGE_LOOP('',(#19,#20,#21,#22));
#161=EDGE_LOOP('',(#23,#24,#25,#26));
#162=EDGE_LOOP('',(#27,#28,#29,#30));
#163=EDGE_LOOP('',(#31,#32,#33,#34));
#164=EDGE_LOOP('',(#35,#36,#37,#38));
#165=EDGE_LOOP('',(#39));
#166=EDGE_LOOP('',(#40,#41,#42,#43));
#167=EDGE_LOOP('',(#44));
#168=EDGE_LOOP('',(#45));
#169=EDGE_LOOP('',(#46));
#170=EDGE_LOOP('',(#47,#48,#49,#50));
#171=EDGE_LOOP('',(#51,#52,#53,#54));
#172=EDGE_LOOP('',(#55,#56,#57,#58));
#173=EDGE_LOOP('',(#59,#60,#61,#62));
#174=EDGE_LOOP('',(#63,#64,#65,#66));
#175=FACE_BOUND('',#159,.T.);
#176=FACE_BOUND('',#160,.T.);
#177=FACE_BOUND('',#161,.T.);
#178=FACE_BOUND('',#162,.T.);
#179=FACE_BOUND('',#163,.T.);
#180=FACE_BOUND('',#164,.T.);
#181=FACE_BOUND('',#165,.T.);
#182=FACE_BOUND('',#166,.T.);
#183=FACE_BOUND('',#167,.T.);
#184=FACE_BOUND('',#168,.T.);
#185=FACE_BOUND('',#169,.T.);
#186=FACE_BOUND('',#170,.T.);
#187=FACE_BOUND('',#171,.T.);
#188=FACE_BOUND('',#172,.T.);
#189=FACE_BOUND('',#173,.T.);
#190=FACE_BOUND('',#174,.T.);
#191=PLANE('',#229);
#192=PLANE('',#230);
#193=PLANE('',#231);
#194=PLANE('',#232);
#195=PLANE('',#233);
#196=PLANE('',#234);
#197=PLANE('',#238);
#198=PLANE('',#239);
#199=PLANE('',#240);
#200=PLANE('',#241);
#201=PLANE('',#242);
#202=PLANE('',#243);
#203=ADVANCED_FACE('',(#175,#176),#191,.T.);
#204=ADVANCED_FACE('',(#177),#192,.T.);
#205=ADVANCED_FACE('',(#178),#193,.F.);
#206=ADVANCED_FACE('',(#179),#194,.F.);
#207=ADVANCED_FACE('',(#180),#195,.T.);
#208=ADVANCED_FACE('',(#181,#182),#196,.F.);
#209=ADVANCED_FACE('',(#183,#184),#12,.F.);
#210=ADVANCED_FACE('',(#185),#197,.F.);
#211=ADVANCED_FACE('',(#186),#198,.T.);
#212=ADVANCED_FACE('',(#187),#199,.T.);
#213=ADVANCED_FACE('',(#188),#200,.T.);
#214=ADVANCED_FACE('',(#189),#201,.T.);
#215=ADVANCED_FACE('',(#190),#202,.T.);
#216=CLOSED_SHELL('',(#203,#204,#205,#206,#207,#208,#209,#210,#211,#212,
#213,#214,#215));
#217=STYLED_ITEM('',(#218),#225);
#218=PRESENTATION_STYLE_ASSIGNMENT((#219));
#219=SURFACE_STYLE_USAGE(.BOTH.,#220);
#220=SURFACE_SIDE_STYLE('',(#221));
#221=SURFACE_STYLE_FILL_AREA(#222);
#222=FILL_AREA_STYLE('',(#223));
#223=FILL_AREA_STYLE_COLOUR('',#224);
#224=COLOUR_RGB('',0.615686274509804,0.811764705882353,0.929411764705882);
#225=MANIFOLD_SOLID_BREP('Part 1',#216);
#226=SHAPE_DEFINITION_REPRESENTATION(#364,#227);
#227=SHAPE_REPRESENTATION('Part 1',(#228),#359);
#228=AXIS2_PLACEMENT_3D('',#300,#244,#245);
#229=AXIS2_PLACEMENT_3D('',#301,#246,#247);
#230=AXIS2_PLACEMENT_3D('',#318,#256,#257);
#231=AXIS2_PLACEMENT_3D('',#324,#261,#262);
#232=AXIS2_PLACEMENT_3D('',#328,#265,#266);
#233=AXIS2_PLACEMENT_3D('',#332,#269,#270);
#234=AXIS2_PLACEMENT_3D('',#334,#272,#273);
#235=AXIS2_PLACEMENT_3D('',#335,#274,#275);
#236=AXIS2_PLACEMENT_3D('',#337,#276,#277);
#237=AXIS2_PLACEMENT_3D('',#338,#278,#279);
#238=AXIS2_PLACEMENT_3D('',#340,#280,#281);
#239=AXIS2_PLACEMENT_3D('',#341,#282,#283);
#240=AXIS2_PLACEMENT_3D('',#347,#287,#288);
#241=AXIS2_PLACEMENT_3D('',#351,#291,#292);
#242=AXIS2_PLACEMENT_3D('',#355,#295,#296);
#243=AXIS2_PLACEMENT_3D('',#357,#298,#299);
#244=DIRECTION('',(0.,0.,1.));
#245=DIRECTION('',(1.,0.,0.));
#246=DIRECTION('',(0.,0.,1.));
#247=DIRECTION('',(1.,0.,0.));
#248=DIRECTION('',(-1.,-1.44560289664734E-16,0.));
#249=DIRECTION('',(-1.44560289664734E-16,1.,0.));
#250=DIRECTION('',(-1.,-1.44560289664734E-16,0.));
#251=DIRECTION('',(-1.44560289664734E-16,1.,0.));
#252=DIRECTION('',(0.,-1.,0.));
#253=DIRECTION('',(-1.,0.,0.));
#254=DIRECTION('',(0.,1.,0.));
#255=DIRECTION('',(1.,0.,0.));
#256=DIRECTION('',(1.44560289664734E-16,-1.,0.));
#257=DIRECTION('',(1.,1.44560289664734E-16,0.));
#258=DIRECTION('',(-1.,-1.44560289664734E-16,0.));
#259=DIRECTION('',(0.,0.,-1.));
#260=DIRECTION('',(0.,0.,-1.));
#261=DIRECTION('',(-1.,-1.44560289664734E-16,0.));
#262=DIRECTION('',(1.44560289664734E-16,-1.,0.));
#263=DIRECTION('',(-1.44560289664734E-16,1.,0.));
#264=DIRECTION('',(0.,0.,-1.));
#265=DIRECTION('',(1.44560289664734E-16,-1.,0.));
#266=DIRECTION('',(1.,1.44560289664734E-16,0.));
#267=DIRECTION('',(-1.,-1.44560289664734E-16,0.));
#268=DIRECTION('',(0.,0.,-1.));
#269=DIRECTION('',(-1.,-1.44560289664734E-16,0.));
#270=DIRECTION('',(1.44560289664734E-16,-1.,0.));
#271=DIRECTION('',(-1.44560289664734E-16,1.,0.));
#272=DIRECTION('',(0.,0.,1.));
#273=DIRECTION('',(1.,0.,0.));
#274=DIRECTION('',(0.,0.,1.));
#275=DIRECTION('',(1.,0.,0.));
#276=DIRECTION('',(0.,0.,-1.));
#277=DIRECTION('',(-1.,0.,0.));
#278=DIRECTION('',(0.,0.,1.));
#279=DIRECTION('',(1.,0.,0.));
#280=DIRECTION('',(0.,0.,1.));
#281=DIRECTION('',(1.,0.,0.));
#282=DIRECTION('',(0.,1.,0.));
#283=DIRECTION('',(0.,0.,1.));
#284=DIRECTION('',(0.,0.,1.));
#285=DIRECTION('',(-1.,0.,0.));
#286=DIRECTION('',(0.,0.,1.));
#287=DIRECTION('',(-1.,0.,0.));
#288=DIRECTION('',(0.,0.,1.));
#289=DIRECTION('',(0.,0.,1.));
#290=DIRECTION('',(0.,-1.,0.));
#291=DIRECTION('',(0.,-1.,0.));
#292=DIRECTION('',(0.,0.,-1.));
#293=DIRECTION('',(0.,0.,1.));
#294=DIRECTION('',(1.,0.,0.));
#295=DIRECTION('',(1.,0.,0.));
#296=DIRECTION('',(0.,0.,-1.));
#297=DIRECTION('',(0.,1.,0.));
#298=DIRECTION('',(0.,0.,1.));
#299=DIRECTION('',(1.,0.,0.));
#300=CARTESIAN_POINT('',(0.,0.,0.));
#301=CARTESIAN_POINT('',(0.,0.,0.007));
#302=CARTESIAN_POINT('',(4.33680868994202E-19,-0.003,0.007));
#303=CARTESIAN_POINT('',(0.003,-0.003,0.007));
#304=CARTESIAN_POINT('',(-0.003,-0.003,0.007));
#305=CARTESIAN_POINT('',(0.003,0.,0.007));
#306=CARTESIAN_POINT('',(0.003,0.003,0.007));
#307=CARTESIAN_POINT('',(-4.33680868994202E-19,0.003,0.007));
#308=CARTESIAN_POINT('',(-0.003,0.003,0.007));
#309=CARTESIAN_POINT('',(-0.003,-4.33680868994202E-19,0.007));
#310=CARTESIAN_POINT('',(0.00187580792565537,-2.19742014178368E-6,0.007));
#311=CARTESIAN_POINT('',(0.00187580792565537,0.000457437996524883,0.007));
#312=CARTESIAN_POINT('',(0.00187580792565537,-0.00046183283680845,0.007));
#313=CARTESIAN_POINT('',(2.22923006553694E-5,-0.00046183283680845,0.007));
#314=CARTESIAN_POINT('',(-0.00183122332434463,-0.00046183283680845,0.007));
#315=CARTESIAN_POINT('',(-0.00183122332434463,-2.19742014178368E-6,0.007));
#316=CARTESIAN_POINT('',(-0.00183122332434463,0.000457437996524883,0.007));
#317=CARTESIAN_POINT('',(2.22923006553694E-5,0.000457437996524883,0.007));
#318=CARTESIAN_POINT('',(4.33680868994202E-19,-0.003,0.007));
#319=CARTESIAN_POINT('',(4.33680868994202E-19,-0.003,0.));
#320=CARTESIAN_POINT('',(0.003,-0.003,0.));
#321=CARTESIAN_POINT('',(-0.003,-0.003,0.));
#322=CARTESIAN_POINT('',(0.003,-0.003,0.007));
#323=CARTESIAN_POINT('',(-0.003,-0.003,0.007));
#324=CARTESIAN_POINT('',(0.003,0.,0.007));
#325=CARTESIAN_POINT('',(0.003,0.,0.));
#326=CARTESIAN_POINT('',(0.003,0.003,0.));
#327=CARTESIAN_POINT('',(0.003,0.003,0.007));
#328=CARTESIAN_POINT('',(-4.33680868994202E-19,0.003,0.007));
#329=CARTESIAN_POINT('',(-4.33680868994202E-19,0.003,0.));
#330=CARTESIAN_POINT('',(-0.003,0.003,0.));
#331=CARTESIAN_POINT('',(-0.003,0.003,0.007));
#332=CARTESIAN_POINT('',(-0.003,-4.33680868994202E-19,0.007));
#333=CARTESIAN_POINT('',(-0.003,-4.33680868994202E-19,0.));
#334=CARTESIAN_POINT('',(0.,0.,0.));
#335=CARTESIAN_POINT('',(0.,1.07156594925393E-19,0.));
#336=CARTESIAN_POINT('',(0.00175,1.07156594925393E-19,0.));
#337=CARTESIAN_POINT('',(0.,1.07156594925393E-19,0.002));
#338=CARTESIAN_POINT('',(0.,1.07156594925393E-19,0.002));
#339=CARTESIAN_POINT('',(0.00175,1.07156594925393E-19,0.002));
#340=CARTESIAN_POINT('',(0.,0.,0.002));
#341=CARTESIAN_POINT('',(2.22923006553694E-5,-0.00046183283680845,0.006));
#342=CARTESIAN_POINT('',(0.00187580792565537,-0.00046183283680845,0.006));
#343=CARTESIAN_POINT('',(0.00187580792565537,-0.00046183283680845,0.006));
#344=CARTESIAN_POINT('',(2.22923006553694E-5,-0.00046183283680845,0.006));
#345=CARTESIAN_POINT('',(-0.00183122332434463,-0.00046183283680845,0.006));
#346=CARTESIAN_POINT('',(-0.00183122332434463,-0.00046183283680845,0.006));
#347=CARTESIAN_POINT('',(0.00187580792565537,-2.19742014178368E-6,0.006));
#348=CARTESIAN_POINT('',(0.00187580792565537,0.000457437996524883,0.006));
#349=CARTESIAN_POINT('',(0.00187580792565537,0.000457437996524883,0.006));
#350=CARTESIAN_POINT('',(0.00187580792565537,-2.19742014178368E-6,0.006));
#351=CARTESIAN_POINT('',(2.22923006553694E-5,0.000457437996524883,0.006));
#352=CARTESIAN_POINT('',(-0.00183122332434463,0.000457437996524883,0.006));
#353=CARTESIAN_POINT('',(-0.00183122332434463,0.000457437996524883,0.006));
#354=CARTESIAN_POINT('',(2.22923006553694E-5,0.000457437996524883,0.006));
#355=CARTESIAN_POINT('',(-0.00183122332434463,-2.19742014178368E-6,0.006));
#356=CARTESIAN_POINT('',(-0.00183122332434463,-2.19742014178368E-6,0.006));
#357=CARTESIAN_POINT('',(0.,0.00172871899826244,0.006));
#358=MECHANICAL_DESIGN_GEOMETRIC_PRESENTATION_REPRESENTATION('',(#217),
#359);
#359=(
GEOMETRIC_REPRESENTATION_CONTEXT(3)
GLOBAL_UNCERTAINTY_ASSIGNED_CONTEXT((#360))
GLOBAL_UNIT_ASSIGNED_CONTEXT((#363,#362,#361))
REPRESENTATION_CONTEXT('Part 1','TOP_LEVEL_ASSEMBLY_PART')
);
#360=UNCERTAINTY_MEASURE_WITH_UNIT(LENGTH_MEASURE(1.E-8),#363,
'DISTANCE_ACCURACY_VALUE','Maximum Tolerance applied to model');
#361=(
NAMED_UNIT(*)
SI_UNIT($,.STERADIAN.)
SOLID_ANGLE_UNIT()
);
#362=(
NAMED_UNIT(*)
PLANE_ANGLE_UNIT()
SI_UNIT($,.RADIAN.)
);
#363=(
LENGTH_UNIT()
NAMED_UNIT(*)
SI_UNIT($,.METRE.)
);
#364=PRODUCT_DEFINITION_SHAPE('','',#365);
#365=PRODUCT_DEFINITION('','',#367,#366);
#366=PRODUCT_DEFINITION_CONTEXT('',#373,'design');
#367=PRODUCT_DEFINITION_FORMATION_WITH_SPECIFIED_SOURCE('','',#369,
 .NOT_KNOWN.);
#368=PRODUCT_RELATED_PRODUCT_CATEGORY('','',(#369));
#369=PRODUCT('Part 1','Part 1','Part 1',(#371));
#370=PRODUCT_CATEGORY('','');
#371=PRODUCT_CONTEXT('',#373,'mechanical');
#372=APPLICATION_PROTOCOL_DEFINITION('international standard',
'ap242_managed_model_based_3d_engineering',2020,#373);
#373=APPLICATION_CONTEXT('managed model based 3d engineering');
ENDSEC;
END-ISO-10303-21;
