ISO-10303-21;
HEADER;
/* Generated by software containing ST-Developer
 * from STEP Tools, Inc. (www.steptools.com) 
 */
/* OPTION: using custom renumber hook */

FILE_DESCRIPTION(
/* description */ ('STEP AP242 Edition 2',
'CAx-IF Rec.Pracs.---Representation and Presentation of Product Manufa
cturing Information (PMI)---4.0---2014-10-13',
'CAx-IF Rec.Pracs.---3D Tessellated Geometry---0.4---2014-09-14','2;1',
'CAx-IF Rec.Pracs.---User Defined Attributes---1.5---2016-08-15'),
/* implementation_level */ '2;1');

FILE_NAME(
/* name */ 'Button .',
/* time_stamp */ '2026-07-29T14:42:02Z',
/* author */ (''),
/* organization */ (''),
/* preprocessor_version */ 'ST-DEVELOPER v20',
/* originating_system */ 'ONSHAPE BY PTC INC, 1.218',
/* authorisation */ '  ');

FILE_SCHEMA (('AP242_MANAGED_MODEL_BASED_3D_ENGINEERING_MIM_LF { 1 0 10303 442 3 1 4 }'));
ENDSEC;

DATA;
#10=SHAPE_REPRESENTATION_RELATIONSHIP('','',#295,#11);
#11=ADVANCED_BREP_SHAPE_REPRESENTATION('',(#293),#523);
#12=B_SPLINE_SURFACE_WITH_KNOTS('',3,1,((#417,#418),(#419,#420),(#421,#422),
(#423,#424)),.SURF_OF_LINEAR_EXTRUSION.,.F.,.F.,.F.,(4,4),(2,2),(0.,1.),
(0.,1.),.PIECEWISE_BEZIER_KNOTS.);
#13=B_SPLINE_SURFACE_WITH_KNOTS('',3,1,((#432,#433),(#434,#435),(#436,#437),
(#438,#439)),.SURF_OF_LINEAR_EXTRUSION.,.F.,.F.,.F.,(4,4),(2,2),(0.,1.),
(0.,1.),.PIECEWISE_BEZIER_KNOTS.);
#14=B_SPLINE_SURFACE_WITH_KNOTS('',3,1,((#445,#446),(#447,#448),(#449,#450),
(#451,#452)),.SURF_OF_LINEAR_EXTRUSION.,.F.,.F.,.F.,(4,4),(2,2),(0.,1.),
(0.,1.),.PIECEWISE_BEZIER_KNOTS.);
#15=B_SPLINE_SURFACE_WITH_KNOTS('',3,1,((#458,#459),(#460,#461),(#462,#463),
(#464,#465)),.SURF_OF_LINEAR_EXTRUSION.,.F.,.F.,.F.,(4,4),(2,2),(0.,1.),
(0.,1.),.PIECEWISE_BEZIER_KNOTS.);
#16=B_SPLINE_SURFACE_WITH_KNOTS('',3,1,((#471,#472),(#473,#474),(#475,#476),
(#477,#478)),.SURF_OF_LINEAR_EXTRUSION.,.F.,.F.,.F.,(4,4),(2,2),(0.,1.),
(0.,1.),.PIECEWISE_BEZIER_KNOTS.);
#17=B_SPLINE_SURFACE_WITH_KNOTS('',3,1,((#484,#485),(#486,#487),(#488,#489),
(#490,#491)),.SURF_OF_LINEAR_EXTRUSION.,.F.,.F.,.F.,(4,4),(2,2),(0.,1.),
(0.,1.),.PIECEWISE_BEZIER_KNOTS.);
#18=B_SPLINE_SURFACE_WITH_KNOTS('',3,1,((#497,#498),(#499,#500),(#501,#502),
(#503,#504)),.SURF_OF_LINEAR_EXTRUSION.,.F.,.F.,.F.,(4,4),(2,2),(0.,1.),
(0.,1.),.PIECEWISE_BEZIER_KNOTS.);
#19=B_SPLINE_SURFACE_WITH_KNOTS('',3,1,((#510,#511),(#512,#513),(#514,#515),
(#516,#517)),.SURF_OF_LINEAR_EXTRUSION.,.F.,.F.,.F.,(4,4),(2,2),(0.,1.),
(0.,1.),.PIECEWISE_BEZIER_KNOTS.);
#20=CYLINDRICAL_SURFACE('',#304,0.00175);
#21=CIRCLE('',#303,0.00175);
#22=CIRCLE('',#305,0.00175);
#23=B_SPLINE_CURVE_WITH_KNOTS('',2,(#362,#363,#364),.UNSPECIFIED.,.F.,.F.,
(3,3),(0.,1.),.PIECEWISE_BEZIER_KNOTS.);
#24=B_SPLINE_CURVE_WITH_KNOTS('',2,(#367,#368,#369),.UNSPECIFIED.,.F.,.F.,
(3,3),(0.,1.),.PIECEWISE_BEZIER_KNOTS.);
#25=B_SPLINE_CURVE_WITH_KNOTS('',2,(#371,#372,#373),.UNSPECIFIED.,.F.,.F.,
(3,3),(0.,1.),.PIECEWISE_BEZIER_KNOTS.);
#26=B_SPLINE_CURVE_WITH_KNOTS('',2,(#375,#376,#377),.UNSPECIFIED.,.F.,.F.,
(3,3),(0.,1.),.PIECEWISE_BEZIER_KNOTS.);
#27=B_SPLINE_CURVE_WITH_KNOTS('',2,(#379,#380,#381),.UNSPECIFIED.,.F.,.F.,
(3,3),(0.,1.),.PIECEWISE_BEZIER_KNOTS.);
#28=B_SPLINE_CURVE_WITH_KNOTS('',2,(#383,#384,#385),.UNSPECIFIED.,.F.,.F.,
(3,3),(0.,1.),.PIECEWISE_BEZIER_KNOTS.);
#29=B_SPLINE_CURVE_WITH_KNOTS('',2,(#387,#388,#389),.UNSPECIFIED.,.F.,.F.,
(3,3),(0.,1.),.PIECEWISE_BEZIER_KNOTS.);
#30=B_SPLINE_CURVE_WITH_KNOTS('',2,(#391,#392,#393),.UNSPECIFIED.,.F.,.F.,
(3,3),(0.,1.),.PIECEWISE_BEZIER_KNOTS.);
#31=B_SPLINE_CURVE_WITH_KNOTS('',2,(#427,#428,#429),.UNSPECIFIED.,.F.,.F.,
(3,3),(0.,1.),.PIECEWISE_BEZIER_KNOTS.);
#32=B_SPLINE_CURVE_WITH_KNOTS('',2,(#442,#443,#444),.UNSPECIFIED.,.F.,.F.,
(3,3),(0.,1.),.PIECEWISE_BEZIER_KNOTS.);
#33=B_SPLINE_CURVE_WITH_KNOTS('',2,(#455,#456,#457),.UNSPECIFIED.,.F.,.F.,
(3,3),(0.,1.),.PIECEWISE_BEZIER_KNOTS.);
#34=B_SPLINE_CURVE_WITH_KNOTS('',2,(#468,#469,#470),.UNSPECIFIED.,.F.,.F.,
(3,3),(0.,1.),.PIECEWISE_BEZIER_KNOTS.);
#35=B_SPLINE_CURVE_WITH_KNOTS('',2,(#481,#482,#483),.UNSPECIFIED.,.F.,.F.,
(3,3),(0.,1.),.PIECEWISE_BEZIER_KNOTS.);
#36=B_SPLINE_CURVE_WITH_KNOTS('',2,(#494,#495,#496),.UNSPECIFIED.,.F.,.F.,
(3,3),(0.,1.),.PIECEWISE_BEZIER_KNOTS.);
#37=B_SPLINE_CURVE_WITH_KNOTS('',2,(#507,#508,#509),.UNSPECIFIED.,.F.,.F.,
(3,3),(0.,1.),.PIECEWISE_BEZIER_KNOTS.);
#38=B_SPLINE_CURVE_WITH_KNOTS('',2,(#518,#519,#520),.UNSPECIFIED.,.F.,.F.,
(3,3),(0.,1.),.PIECEWISE_BEZIER_KNOTS.);
#39=ORIENTED_EDGE('',*,*,#115,.F.);
#40=ORIENTED_EDGE('',*,*,#116,.T.);
#41=ORIENTED_EDGE('',*,*,#117,.T.);
#42=ORIENTED_EDGE('',*,*,#118,.F.);
#43=ORIENTED_EDGE('',*,*,#119,.T.);
#44=ORIENTED_EDGE('',*,*,#120,.T.);
#45=ORIENTED_EDGE('',*,*,#121,.T.);
#46=ORIENTED_EDGE('',*,*,#122,.T.);
#47=ORIENTED_EDGE('',*,*,#123,.T.);
#48=ORIENTED_EDGE('',*,*,#124,.T.);
#49=ORIENTED_EDGE('',*,*,#125,.T.);
#50=ORIENTED_EDGE('',*,*,#126,.T.);
#51=ORIENTED_EDGE('',*,*,#127,.F.);
#52=ORIENTED_EDGE('',*,*,#128,.F.);
#53=ORIENTED_EDGE('',*,*,#115,.T.);
#54=ORIENTED_EDGE('',*,*,#129,.T.);
#55=ORIENTED_EDGE('',*,*,#130,.T.);
#56=ORIENTED_EDGE('',*,*,#131,.F.);
#57=ORIENTED_EDGE('',*,*,#116,.F.);
#58=ORIENTED_EDGE('',*,*,#128,.T.);
#59=ORIENTED_EDGE('',*,*,#132,.T.);
#60=ORIENTED_EDGE('',*,*,#133,.F.);
#61=ORIENTED_EDGE('',*,*,#117,.F.);
#62=ORIENTED_EDGE('',*,*,#131,.T.);
#63=ORIENTED_EDGE('',*,*,#134,.F.);
#64=ORIENTED_EDGE('',*,*,#129,.F.);
#65=ORIENTED_EDGE('',*,*,#118,.T.);
#66=ORIENTED_EDGE('',*,*,#133,.T.);
#67=ORIENTED_EDGE('',*,*,#135,.T.);
#68=ORIENTED_EDGE('',*,*,#127,.T.);
#69=ORIENTED_EDGE('',*,*,#134,.T.);
#70=ORIENTED_EDGE('',*,*,#132,.F.);
#71=ORIENTED_EDGE('',*,*,#130,.F.);
#72=ORIENTED_EDGE('',*,*,#136,.T.);
#73=ORIENTED_EDGE('',*,*,#135,.F.);
#74=ORIENTED_EDGE('',*,*,#136,.F.);
#75=ORIENTED_EDGE('',*,*,#120,.F.);
#76=ORIENTED_EDGE('',*,*,#137,.F.);
#77=ORIENTED_EDGE('',*,*,#138,.T.);
#78=ORIENTED_EDGE('',*,*,#139,.T.);
#79=ORIENTED_EDGE('',*,*,#119,.F.);
#80=ORIENTED_EDGE('',*,*,#140,.F.);
#81=ORIENTED_EDGE('',*,*,#141,.T.);
#82=ORIENTED_EDGE('',*,*,#137,.T.);
#83=ORIENTED_EDGE('',*,*,#126,.F.);
#84=ORIENTED_EDGE('',*,*,#142,.F.);
#85=ORIENTED_EDGE('',*,*,#143,.T.);
#86=ORIENTED_EDGE('',*,*,#140,.T.);
#87=ORIENTED_EDGE('',*,*,#125,.F.);
#88=ORIENTED_EDGE('',*,*,#144,.F.);
#89=ORIENTED_EDGE('',*,*,#145,.T.);
#90=ORIENTED_EDGE('',*,*,#142,.T.);
#91=ORIENTED_EDGE('',*,*,#124,.F.);
#92=ORIENTED_EDGE('',*,*,#146,.F.);
#93=ORIENTED_EDGE('',*,*,#147,.T.);
#94=ORIENTED_EDGE('',*,*,#144,.T.);
#95=ORIENTED_EDGE('',*,*,#123,.F.);
#96=ORIENTED_EDGE('',*,*,#148,.F.);
#97=ORIENTED_EDGE('',*,*,#149,.T.);
#98=ORIENTED_EDGE('',*,*,#146,.T.);
#99=ORIENTED_EDGE('',*,*,#122,.F.);
#100=ORIENTED_EDGE('',*,*,#150,.F.);
#101=ORIENTED_EDGE('',*,*,#151,.T.);
#102=ORIENTED_EDGE('',*,*,#148,.T.);
#103=ORIENTED_EDGE('',*,*,#121,.F.);
#104=ORIENTED_EDGE('',*,*,#139,.F.);
#105=ORIENTED_EDGE('',*,*,#152,.T.);
#106=ORIENTED_EDGE('',*,*,#150,.T.);
#107=ORIENTED_EDGE('',*,*,#138,.F.);
#108=ORIENTED_EDGE('',*,*,#141,.F.);
#109=ORIENTED_EDGE('',*,*,#143,.F.);
#110=ORIENTED_EDGE('',*,*,#145,.F.);
#111=ORIENTED_EDGE('',*,*,#147,.F.);
#112=ORIENTED_EDGE('',*,*,#149,.F.);
#113=ORIENTED_EDGE('',*,*,#151,.F.);
#114=ORIENTED_EDGE('',*,*,#152,.F.);
#115=EDGE_CURVE('',#153,#154,#179,.T.);
#116=EDGE_CURVE('',#153,#155,#180,.T.);
#117=EDGE_CURVE('',#155,#156,#181,.T.);
#118=EDGE_CURVE('',#154,#156,#182,.T.);
#119=EDGE_CURVE('',#157,#158,#23,.T.);
#120=EDGE_CURVE('',#158,#159,#24,.T.);
#121=EDGE_CURVE('',#159,#160,#25,.T.);
#122=EDGE_CURVE('',#160,#161,#26,.T.);
#123=EDGE_CURVE('',#161,#162,#27,.T.);
#124=EDGE_CURVE('',#162,#163,#28,.T.);
#125=EDGE_CURVE('',#163,#164,#29,.T.);
#126=EDGE_CURVE('',#164,#157,#30,.T.);
#127=EDGE_CURVE('',#165,#166,#183,.T.);
#128=EDGE_CURVE('',#153,#165,#184,.T.);
#129=EDGE_CURVE('',#154,#166,#185,.T.);
#130=EDGE_CURVE('',#165,#167,#186,.T.);
#131=EDGE_CURVE('',#155,#167,#187,.T.);
#132=EDGE_CURVE('',#167,#168,#188,.T.);
#133=EDGE_CURVE('',#156,#168,#189,.T.);
#134=EDGE_CURVE('',#166,#168,#190,.T.);
#135=EDGE_CURVE('',#169,#169,#21,.T.);
#136=EDGE_CURVE('',#170,#170,#22,.T.);
#137=EDGE_CURVE('',#171,#158,#191,.T.);
#138=EDGE_CURVE('',#171,#172,#31,.T.);
#139=EDGE_CURVE('',#172,#159,#192,.T.);
#140=EDGE_CURVE('',#173,#157,#193,.T.);
#141=EDGE_CURVE('',#173,#171,#32,.T.);
#142=EDGE_CURVE('',#174,#164,#194,.T.);
#143=EDGE_CURVE('',#174,#173,#33,.T.);
#144=EDGE_CURVE('',#175,#163,#195,.T.);
#145=EDGE_CURVE('',#175,#174,#34,.T.);
#146=EDGE_CURVE('',#176,#162,#196,.T.);
#147=EDGE_CURVE('',#176,#175,#35,.T.);
#148=EDGE_CURVE('',#177,#161,#197,.T.);
#149=EDGE_CURVE('',#177,#176,#36,.T.);
#150=EDGE_CURVE('',#178,#160,#198,.T.);
#151=EDGE_CURVE('',#178,#177,#37,.T.);
#152=EDGE_CURVE('',#172,#178,#38,.T.);
#153=VERTEX_POINT('',#355);
#154=VERTEX_POINT('',#356);
#155=VERTEX_POINT('',#358);
#156=VERTEX_POINT('',#360);
#157=VERTEX_POINT('',#365);
#158=VERTEX_POINT('',#366);
#159=VERTEX_POINT('',#370);
#160=VERTEX_POINT('',#374);
#161=VERTEX_POINT('',#378);
#162=VERTEX_POINT('',#382);
#163=VERTEX_POINT('',#386);
#164=VERTEX_POINT('',#390);
#165=VERTEX_POINT('',#396);
#166=VERTEX_POINT('',#397);
#167=VERTEX_POINT('',#402);
#168=VERTEX_POINT('',#406);
#169=VERTEX_POINT('',#412);
#170=VERTEX_POINT('',#415);
#171=VERTEX_POINT('',#426);
#172=VERTEX_POINT('',#430);
#173=VERTEX_POINT('',#441);
#174=VERTEX_POINT('',#454);
#175=VERTEX_POINT('',#467);
#176=VERTEX_POINT('',#480);
#177=VERTEX_POINT('',#493);
#178=VERTEX_POINT('',#506);
#179=LINE('',#354,#199);
#180=LINE('',#357,#200);
#181=LINE('',#359,#201);
#182=LINE('',#361,#202);
#183=LINE('',#395,#203);
#184=LINE('',#398,#204);
#185=LINE('',#399,#205);
#186=LINE('',#401,#206);
#187=LINE('',#403,#207);
#188=LINE('',#405,#208);
#189=LINE('',#407,#209);
#190=LINE('',#409,#210);
#191=LINE('',#425,#211);
#192=LINE('',#431,#212);
#193=LINE('',#440,#213);
#194=LINE('',#453,#214);
#195=LINE('',#466,#215);
#196=LINE('',#479,#216);
#197=LINE('',#492,#217);
#198=LINE('',#505,#218);
#199=VECTOR('',#312,1.);
#200=VECTOR('',#313,1.);
#201=VECTOR('',#314,1.);
#202=VECTOR('',#315,1.);
#203=VECTOR('',#318,1.);
#204=VECTOR('',#319,1.);
#205=VECTOR('',#320,1.);
#206=VECTOR('',#323,1.);
#207=VECTOR('',#324,1.);
#208=VECTOR('',#327,1.);
#209=VECTOR('',#328,1.);
#210=VECTOR('',#331,1.);
#211=VECTOR('',#342,1.);
#212=VECTOR('',#343,1.);
#213=VECTOR('',#344,1.);
#214=VECTOR('',#345,1.);
#215=VECTOR('',#346,1.);
#216=VECTOR('',#347,1.);
#217=VECTOR('',#348,1.);
#218=VECTOR('',#349,1.);
#219=EDGE_LOOP('',(#39,#40,#41,#42));
#220=EDGE_LOOP('',(#43,#44,#45,#46,#47,#48,#49,#50));
#221=EDGE_LOOP('',(#51,#52,#53,#54));
#222=EDGE_LOOP('',(#55,#56,#57,#58));
#223=EDGE_LOOP('',(#59,#60,#61,#62));
#224=EDGE_LOOP('',(#63,#64,#65,#66));
#225=EDGE_LOOP('',(#67));
#226=EDGE_LOOP('',(#68,#69,#70,#71));
#227=EDGE_LOOP('',(#72));
#228=EDGE_LOOP('',(#73));
#229=EDGE_LOOP('',(#74));
#230=EDGE_LOOP('',(#75,#76,#77,#78));
#231=EDGE_LOOP('',(#79,#80,#81,#82));
#232=EDGE_LOOP('',(#83,#84,#85,#86));
#233=EDGE_LOOP('',(#87,#88,#89,#90));
#234=EDGE_LOOP('',(#91,#92,#93,#94));
#235=EDGE_LOOP('',(#95,#96,#97,#98));
#236=EDGE_LOOP('',(#99,#100,#101,#102));
#237=EDGE_LOOP('',(#103,#104,#105,#106));
#238=EDGE_LOOP('',(#107,#108,#109,#110,#111,#112,#113,#114));
#239=FACE_BOUND('',#219,.T.);
#240=FACE_BOUND('',#220,.T.);
#241=FACE_BOUND('',#221,.T.);
#242=FACE_BOUND('',#222,.T.);
#243=FACE_BOUND('',#223,.T.);
#244=FACE_BOUND('',#224,.T.);
#245=FACE_BOUND('',#225,.T.);
#246=FACE_BOUND('',#226,.T.);
#247=FACE_BOUND('',#227,.T.);
#248=FACE_BOUND('',#228,.T.);
#249=FACE_BOUND('',#229,.T.);
#250=FACE_BOUND('',#230,.T.);
#251=FACE_BOUND('',#231,.T.);
#252=FACE_BOUND('',#232,.T.);
#253=FACE_BOUND('',#233,.T.);
#254=FACE_BOUND('',#234,.T.);
#255=FACE_BOUND('',#235,.T.);
#256=FACE_BOUND('',#236,.T.);
#257=FACE_BOUND('',#237,.T.);
#258=FACE_BOUND('',#238,.T.);
#259=PLANE('',#297);
#260=PLANE('',#298);
#261=PLANE('',#299);
#262=PLANE('',#300);
#263=PLANE('',#301);
#264=PLANE('',#302);
#265=PLANE('',#306);
#266=PLANE('',#307);
#267=ADVANCED_FACE('',(#239,#240),#259,.T.);
#268=ADVANCED_FACE('',(#241),#260,.T.);
#269=ADVANCED_FACE('',(#242),#261,.F.);
#270=ADVANCED_FACE('',(#243),#262,.F.);
#271=ADVANCED_FACE('',(#244),#263,.T.);
#272=ADVANCED_FACE('',(#245,#246),#264,.F.);
#273=ADVANCED_FACE('',(#247,#248),#20,.F.);
#274=ADVANCED_FACE('',(#249),#265,.F.);
#275=ADVANCED_FACE('',(#250),#12,.T.);
#276=ADVANCED_FACE('',(#251),#13,.T.);
#277=ADVANCED_FACE('',(#252),#14,.T.);
#278=ADVANCED_FACE('',(#253),#15,.T.);
#279=ADVANCED_FACE('',(#254),#16,.T.);
#280=ADVANCED_FACE('',(#255),#17,.T.);
#281=ADVANCED_FACE('',(#256),#18,.T.);
#282=ADVANCED_FACE('',(#257),#19,.T.);
#283=ADVANCED_FACE('',(#258),#266,.T.);
#284=CLOSED_SHELL('',(#267,#268,#269,#270,#271,#272,#273,#274,#275,#276,
#277,#278,#279,#280,#281,#282,#283));
#285=STYLED_ITEM('',(#286),#293);
#286=PRESENTATION_STYLE_ASSIGNMENT((#287));
#287=SURFACE_STYLE_USAGE(.BOTH.,#288);
#288=SURFACE_SIDE_STYLE('',(#289));
#289=SURFACE_STYLE_FILL_AREA(#290);
#290=FILL_AREA_STYLE('',(#291));
#291=FILL_AREA_STYLE_COLOUR('',#292);
#292=COLOUR_RGB('',0.615686274509804,0.811764705882353,0.929411764705882);
#293=MANIFOLD_SOLID_BREP('Part 1',#284);
#294=SHAPE_DEFINITION_REPRESENTATION(#528,#295);
#295=SHAPE_REPRESENTATION('Part 1',(#296),#523);
#296=AXIS2_PLACEMENT_3D('',#352,#308,#309);
#297=AXIS2_PLACEMENT_3D('',#353,#310,#311);
#298=AXIS2_PLACEMENT_3D('',#394,#316,#317);
#299=AXIS2_PLACEMENT_3D('',#400,#321,#322);
#300=AXIS2_PLACEMENT_3D('',#404,#325,#326);
#301=AXIS2_PLACEMENT_3D('',#408,#329,#330);
#302=AXIS2_PLACEMENT_3D('',#410,#332,#333);
#303=AXIS2_PLACEMENT_3D('',#411,#334,#335);
#304=AXIS2_PLACEMENT_3D('',#413,#336,#337);
#305=AXIS2_PLACEMENT_3D('',#414,#338,#339);
#306=AXIS2_PLACEMENT_3D('',#416,#340,#341);
#307=AXIS2_PLACEMENT_3D('',#521,#350,#351);
#308=DIRECTION('',(0.,0.,1.));
#309=DIRECTION('',(1.,0.,0.));
#310=DIRECTION('',(0.,0.,1.));
#311=DIRECTION('',(1.,0.,0.));
#312=DIRECTION('',(-1.,-1.44560289664734E-16,0.));
#313=DIRECTION('',(-1.44560289664734E-16,1.,0.));
#314=DIRECTION('',(-1.,-1.44560289664734E-16,0.));
#315=DIRECTION('',(-1.44560289664734E-16,1.,0.));
#316=DIRECTION('',(1.44560289664734E-16,-1.,0.));
#317=DIRECTION('',(1.,1.44560289664734E-16,0.));
#318=DIRECTION('',(-1.,-1.44560289664734E-16,0.));
#319=DIRECTION('',(0.,0.,-1.));
#320=DIRECTION('',(0.,0.,-1.));
#321=DIRECTION('',(-1.,-1.44560289664734E-16,0.));
#322=DIRECTION('',(1.44560289664734E-16,-1.,0.));
#323=DIRECTION('',(-1.44560289664734E-16,1.,0.));
#324=DIRECTION('',(0.,0.,-1.));
#325=DIRECTION('',(1.44560289664734E-16,-1.,0.));
#326=DIRECTION('',(1.,1.44560289664734E-16,0.));
#327=DIRECTION('',(-1.,-1.44560289664734E-16,0.));
#328=DIRECTION('',(0.,0.,-1.));
#329=DIRECTION('',(-1.,-1.44560289664734E-16,0.));
#330=DIRECTION('',(1.44560289664734E-16,-1.,0.));
#331=DIRECTION('',(-1.44560289664734E-16,1.,0.));
#332=DIRECTION('',(0.,0.,1.));
#333=DIRECTION('',(1.,0.,0.));
#334=DIRECTION('',(0.,0.,1.));
#335=DIRECTION('',(1.,0.,0.));
#336=DIRECTION('',(0.,0.,-1.));
#337=DIRECTION('',(-1.,0.,0.));
#338=DIRECTION('',(0.,0.,1.));
#339=DIRECTION('',(1.,0.,0.));
#340=DIRECTION('',(0.,0.,1.));
#341=DIRECTION('',(1.,0.,0.));
#342=DIRECTION('',(0.,0.,1.));
#343=DIRECTION('',(0.,0.,1.));
#344=DIRECTION('',(0.,0.,1.));
#345=DIRECTION('',(0.,0.,1.));
#346=DIRECTION('',(0.,0.,1.));
#347=DIRECTION('',(0.,0.,1.));
#348=DIRECTION('',(0.,0.,1.));
#349=DIRECTION('',(0.,0.,1.));
#350=DIRECTION('',(0.,0.,1.));
#351=DIRECTION('',(1.,0.,0.));
#352=CARTESIAN_POINT('',(0.,0.,0.));
#353=CARTESIAN_POINT('',(0.,0.,0.007));
#354=CARTESIAN_POINT('',(4.33680868994202E-19,-0.003,0.007));
#355=CARTESIAN_POINT('',(0.003,-0.003,0.007));
#356=CARTESIAN_POINT('',(-0.003,-0.003,0.007));
#357=CARTESIAN_POINT('',(0.003,0.,0.007));
#358=CARTESIAN_POINT('',(0.003,0.003,0.007));
#359=CARTESIAN_POINT('',(-4.33680868994202E-19,0.003,0.007));
#360=CARTESIAN_POINT('',(-0.003,0.003,0.007));
#361=CARTESIAN_POINT('',(-0.003,-4.33680868994202E-19,0.007));
#362=CARTESIAN_POINT('',(-0.000481119791666667,-0.000427642333709324,0.007));
#363=CARTESIAN_POINT('',(-0.00066796875,-0.000255116292042657,0.007));
#364=CARTESIAN_POINT('',(-0.00066796875,2.22274579573431E-5,0.007));
#365=CARTESIAN_POINT('',(-0.000481119791666667,-0.000427642333709324,0.007));
#366=CARTESIAN_POINT('',(-0.00066796875,2.22274579573431E-5,0.007));
#367=CARTESIAN_POINT('',(-0.00066796875,2.22274579573431E-5,0.007));
#368=CARTESIAN_POINT('',(-0.00066796875,0.00030217537462401,0.007));
#369=CARTESIAN_POINT('',(-0.000479166666666667,0.000477305582957343,0.007));
#370=CARTESIAN_POINT('',(-0.000479166666666667,0.000477305582957343,0.007));
#371=CARTESIAN_POINT('',(-0.000479166666666667,0.000477305582957343,0.007));
#372=CARTESIAN_POINT('',(-0.000290364583333334,0.000652435791290677,0.007));
#373=CARTESIAN_POINT('',(-5.20833333333341E-6,0.000652435791290677,0.007));
#374=CARTESIAN_POINT('',(-5.20833333333341E-6,0.000652435791290677,0.007));
#375=CARTESIAN_POINT('',(-5.20833333333341E-6,0.000652435791290677,0.007));
#376=CARTESIAN_POINT('',(0.000283854166666666,0.000652435791290677,0.007));
#377=CARTESIAN_POINT('',(0.000473307291666667,0.000477305582957343,0.007));
#378=CARTESIAN_POINT('',(0.000473307291666667,0.000477305582957343,0.007));
#379=CARTESIAN_POINT('',(0.000473307291666667,0.000477305582957343,0.007));
#380=CARTESIAN_POINT('',(0.000662760416666667,0.00030217537462401,0.007));
#381=CARTESIAN_POINT('',(0.000662760416666667,2.22274579573431E-5,0.007));
#382=CARTESIAN_POINT('',(0.000662760416666667,2.22274579573431E-5,0.007));
#383=CARTESIAN_POINT('',(0.000662760416666667,2.22274579573431E-5,0.007));
#384=CARTESIAN_POINT('',(0.000662760416666667,-0.000255116292042657,0.007));
#385=CARTESIAN_POINT('',(0.000475260416666667,-0.000427642333709324,0.007));
#386=CARTESIAN_POINT('',(0.000475260416666667,-0.000427642333709324,0.007));
#387=CARTESIAN_POINT('',(0.000475260416666667,-0.000427642333709324,0.007));
#388=CARTESIAN_POINT('',(0.000287760416666666,-0.00060016837537599,0.007));
#389=CARTESIAN_POINT('',(-5.20833333333341E-6,-0.00060016837537599,0.007));
#390=CARTESIAN_POINT('',(-5.20833333333341E-6,-0.00060016837537599,0.007));
#391=CARTESIAN_POINT('',(-5.20833333333341E-6,-0.00060016837537599,0.007));
#392=CARTESIAN_POINT('',(-0.000294270833333334,-0.00060016837537599,0.007));
#393=CARTESIAN_POINT('',(-0.000481119791666667,-0.000427642333709324,0.007));
#394=CARTESIAN_POINT('',(4.33680868994202E-19,-0.003,0.007));
#395=CARTESIAN_POINT('',(4.33680868994202E-19,-0.003,0.));
#396=CARTESIAN_POINT('',(0.003,-0.003,0.));
#397=CARTESIAN_POINT('',(-0.003,-0.003,0.));
#398=CARTESIAN_POINT('',(0.003,-0.003,0.007));
#399=CARTESIAN_POINT('',(-0.003,-0.003,0.007));
#400=CARTESIAN_POINT('',(0.003,0.,0.007));
#401=CARTESIAN_POINT('',(0.003,0.,0.));
#402=CARTESIAN_POINT('',(0.003,0.003,0.));
#403=CARTESIAN_POINT('',(0.003,0.003,0.007));
#404=CARTESIAN_POINT('',(-4.33680868994202E-19,0.003,0.007));
#405=CARTESIAN_POINT('',(-4.33680868994202E-19,0.003,0.));
#406=CARTESIAN_POINT('',(-0.003,0.003,0.));
#407=CARTESIAN_POINT('',(-0.003,0.003,0.007));
#408=CARTESIAN_POINT('',(-0.003,-4.33680868994202E-19,0.007));
#409=CARTESIAN_POINT('',(-0.003,-4.33680868994202E-19,0.));
#410=CARTESIAN_POINT('',(0.,0.,0.));
#411=CARTESIAN_POINT('',(0.,1.07156594925393E-19,0.));
#412=CARTESIAN_POINT('',(0.00175,1.07156594925393E-19,0.));
#413=CARTESIAN_POINT('',(0.,1.07156594925393E-19,0.002));
#414=CARTESIAN_POINT('',(0.,1.07156594925393E-19,0.002));
#415=CARTESIAN_POINT('',(0.00175,1.07156594925393E-19,0.002));
#416=CARTESIAN_POINT('',(0.,0.,0.002));
#417=CARTESIAN_POINT('',(-0.00066796875,2.22274579573431E-5,0.006));
#418=CARTESIAN_POINT('',(-0.00066796875,2.22274579573431E-5,0.007));
#419=CARTESIAN_POINT('',(-0.00066796875,0.000208859402401787,0.006));
#420=CARTESIAN_POINT('',(-0.00066796875,0.000208859402401787,0.007));
#421=CARTESIAN_POINT('',(-0.000605034722222222,0.000360552110735121,0.006));
#422=CARTESIAN_POINT('',(-0.000605034722222222,0.000360552110735121,0.007));
#423=CARTESIAN_POINT('',(-0.000479166666666667,0.000477305582957343,0.006));
#424=CARTESIAN_POINT('',(-0.000479166666666667,0.000477305582957343,0.007));
#425=CARTESIAN_POINT('',(-0.00066796875,2.22274579573431E-5,0.006));
#426=CARTESIAN_POINT('',(-0.00066796875,2.22274579573431E-5,0.006));
#427=CARTESIAN_POINT('',(-0.00066796875,2.22274579573431E-5,0.006));
#428=CARTESIAN_POINT('',(-0.00066796875,0.00030217537462401,0.006));
#429=CARTESIAN_POINT('',(-0.000479166666666667,0.000477305582957343,0.006));
#430=CARTESIAN_POINT('',(-0.000479166666666667,0.000477305582957343,0.006));
#431=CARTESIAN_POINT('',(-0.000479166666666667,0.000477305582957343,0.006));
#432=CARTESIAN_POINT('',(-0.000481119791666667,-0.000427642333709324,0.006));
#433=CARTESIAN_POINT('',(-0.000481119791666667,-0.000427642333709324,0.007));
#434=CARTESIAN_POINT('',(-0.000605685763888889,-0.000312624972598213,0.006));
#435=CARTESIAN_POINT('',(-0.000605685763888889,-0.000312624972598213,0.007));
#436=CARTESIAN_POINT('',(-0.00066796875,-0.00016266837537599,0.006));
#437=CARTESIAN_POINT('',(-0.00066796875,-0.00016266837537599,0.007));
#438=CARTESIAN_POINT('',(-0.00066796875,2.22274579573431E-5,0.006));
#439=CARTESIAN_POINT('',(-0.00066796875,2.22274579573431E-5,0.007));
#440=CARTESIAN_POINT('',(-0.000481119791666667,-0.000427642333709324,0.006));
#441=CARTESIAN_POINT('',(-0.000481119791666667,-0.000427642333709324,0.006));
#442=CARTESIAN_POINT('',(-0.000481119791666667,-0.000427642333709324,0.006));
#443=CARTESIAN_POINT('',(-0.00066796875,-0.000255116292042657,0.006));
#444=CARTESIAN_POINT('',(-0.00066796875,2.22274579573431E-5,0.006));
#445=CARTESIAN_POINT('',(-5.20833333333341E-6,-0.00060016837537599,0.006));
#446=CARTESIAN_POINT('',(-5.20833333333341E-6,-0.00060016837537599,0.007));
#447=CARTESIAN_POINT('',(-0.000197916666666667,-0.00060016837537599,0.006));
#448=CARTESIAN_POINT('',(-0.000197916666666667,-0.00060016837537599,0.007));
#449=CARTESIAN_POINT('',(-0.000356553819444445,-0.000542659694820435,0.006));
#450=CARTESIAN_POINT('',(-0.000356553819444445,-0.000542659694820435,0.007));
#451=CARTESIAN_POINT('',(-0.000481119791666667,-0.000427642333709324,0.006));
#452=CARTESIAN_POINT('',(-0.000481119791666667,-0.000427642333709324,0.007));
#453=CARTESIAN_POINT('',(-5.20833333333341E-6,-0.00060016837537599,0.006));
#454=CARTESIAN_POINT('',(-5.20833333333341E-6,-0.00060016837537599,0.006));
#455=CARTESIAN_POINT('',(-5.20833333333341E-6,-0.00060016837537599,0.006));
#456=CARTESIAN_POINT('',(-0.000294270833333334,-0.00060016837537599,0.006));
#457=CARTESIAN_POINT('',(-0.000481119791666667,-0.000427642333709324,0.006));
#458=CARTESIAN_POINT('',(0.000475260416666667,-0.000427642333709324,0.006));
#459=CARTESIAN_POINT('',(0.000475260416666667,-0.000427642333709324,0.007));
#460=CARTESIAN_POINT('',(0.000350260416666667,-0.000542659694820435,0.006));
#461=CARTESIAN_POINT('',(0.000350260416666667,-0.000542659694820435,0.007));
#462=CARTESIAN_POINT('',(0.000190104166666667,-0.00060016837537599,0.006));
#463=CARTESIAN_POINT('',(0.000190104166666667,-0.00060016837537599,0.007));
#464=CARTESIAN_POINT('',(-5.20833333333341E-6,-0.00060016837537599,0.006));
#465=CARTESIAN_POINT('',(-5.20833333333341E-6,-0.00060016837537599,0.007));
#466=CARTESIAN_POINT('',(0.000475260416666667,-0.000427642333709324,0.006));
#467=CARTESIAN_POINT('',(0.000475260416666667,-0.000427642333709324,0.006));
#468=CARTESIAN_POINT('',(0.000475260416666667,-0.000427642333709324,0.006));
#469=CARTESIAN_POINT('',(0.000287760416666666,-0.00060016837537599,0.006));
#470=CARTESIAN_POINT('',(-5.20833333333341E-6,-0.00060016837537599,0.006));
#471=CARTESIAN_POINT('',(0.000662760416666667,2.22274579573431E-5,0.006));
#472=CARTESIAN_POINT('',(0.000662760416666667,2.22274579573431E-5,0.007));
#473=CARTESIAN_POINT('',(0.000662760416666667,-0.00016266837537599,0.006));
#474=CARTESIAN_POINT('',(0.000662760416666667,-0.00016266837537599,0.007));
#475=CARTESIAN_POINT('',(0.000600260416666667,-0.000312624972598213,0.006));
#476=CARTESIAN_POINT('',(0.000600260416666667,-0.000312624972598213,0.007));
#477=CARTESIAN_POINT('',(0.000475260416666667,-0.000427642333709324,0.006));
#478=CARTESIAN_POINT('',(0.000475260416666667,-0.000427642333709324,0.007));
#479=CARTESIAN_POINT('',(0.000662760416666667,2.22274579573431E-5,0.006));
#480=CARTESIAN_POINT('',(0.000662760416666667,2.22274579573431E-5,0.006));
#481=CARTESIAN_POINT('',(0.000662760416666667,2.22274579573431E-5,0.006));
#482=CARTESIAN_POINT('',(0.000662760416666667,-0.000255116292042657,0.006));
#483=CARTESIAN_POINT('',(0.000475260416666667,-0.000427642333709324,0.006));
#484=CARTESIAN_POINT('',(0.000473307291666667,0.000477305582957343,0.006));
#485=CARTESIAN_POINT('',(0.000473307291666667,0.000477305582957343,0.007));
#486=CARTESIAN_POINT('',(0.000599609375,0.000360552110735121,0.006));
#487=CARTESIAN_POINT('',(0.000599609375,0.000360552110735121,0.007));
#488=CARTESIAN_POINT('',(0.000662760416666667,0.000208859402401787,0.006));
#489=CARTESIAN_POINT('',(0.000662760416666667,0.000208859402401787,0.007));
#490=CARTESIAN_POINT('',(0.000662760416666667,2.22274579573431E-5,0.006));
#491=CARTESIAN_POINT('',(0.000662760416666667,2.22274579573431E-5,0.007));
#492=CARTESIAN_POINT('',(0.000473307291666667,0.000477305582957343,0.006));
#493=CARTESIAN_POINT('',(0.000473307291666667,0.000477305582957343,0.006));
#494=CARTESIAN_POINT('',(0.000473307291666667,0.000477305582957343,0.006));
#495=CARTESIAN_POINT('',(0.000662760416666667,0.00030217537462401,0.006));
#496=CARTESIAN_POINT('',(0.000662760416666667,2.22274579573431E-5,0.006));
#497=CARTESIAN_POINT('',(-5.20833333333341E-6,0.000652435791290677,0.006));
#498=CARTESIAN_POINT('',(-5.20833333333341E-6,0.000652435791290677,0.007));
#499=CARTESIAN_POINT('',(0.0001875,0.000652435791290677,0.006));
#500=CARTESIAN_POINT('',(0.0001875,0.000652435791290677,0.007));
#501=CARTESIAN_POINT('',(0.000347005208333333,0.000594059055179566,0.006));
#502=CARTESIAN_POINT('',(0.000347005208333333,0.000594059055179566,0.007));
#503=CARTESIAN_POINT('',(0.000473307291666667,0.000477305582957343,0.006));
#504=CARTESIAN_POINT('',(0.000473307291666667,0.000477305582957343,0.007));
#505=CARTESIAN_POINT('',(-5.20833333333341E-6,0.000652435791290677,0.006));
#506=CARTESIAN_POINT('',(-5.20833333333341E-6,0.000652435791290677,0.006));
#507=CARTESIAN_POINT('',(-5.20833333333341E-6,0.000652435791290677,0.006));
#508=CARTESIAN_POINT('',(0.000283854166666666,0.000652435791290677,0.006));
#509=CARTESIAN_POINT('',(0.000473307291666667,0.000477305582957343,0.006));
#510=CARTESIAN_POINT('',(-0.000479166666666667,0.000477305582957343,0.006));
#511=CARTESIAN_POINT('',(-0.000479166666666667,0.000477305582957343,0.007));
#512=CARTESIAN_POINT('',(-0.000353298611111111,0.000594059055179566,0.006));
#513=CARTESIAN_POINT('',(-0.000353298611111111,0.000594059055179566,0.007));
#514=CARTESIAN_POINT('',(-0.0001953125,0.000652435791290677,0.006));
#515=CARTESIAN_POINT('',(-0.0001953125,0.000652435791290677,0.007));
#516=CARTESIAN_POINT('',(-5.20833333333341E-6,0.000652435791290677,0.006));
#517=CARTESIAN_POINT('',(-5.20833333333341E-6,0.000652435791290677,0.007));
#518=CARTESIAN_POINT('',(-0.000479166666666667,0.000477305582957343,0.006));
#519=CARTESIAN_POINT('',(-0.000290364583333334,0.000652435791290677,0.006));
#520=CARTESIAN_POINT('',(-5.20833333333341E-6,0.000652435791290677,0.006));
#521=CARTESIAN_POINT('',(0.,0.00122205122897867,0.006));
#522=MECHANICAL_DESIGN_GEOMETRIC_PRESENTATION_REPRESENTATION('',(#285),
#523);
#523=(
GEOMETRIC_REPRESENTATION_CONTEXT(3)
GLOBAL_UNCERTAINTY_ASSIGNED_CONTEXT((#524))
GLOBAL_UNIT_ASSIGNED_CONTEXT((#527,#526,#525))
REPRESENTATION_CONTEXT('Part 1','TOP_LEVEL_ASSEMBLY_PART')
);
#524=UNCERTAINTY_MEASURE_WITH_UNIT(LENGTH_MEASURE(2.E-5),#527,
'DISTANCE_ACCURACY_VALUE','Maximum Tolerance applied to model');
#525=(
NAMED_UNIT(*)
SI_UNIT($,.STERADIAN.)
SOLID_ANGLE_UNIT()
);
#526=(
NAMED_UNIT(*)
PLANE_ANGLE_UNIT()
SI_UNIT($,.RADIAN.)
);
#527=(
LENGTH_UNIT()
NAMED_UNIT(*)
SI_UNIT($,.METRE.)
);
#528=PRODUCT_DEFINITION_SHAPE('','',#529);
#529=PRODUCT_DEFINITION('','',#531,#530);
#530=PRODUCT_DEFINITION_CONTEXT('',#537,'design');
#531=PRODUCT_DEFINITION_FORMATION_WITH_SPECIFIED_SOURCE('','',#533,
 .NOT_KNOWN.);
#532=PRODUCT_RELATED_PRODUCT_CATEGORY('','',(#533));
#533=PRODUCT('Part 1','Part 1','Part 1',(#535));
#534=PRODUCT_CATEGORY('','');
#535=PRODUCT_CONTEXT('',#537,'mechanical');
#536=APPLICATION_PROTOCOL_DEFINITION('international standard',
'ap242_managed_model_based_3d_engineering',2020,#537);
#537=APPLICATION_CONTEXT('managed model based 3d engineering');
ENDSEC;
END-ISO-10303-21;
