ISO-10303-21;
HEADER;
/* Generated by software containing ST-Developer
 * from STEP Tools, Inc. (www.steptools.com) 
 */
/* OPTION: using custom renumber hook */

FILE_DESCRIPTION(
/* description */ ('STEP AP242 Edition 2',
'CAx-IF Rec.Pracs.---Representation and Presentation of Product Manufa
cturing Information (PMI)---4.0---2014-10-13',
'CAx-IF Rec.Pracs.---3D Tessellated Geometry---0.4---2014-09-14','2;1',
'CAx-IF Rec.Pracs.---User Defined Attributes---1.5---2016-08-15'),
/* implementation_level */ '2;1');

FILE_NAME(
/* name */ 'Clip',
/* time_stamp */ '2026-07-29T14:41:41Z',
/* author */ (''),
/* organization */ (''),
/* preprocessor_version */ 'ST-DEVELOPER v20',
/* originating_system */ 'ONSHAPE BY PTC INC, 1.218',
/* authorisation */ '  ');

FILE_SCHEMA (('AP242_MANAGED_MODEL_BASED_3D_ENGINEERING_MIM_LF { 1 0 10303 442 3 1 4 }'));
ENDSEC;

DATA;
#10=SHAPE_REPRESENTATION_RELATIONSHIP('','',#735,#11);
#11=ADVANCED_BREP_SHAPE_REPRESENTATION('',(#733),#1165);
#12=CIRCLE('',#740,0.0025);
#13=CIRCLE('',#741,0.0025);
#14=CIRCLE('',#743,0.0005);
#15=CIRCLE('',#745,0.0005);
#16=CYLINDRICAL_SURFACE('',#739,0.0025);
#17=CYLINDRICAL_SURFACE('',#747,0.0005);
#18=ORIENTED_EDGE('',*,*,#218,.F.);
#19=ORIENTED_EDGE('',*,*,#219,.T.);
#20=ORIENTED_EDGE('',*,*,#220,.F.);
#21=ORIENTED_EDGE('',*,*,#221,.T.);
#22=ORIENTED_EDGE('',*,*,#222,.T.);
#23=ORIENTED_EDGE('',*,*,#223,.T.);
#24=ORIENTED_EDGE('',*,*,#224,.F.);
#25=ORIENTED_EDGE('',*,*,#225,.F.);
#26=ORIENTED_EDGE('',*,*,#226,.F.);
#27=ORIENTED_EDGE('',*,*,#227,.T.);
#28=ORIENTED_EDGE('',*,*,#228,.T.);
#29=ORIENTED_EDGE('',*,*,#229,.T.);
#30=ORIENTED_EDGE('',*,*,#230,.F.);
#31=ORIENTED_EDGE('',*,*,#231,.F.);
#32=ORIENTED_EDGE('',*,*,#232,.T.);
#33=ORIENTED_EDGE('',*,*,#233,.T.);
#34=ORIENTED_EDGE('',*,*,#234,.F.);
#35=ORIENTED_EDGE('',*,*,#235,.F.);
#36=ORIENTED_EDGE('',*,*,#236,.T.);
#37=ORIENTED_EDGE('',*,*,#228,.F.);
#38=ORIENTED_EDGE('',*,*,#237,.F.);
#39=ORIENTED_EDGE('',*,*,#238,.T.);
#40=ORIENTED_EDGE('',*,*,#239,.F.);
#41=ORIENTED_EDGE('',*,*,#240,.T.);
#42=ORIENTED_EDGE('',*,*,#241,.F.);
#43=ORIENTED_EDGE('',*,*,#242,.T.);
#44=ORIENTED_EDGE('',*,*,#243,.F.);
#45=ORIENTED_EDGE('',*,*,#236,.F.);
#46=ORIENTED_EDGE('',*,*,#244,.F.);
#47=ORIENTED_EDGE('',*,*,#232,.F.);
#48=ORIENTED_EDGE('',*,*,#245,.F.);
#49=ORIENTED_EDGE('',*,*,#227,.F.);
#50=ORIENTED_EDGE('',*,*,#246,.T.);
#51=ORIENTED_EDGE('',*,*,#247,.F.);
#52=ORIENTED_EDGE('',*,*,#237,.T.);
#53=ORIENTED_EDGE('',*,*,#248,.F.);
#54=ORIENTED_EDGE('',*,*,#225,.T.);
#55=ORIENTED_EDGE('',*,*,#243,.T.);
#56=ORIENTED_EDGE('',*,*,#249,.T.);
#57=ORIENTED_EDGE('',*,*,#222,.F.);
#58=ORIENTED_EDGE('',*,*,#238,.F.);
#59=ORIENTED_EDGE('',*,*,#247,.T.);
#60=ORIENTED_EDGE('',*,*,#250,.F.);
#61=ORIENTED_EDGE('',*,*,#249,.F.);
#62=ORIENTED_EDGE('',*,*,#242,.F.);
#63=ORIENTED_EDGE('',*,*,#251,.T.);
#64=ORIENTED_EDGE('',*,*,#252,.T.);
#65=ORIENTED_EDGE('',*,*,#253,.F.);
#66=ORIENTED_EDGE('',*,*,#240,.F.);
#67=ORIENTED_EDGE('',*,*,#254,.T.);
#68=ORIENTED_EDGE('',*,*,#255,.T.);
#69=ORIENTED_EDGE('',*,*,#226,.T.);
#70=ORIENTED_EDGE('',*,*,#248,.T.);
#71=ORIENTED_EDGE('',*,*,#250,.T.);
#72=ORIENTED_EDGE('',*,*,#246,.F.);
#73=ORIENTED_EDGE('',*,*,#256,.T.);
#74=ORIENTED_EDGE('',*,*,#257,.T.);
#75=ORIENTED_EDGE('',*,*,#258,.T.);
#76=ORIENTED_EDGE('',*,*,#259,.F.);
#77=ORIENTED_EDGE('',*,*,#260,.T.);
#78=ORIENTED_EDGE('',*,*,#254,.F.);
#79=ORIENTED_EDGE('',*,*,#261,.F.);
#80=ORIENTED_EDGE('',*,*,#239,.T.);
#81=ORIENTED_EDGE('',*,*,#221,.F.);
#82=ORIENTED_EDGE('',*,*,#262,.F.);
#83=ORIENTED_EDGE('',*,*,#261,.T.);
#84=ORIENTED_EDGE('',*,*,#258,.F.);
#85=ORIENTED_EDGE('',*,*,#263,.T.);
#86=ORIENTED_EDGE('',*,*,#218,.T.);
#87=ORIENTED_EDGE('',*,*,#264,.F.);
#88=ORIENTED_EDGE('',*,*,#220,.T.);
#89=ORIENTED_EDGE('',*,*,#265,.T.);
#90=ORIENTED_EDGE('',*,*,#256,.F.);
#91=ORIENTED_EDGE('',*,*,#262,.T.);
#92=ORIENTED_EDGE('',*,*,#266,.T.);
#93=ORIENTED_EDGE('',*,*,#267,.T.);
#94=ORIENTED_EDGE('',*,*,#268,.T.);
#95=ORIENTED_EDGE('',*,*,#269,.F.);
#96=ORIENTED_EDGE('',*,*,#270,.T.);
#97=ORIENTED_EDGE('',*,*,#251,.F.);
#98=ORIENTED_EDGE('',*,*,#271,.F.);
#99=ORIENTED_EDGE('',*,*,#241,.T.);
#100=ORIENTED_EDGE('',*,*,#272,.F.);
#101=ORIENTED_EDGE('',*,*,#273,.F.);
#102=ORIENTED_EDGE('',*,*,#271,.T.);
#103=ORIENTED_EDGE('',*,*,#274,.F.);
#104=ORIENTED_EDGE('',*,*,#275,.T.);
#105=ORIENTED_EDGE('',*,*,#276,.F.);
#106=ORIENTED_EDGE('',*,*,#272,.T.);
#107=ORIENTED_EDGE('',*,*,#253,.T.);
#108=ORIENTED_EDGE('',*,*,#277,.F.);
#109=ORIENTED_EDGE('',*,*,#278,.T.);
#110=ORIENTED_EDGE('',*,*,#268,.F.);
#111=ORIENTED_EDGE('',*,*,#279,.T.);
#112=ORIENTED_EDGE('',*,*,#274,.T.);
#113=ORIENTED_EDGE('',*,*,#280,.F.);
#114=ORIENTED_EDGE('',*,*,#276,.T.);
#115=ORIENTED_EDGE('',*,*,#281,.T.);
#116=ORIENTED_EDGE('',*,*,#266,.F.);
#117=ORIENTED_EDGE('',*,*,#273,.T.);
#118=ORIENTED_EDGE('',*,*,#244,.T.);
#119=ORIENTED_EDGE('',*,*,#282,.F.);
#120=ORIENTED_EDGE('',*,*,#283,.F.);
#121=ORIENTED_EDGE('',*,*,#284,.T.);
#122=ORIENTED_EDGE('',*,*,#285,.F.);
#123=ORIENTED_EDGE('',*,*,#286,.T.);
#124=ORIENTED_EDGE('',*,*,#287,.F.);
#125=ORIENTED_EDGE('',*,*,#282,.T.);
#126=ORIENTED_EDGE('',*,*,#235,.T.);
#127=ORIENTED_EDGE('',*,*,#288,.T.);
#128=ORIENTED_EDGE('',*,*,#289,.T.);
#129=ORIENTED_EDGE('',*,*,#290,.F.);
#130=ORIENTED_EDGE('',*,*,#291,.T.);
#131=ORIENTED_EDGE('',*,*,#285,.T.);
#132=ORIENTED_EDGE('',*,*,#292,.F.);
#133=ORIENTED_EDGE('',*,*,#293,.T.);
#134=ORIENTED_EDGE('',*,*,#294,.T.);
#135=ORIENTED_EDGE('',*,*,#290,.T.);
#136=ORIENTED_EDGE('',*,*,#295,.F.);
#137=ORIENTED_EDGE('',*,*,#296,.F.);
#138=ORIENTED_EDGE('',*,*,#233,.F.);
#139=ORIENTED_EDGE('',*,*,#284,.F.);
#140=ORIENTED_EDGE('',*,*,#287,.T.);
#141=ORIENTED_EDGE('',*,*,#297,.T.);
#142=ORIENTED_EDGE('',*,*,#293,.F.);
#143=ORIENTED_EDGE('',*,*,#283,.T.);
#144=ORIENTED_EDGE('',*,*,#298,.T.);
#145=ORIENTED_EDGE('',*,*,#299,.T.);
#146=ORIENTED_EDGE('',*,*,#300,.T.);
#147=ORIENTED_EDGE('',*,*,#301,.F.);
#148=ORIENTED_EDGE('',*,*,#302,.F.);
#149=ORIENTED_EDGE('',*,*,#229,.F.);
#150=ORIENTED_EDGE('',*,*,#303,.F.);
#151=ORIENTED_EDGE('',*,*,#245,.T.);
#152=ORIENTED_EDGE('',*,*,#304,.F.);
#153=ORIENTED_EDGE('',*,*,#305,.F.);
#154=ORIENTED_EDGE('',*,*,#303,.T.);
#155=ORIENTED_EDGE('',*,*,#306,.F.);
#156=ORIENTED_EDGE('',*,*,#307,.T.);
#157=ORIENTED_EDGE('',*,*,#308,.F.);
#158=ORIENTED_EDGE('',*,*,#304,.T.);
#159=ORIENTED_EDGE('',*,*,#231,.T.);
#160=ORIENTED_EDGE('',*,*,#309,.T.);
#161=ORIENTED_EDGE('',*,*,#310,.T.);
#162=ORIENTED_EDGE('',*,*,#300,.F.);
#163=ORIENTED_EDGE('',*,*,#311,.T.);
#164=ORIENTED_EDGE('',*,*,#306,.T.);
#165=ORIENTED_EDGE('',*,*,#312,.F.);
#166=ORIENTED_EDGE('',*,*,#308,.T.);
#167=ORIENTED_EDGE('',*,*,#313,.T.);
#168=ORIENTED_EDGE('',*,*,#298,.F.);
#169=ORIENTED_EDGE('',*,*,#305,.T.);
#170=ORIENTED_EDGE('',*,*,#314,.T.);
#171=ORIENTED_EDGE('',*,*,#301,.T.);
#172=ORIENTED_EDGE('',*,*,#312,.T.);
#173=ORIENTED_EDGE('',*,*,#310,.F.);
#174=ORIENTED_EDGE('',*,*,#230,.T.);
#175=ORIENTED_EDGE('',*,*,#302,.T.);
#176=ORIENTED_EDGE('',*,*,#314,.F.);
#177=ORIENTED_EDGE('',*,*,#309,.F.);
#178=ORIENTED_EDGE('',*,*,#315,.T.);
#179=ORIENTED_EDGE('',*,*,#295,.T.);
#180=ORIENTED_EDGE('',*,*,#292,.T.);
#181=ORIENTED_EDGE('',*,*,#289,.F.);
#182=ORIENTED_EDGE('',*,*,#234,.T.);
#183=ORIENTED_EDGE('',*,*,#296,.T.);
#184=ORIENTED_EDGE('',*,*,#315,.F.);
#185=ORIENTED_EDGE('',*,*,#288,.F.);
#186=ORIENTED_EDGE('',*,*,#269,.T.);
#187=ORIENTED_EDGE('',*,*,#280,.T.);
#188=ORIENTED_EDGE('',*,*,#278,.F.);
#189=ORIENTED_EDGE('',*,*,#316,.F.);
#190=ORIENTED_EDGE('',*,*,#316,.T.);
#191=ORIENTED_EDGE('',*,*,#277,.T.);
#192=ORIENTED_EDGE('',*,*,#252,.F.);
#193=ORIENTED_EDGE('',*,*,#270,.F.);
#194=ORIENTED_EDGE('',*,*,#259,.T.);
#195=ORIENTED_EDGE('',*,*,#264,.T.);
#196=ORIENTED_EDGE('',*,*,#224,.T.);
#197=ORIENTED_EDGE('',*,*,#317,.F.);
#198=ORIENTED_EDGE('',*,*,#317,.T.);
#199=ORIENTED_EDGE('',*,*,#223,.F.);
#200=ORIENTED_EDGE('',*,*,#255,.F.);
#201=ORIENTED_EDGE('',*,*,#260,.F.);
#202=ORIENTED_EDGE('',*,*,#257,.F.);
#203=ORIENTED_EDGE('',*,*,#265,.F.);
#204=ORIENTED_EDGE('',*,*,#219,.F.);
#205=ORIENTED_EDGE('',*,*,#263,.F.);
#206=ORIENTED_EDGE('',*,*,#267,.F.);
#207=ORIENTED_EDGE('',*,*,#281,.F.);
#208=ORIENTED_EDGE('',*,*,#275,.F.);
#209=ORIENTED_EDGE('',*,*,#279,.F.);
#210=ORIENTED_EDGE('',*,*,#299,.F.);
#211=ORIENTED_EDGE('',*,*,#313,.F.);
#212=ORIENTED_EDGE('',*,*,#307,.F.);
#213=ORIENTED_EDGE('',*,*,#311,.F.);
#214=ORIENTED_EDGE('',*,*,#294,.F.);
#215=ORIENTED_EDGE('',*,*,#297,.F.);
#216=ORIENTED_EDGE('',*,*,#286,.F.);
#217=ORIENTED_EDGE('',*,*,#291,.F.);
#218=EDGE_CURVE('',#318,#319,#382,.T.);
#219=EDGE_CURVE('',#318,#320,#383,.F.);
#220=EDGE_CURVE('',#321,#320,#384,.T.);
#221=EDGE_CURVE('',#321,#322,#385,.T.);
#222=EDGE_CURVE('',#322,#323,#386,.T.);
#223=EDGE_CURVE('',#323,#324,#387,.T.);
#224=EDGE_CURVE('',#319,#324,#388,.T.);
#225=EDGE_CURVE('',#325,#326,#389,.T.);
#226=EDGE_CURVE('',#327,#325,#390,.T.);
#227=EDGE_CURVE('',#327,#328,#391,.T.);
#228=EDGE_CURVE('',#328,#329,#392,.T.);
#229=EDGE_CURVE('',#329,#330,#393,.T.);
#230=EDGE_CURVE('',#331,#330,#394,.T.);
#231=EDGE_CURVE('',#332,#331,#395,.T.);
#232=EDGE_CURVE('',#332,#333,#396,.T.);
#233=EDGE_CURVE('',#333,#334,#397,.T.);
#234=EDGE_CURVE('',#335,#334,#398,.T.);
#235=EDGE_CURVE('',#336,#335,#399,.T.);
#236=EDGE_CURVE('',#336,#326,#400,.T.);
#237=EDGE_CURVE('',#337,#328,#12,.F.);
#238=EDGE_CURVE('',#337,#322,#401,.T.);
#239=EDGE_CURVE('',#338,#322,#402,.T.);
#240=EDGE_CURVE('',#338,#339,#403,.T.);
#241=EDGE_CURVE('',#340,#339,#404,.T.);
#242=EDGE_CURVE('',#340,#341,#405,.T.);
#243=EDGE_CURVE('',#326,#341,#13,.T.);
#244=EDGE_CURVE('',#333,#336,#406,.T.);
#245=EDGE_CURVE('',#329,#332,#407,.T.);
#246=EDGE_CURVE('',#327,#342,#14,.T.);
#247=EDGE_CURVE('',#337,#342,#408,.T.);
#248=EDGE_CURVE('',#325,#343,#15,.T.);
#249=EDGE_CURVE('',#341,#343,#409,.T.);
#250=EDGE_CURVE('',#343,#342,#410,.F.);
#251=EDGE_CURVE('',#340,#344,#411,.T.);
#252=EDGE_CURVE('',#344,#345,#412,.T.);
#253=EDGE_CURVE('',#339,#345,#413,.T.);
#254=EDGE_CURVE('',#338,#346,#414,.T.);
#255=EDGE_CURVE('',#346,#323,#415,.T.);
#256=EDGE_CURVE('',#347,#348,#416,.T.);
#257=EDGE_CURVE('',#348,#349,#417,.F.);
#258=EDGE_CURVE('',#349,#350,#418,.T.);
#259=EDGE_CURVE('',#351,#350,#419,.T.);
#260=EDGE_CURVE('',#351,#346,#420,.T.);
#261=EDGE_CURVE('',#347,#338,#421,.T.);
#262=EDGE_CURVE('',#347,#321,#422,.T.);
#263=EDGE_CURVE('',#349,#318,#423,.T.);
#264=EDGE_CURVE('',#350,#319,#424,.T.);
#265=EDGE_CURVE('',#320,#348,#425,.T.);
#266=EDGE_CURVE('',#352,#353,#426,.T.);
#267=EDGE_CURVE('',#353,#354,#427,.F.);
#268=EDGE_CURVE('',#354,#355,#428,.T.);
#269=EDGE_CURVE('',#356,#355,#429,.T.);
#270=EDGE_CURVE('',#356,#344,#430,.T.);
#271=EDGE_CURVE('',#352,#340,#431,.T.);
#272=EDGE_CURVE('',#357,#339,#432,.T.);
#273=EDGE_CURVE('',#352,#357,#433,.T.);
#274=EDGE_CURVE('',#358,#359,#434,.T.);
#275=EDGE_CURVE('',#358,#360,#435,.F.);
#276=EDGE_CURVE('',#357,#360,#436,.T.);
#277=EDGE_CURVE('',#361,#345,#437,.T.);
#278=EDGE_CURVE('',#361,#359,#438,.T.);
#279=EDGE_CURVE('',#354,#358,#439,.T.);
#280=EDGE_CURVE('',#355,#359,#440,.T.);
#281=EDGE_CURVE('',#360,#353,#441,.T.);
#282=EDGE_CURVE('',#362,#336,#442,.T.);
#283=EDGE_CURVE('',#363,#362,#443,.T.);
#284=EDGE_CURVE('',#363,#333,#444,.T.);
#285=EDGE_CURVE('',#364,#365,#445,.T.);
#286=EDGE_CURVE('',#364,#366,#446,.F.);
#287=EDGE_CURVE('',#362,#366,#447,.T.);
#288=EDGE_CURVE('',#335,#367,#448,.T.);
#289=EDGE_CURVE('',#367,#365,#449,.T.);
#290=EDGE_CURVE('',#368,#369,#450,.T.);
#291=EDGE_CURVE('',#368,#364,#451,.T.);
#292=EDGE_CURVE('',#369,#365,#452,.T.);
#293=EDGE_CURVE('',#363,#370,#453,.T.);
#294=EDGE_CURVE('',#370,#368,#454,.F.);
#295=EDGE_CURVE('',#371,#369,#455,.T.);
#296=EDGE_CURVE('',#334,#371,#456,.T.);
#297=EDGE_CURVE('',#366,#370,#457,.T.);
#298=EDGE_CURVE('',#372,#373,#458,.T.);
#299=EDGE_CURVE('',#373,#374,#459,.F.);
#300=EDGE_CURVE('',#374,#375,#460,.T.);
#301=EDGE_CURVE('',#376,#375,#461,.T.);
#302=EDGE_CURVE('',#330,#376,#462,.T.);
#303=EDGE_CURVE('',#372,#329,#463,.T.);
#304=EDGE_CURVE('',#377,#332,#464,.T.);
#305=EDGE_CURVE('',#372,#377,#465,.T.);
#306=EDGE_CURVE('',#378,#379,#466,.T.);
#307=EDGE_CURVE('',#378,#380,#467,.F.);
#308=EDGE_CURVE('',#377,#380,#468,.T.);
#309=EDGE_CURVE('',#331,#381,#469,.T.);
#310=EDGE_CURVE('',#381,#379,#470,.T.);
#311=EDGE_CURVE('',#374,#378,#471,.T.);
#312=EDGE_CURVE('',#375,#379,#472,.T.);
#313=EDGE_CURVE('',#380,#373,#473,.T.);
#314=EDGE_CURVE('',#381,#376,#474,.T.);
#315=EDGE_CURVE('',#367,#371,#475,.T.);
#316=EDGE_CURVE('',#356,#361,#476,.T.);
#317=EDGE_CURVE('',#351,#324,#477,.T.);
#318=VERTEX_POINT('',#964);
#319=VERTEX_POINT('',#965);
#320=VERTEX_POINT('',#967);
#321=VERTEX_POINT('',#969);
#322=VERTEX_POINT('',#971);
#323=VERTEX_POINT('',#973);
#324=VERTEX_POINT('',#975);
#325=VERTEX_POINT('',#979);
#326=VERTEX_POINT('',#980);
#327=VERTEX_POINT('',#982);
#328=VERTEX_POINT('',#984);
#329=VERTEX_POINT('',#986);
#330=VERTEX_POINT('',#988);
#331=VERTEX_POINT('',#990);
#332=VERTEX_POINT('',#992);
#333=VERTEX_POINT('',#994);
#334=VERTEX_POINT('',#996);
#335=VERTEX_POINT('',#998);
#336=VERTEX_POINT('',#1000);
#337=VERTEX_POINT('',#1004);
#338=VERTEX_POINT('',#1007);
#339=VERTEX_POINT('',#1009);
#340=VERTEX_POINT('',#1011);
#341=VERTEX_POINT('',#1013);
#342=VERTEX_POINT('',#1019);
#343=VERTEX_POINT('',#1023);
#344=VERTEX_POINT('',#1028);
#345=VERTEX_POINT('',#1030);
#346=VERTEX_POINT('',#1033);
#347=VERTEX_POINT('',#1038);
#348=VERTEX_POINT('',#1039);
#349=VERTEX_POINT('',#1041);
#350=VERTEX_POINT('',#1043);
#351=VERTEX_POINT('',#1045);
#352=VERTEX_POINT('',#1057);
#353=VERTEX_POINT('',#1058);
#354=VERTEX_POINT('',#1060);
#355=VERTEX_POINT('',#1062);
#356=VERTEX_POINT('',#1064);
#357=VERTEX_POINT('',#1069);
#358=VERTEX_POINT('',#1073);
#359=VERTEX_POINT('',#1074);
#360=VERTEX_POINT('',#1076);
#361=VERTEX_POINT('',#1079);
#362=VERTEX_POINT('',#1088);
#363=VERTEX_POINT('',#1090);
#364=VERTEX_POINT('',#1094);
#365=VERTEX_POINT('',#1095);
#366=VERTEX_POINT('',#1097);
#367=VERTEX_POINT('',#1100);
#368=VERTEX_POINT('',#1104);
#369=VERTEX_POINT('',#1105);
#370=VERTEX_POINT('',#1110);
#371=VERTEX_POINT('',#1113);
#372=VERTEX_POINT('',#1119);
#373=VERTEX_POINT('',#1120);
#374=VERTEX_POINT('',#1122);
#375=VERTEX_POINT('',#1124);
#376=VERTEX_POINT('',#1126);
#377=VERTEX_POINT('',#1131);
#378=VERTEX_POINT('',#1135);
#379=VERTEX_POINT('',#1136);
#380=VERTEX_POINT('',#1138);
#381=VERTEX_POINT('',#1141);
#382=LINE('',#963,#478);
#383=LINE('',#966,#479);
#384=LINE('',#968,#480);
#385=LINE('',#970,#481);
#386=LINE('',#972,#482);
#387=LINE('',#974,#483);
#388=LINE('',#976,#484);
#389=LINE('',#978,#485);
#390=LINE('',#981,#486);
#391=LINE('',#983,#487);
#392=LINE('',#985,#488);
#393=LINE('',#987,#489);
#394=LINE('',#989,#490);
#395=LINE('',#991,#491);
#396=LINE('',#993,#492);
#397=LINE('',#995,#493);
#398=LINE('',#997,#494);
#399=LINE('',#999,#495);
#400=LINE('',#1001,#496);
#401=LINE('',#1005,#497);
#402=LINE('',#1006,#498);
#403=LINE('',#1008,#499);
#404=LINE('',#1010,#500);
#405=LINE('',#1012,#501);
#406=LINE('',#1015,#502);
#407=LINE('',#1016,#503);
#408=LINE('',#1020,#504);
#409=LINE('',#1024,#505);
#410=LINE('',#1026,#506);
#411=LINE('',#1027,#507);
#412=LINE('',#1029,#508);
#413=LINE('',#1031,#509);
#414=LINE('',#1032,#510);
#415=LINE('',#1034,#511);
#416=LINE('',#1037,#512);
#417=LINE('',#1040,#513);
#418=LINE('',#1042,#514);
#419=LINE('',#1044,#515);
#420=LINE('',#1046,#516);
#421=LINE('',#1047,#517);
#422=LINE('',#1049,#518);
#423=LINE('',#1051,#519);
#424=LINE('',#1052,#520);
#425=LINE('',#1054,#521);
#426=LINE('',#1056,#522);
#427=LINE('',#1059,#523);
#428=LINE('',#1061,#524);
#429=LINE('',#1063,#525);
#430=LINE('',#1065,#526);
#431=LINE('',#1066,#527);
#432=LINE('',#1068,#528);
#433=LINE('',#1070,#529);
#434=LINE('',#1072,#530);
#435=LINE('',#1075,#531);
#436=LINE('',#1077,#532);
#437=LINE('',#1078,#533);
#438=LINE('',#1080,#534);
#439=LINE('',#1082,#535);
#440=LINE('',#1083,#536);
#441=LINE('',#1085,#537);
#442=LINE('',#1087,#538);
#443=LINE('',#1089,#539);
#444=LINE('',#1091,#540);
#445=LINE('',#1093,#541);
#446=LINE('',#1096,#542);
#447=LINE('',#1098,#543);
#448=LINE('',#1099,#544);
#449=LINE('',#1101,#545);
#450=LINE('',#1103,#546);
#451=LINE('',#1106,#547);
#452=LINE('',#1107,#548);
#453=LINE('',#1109,#549);
#454=LINE('',#1111,#550);
#455=LINE('',#1112,#551);
#456=LINE('',#1114,#552);
#457=LINE('',#1116,#553);
#458=LINE('',#1118,#554);
#459=LINE('',#1121,#555);
#460=LINE('',#1123,#556);
#461=LINE('',#1125,#557);
#462=LINE('',#1127,#558);
#463=LINE('',#1128,#559);
#464=LINE('',#1130,#560);
#465=LINE('',#1132,#561);
#466=LINE('',#1134,#562);
#467=LINE('',#1137,#563);
#468=LINE('',#1139,#564);
#469=LINE('',#1140,#565);
#470=LINE('',#1142,#566);
#471=LINE('',#1144,#567);
#472=LINE('',#1145,#568);
#473=LINE('',#1147,#569);
#474=LINE('',#1149,#570);
#475=LINE('',#1152,#571);
#476=LINE('',#1155,#572);
#477=LINE('',#1158,#573);
#478=VECTOR('',#783,1.);
#479=VECTOR('',#784,1.);
#480=VECTOR('',#785,1.);
#481=VECTOR('',#786,1.);
#482=VECTOR('',#787,1.);
#483=VECTOR('',#788,1.);
#484=VECTOR('',#789,1.);
#485=VECTOR('',#792,1.);
#486=VECTOR('',#793,1.);
#487=VECTOR('',#794,1.);
#488=VECTOR('',#795,1.);
#489=VECTOR('',#796,1.);
#490=VECTOR('',#797,1.);
#491=VECTOR('',#798,1.);
#492=VECTOR('',#799,1.);
#493=VECTOR('',#800,1.);
#494=VECTOR('',#801,1.);
#495=VECTOR('',#802,1.);
#496=VECTOR('',#803,1.);
#497=VECTOR('',#808,1.);
#498=VECTOR('',#809,1.);
#499=VECTOR('',#810,1.);
#500=VECTOR('',#811,1.);
#501=VECTOR('',#812,1.);
#502=VECTOR('',#815,1.);
#503=VECTOR('',#816,1.);
#504=VECTOR('',#821,1.);
#505=VECTOR('',#826,1.);
#506=VECTOR('',#829,1.);
#507=VECTOR('',#830,1.);
#508=VECTOR('',#831,1.);
#509=VECTOR('',#832,1.);
#510=VECTOR('',#833,1.);
#511=VECTOR('',#834,1.);
#512=VECTOR('',#839,1.);
#513=VECTOR('',#840,1.);
#514=VECTOR('',#841,1.);
#515=VECTOR('',#842,1.);
#516=VECTOR('',#843,1.);
#517=VECTOR('',#844,1.);
#518=VECTOR('',#847,1.);
#519=VECTOR('',#850,1.);
#520=VECTOR('',#851,1.);
#521=VECTOR('',#854,1.);
#522=VECTOR('',#857,1.);
#523=VECTOR('',#858,1.);
#524=VECTOR('',#859,1.);
#525=VECTOR('',#860,1.);
#526=VECTOR('',#861,1.);
#527=VECTOR('',#862,1.);
#528=VECTOR('',#865,1.);
#529=VECTOR('',#866,1.);
#530=VECTOR('',#869,1.);
#531=VECTOR('',#870,1.);
#532=VECTOR('',#871,1.);
#533=VECTOR('',#872,1.);
#534=VECTOR('',#873,1.);
#535=VECTOR('',#876,1.);
#536=VECTOR('',#877,1.);
#537=VECTOR('',#880,1.);
#538=VECTOR('',#883,1.);
#539=VECTOR('',#884,1.);
#540=VECTOR('',#885,1.);
#541=VECTOR('',#888,1.);
#542=VECTOR('',#889,1.);
#543=VECTOR('',#890,1.);
#544=VECTOR('',#891,1.);
#545=VECTOR('',#892,1.);
#546=VECTOR('',#895,1.);
#547=VECTOR('',#896,1.);
#548=VECTOR('',#897,1.);
#549=VECTOR('',#900,1.);
#550=VECTOR('',#901,1.);
#551=VECTOR('',#902,1.);
#552=VECTOR('',#903,1.);
#553=VECTOR('',#906,1.);
#554=VECTOR('',#909,1.);
#555=VECTOR('',#910,1.);
#556=VECTOR('',#911,1.);
#557=VECTOR('',#912,1.);
#558=VECTOR('',#913,1.);
#559=VECTOR('',#914,1.);
#560=VECTOR('',#917,1.);
#561=VECTOR('',#918,1.);
#562=VECTOR('',#921,1.);
#563=VECTOR('',#922,1.);
#564=VECTOR('',#923,1.);
#565=VECTOR('',#924,1.);
#566=VECTOR('',#925,1.);
#567=VECTOR('',#928,1.);
#568=VECTOR('',#929,1.);
#569=VECTOR('',#932,1.);
#570=VECTOR('',#935,1.);
#571=VECTOR('',#940,1.);
#572=VECTOR('',#945,1.);
#573=VECTOR('',#950,1.);
#574=EDGE_LOOP('',(#18,#19,#20,#21,#22,#23,#24));
#575=EDGE_LOOP('',(#25,#26,#27,#28,#29,#30,#31,#32,#33,#34,#35,#36));
#576=EDGE_LOOP('',(#37,#38,#39,#40,#41,#42,#43,#44,#45,#46,#47,#48));
#577=EDGE_LOOP('',(#49,#50,#51,#52));
#578=EDGE_LOOP('',(#53,#54,#55,#56));
#579=EDGE_LOOP('',(#57,#58,#59,#60,#61,#62,#63,#64,#65,#66,#67,#68));
#580=EDGE_LOOP('',(#69,#70,#71,#72));
#581=EDGE_LOOP('',(#73,#74,#75,#76,#77,#78,#79));
#582=EDGE_LOOP('',(#80,#81,#82,#83));
#583=EDGE_LOOP('',(#84,#85,#86,#87));
#584=EDGE_LOOP('',(#88,#89,#90,#91));
#585=EDGE_LOOP('',(#92,#93,#94,#95,#96,#97,#98));
#586=EDGE_LOOP('',(#99,#100,#101,#102));
#587=EDGE_LOOP('',(#103,#104,#105,#106,#107,#108,#109));
#588=EDGE_LOOP('',(#110,#111,#112,#113));
#589=EDGE_LOOP('',(#114,#115,#116,#117));
#590=EDGE_LOOP('',(#118,#119,#120,#121));
#591=EDGE_LOOP('',(#122,#123,#124,#125,#126,#127,#128));
#592=EDGE_LOOP('',(#129,#130,#131,#132));
#593=EDGE_LOOP('',(#133,#134,#135,#136,#137,#138,#139));
#594=EDGE_LOOP('',(#140,#141,#142,#143));
#595=EDGE_LOOP('',(#144,#145,#146,#147,#148,#149,#150));
#596=EDGE_LOOP('',(#151,#152,#153,#154));
#597=EDGE_LOOP('',(#155,#156,#157,#158,#159,#160,#161));
#598=EDGE_LOOP('',(#162,#163,#164,#165));
#599=EDGE_LOOP('',(#166,#167,#168,#169));
#600=EDGE_LOOP('',(#170,#171,#172,#173));
#601=EDGE_LOOP('',(#174,#175,#176,#177));
#602=EDGE_LOOP('',(#178,#179,#180,#181));
#603=EDGE_LOOP('',(#182,#183,#184,#185));
#604=EDGE_LOOP('',(#186,#187,#188,#189));
#605=EDGE_LOOP('',(#190,#191,#192,#193));
#606=EDGE_LOOP('',(#194,#195,#196,#197));
#607=EDGE_LOOP('',(#198,#199,#200,#201));
#608=EDGE_LOOP('',(#202,#203,#204,#205));
#609=EDGE_LOOP('',(#206,#207,#208,#209));
#610=EDGE_LOOP('',(#210,#211,#212,#213));
#611=EDGE_LOOP('',(#214,#215,#216,#217));
#612=FACE_BOUND('',#574,.T.);
#613=FACE_BOUND('',#575,.T.);
#614=FACE_BOUND('',#576,.T.);
#615=FACE_BOUND('',#577,.T.);
#616=FACE_BOUND('',#578,.T.);
#617=FACE_BOUND('',#579,.T.);
#618=FACE_BOUND('',#580,.T.);
#619=FACE_BOUND('',#581,.T.);
#620=FACE_BOUND('',#582,.T.);
#621=FACE_BOUND('',#583,.T.);
#622=FACE_BOUND('',#584,.T.);
#623=FACE_BOUND('',#585,.T.);
#624=FACE_BOUND('',#586,.T.);
#625=FACE_BOUND('',#587,.T.);
#626=FACE_BOUND('',#588,.T.);
#627=FACE_BOUND('',#589,.T.);
#628=FACE_BOUND('',#590,.T.);
#629=FACE_BOUND('',#591,.T.);
#630=FACE_BOUND('',#592,.T.);
#631=FACE_BOUND('',#593,.T.);
#632=FACE_BOUND('',#594,.T.);
#633=FACE_BOUND('',#595,.T.);
#634=FACE_BOUND('',#596,.T.);
#635=FACE_BOUND('',#597,.T.);
#636=FACE_BOUND('',#598,.T.);
#637=FACE_BOUND('',#599,.T.);
#638=FACE_BOUND('',#600,.T.);
#639=FACE_BOUND('',#601,.T.);
#640=FACE_BOUND('',#602,.T.);
#641=FACE_BOUND('',#603,.T.);
#642=FACE_BOUND('',#604,.T.);
#643=FACE_BOUND('',#605,.T.);
#644=FACE_BOUND('',#606,.T.);
#645=FACE_BOUND('',#607,.T.);
#646=FACE_BOUND('',#608,.T.);
#647=FACE_BOUND('',#609,.T.);
#648=FACE_BOUND('',#610,.T.);
#649=FACE_BOUND('',#611,.T.);
#650=PLANE('',#737);
#651=PLANE('',#738);
#652=PLANE('',#742);
#653=PLANE('',#744);
#654=PLANE('',#746);
#655=PLANE('',#748);
#656=PLANE('',#749);
#657=PLANE('',#750);
#658=PLANE('',#751);
#659=PLANE('',#752);
#660=PLANE('',#753);
#661=PLANE('',#754);
#662=PLANE('',#755);
#663=PLANE('',#756);
#664=PLANE('',#757);
#665=PLANE('',#758);
#666=PLANE('',#759);
#667=PLANE('',#760);
#668=PLANE('',#761);
#669=PLANE('',#762);
#670=PLANE('',#763);
#671=PLANE('',#764);
#672=PLANE('',#765);
#673=PLANE('',#766);
#674=PLANE('',#767);
#675=PLANE('',#768);
#676=PLANE('',#769);
#677=PLANE('',#770);
#678=PLANE('',#771);
#679=PLANE('',#772);
#680=PLANE('',#773);
#681=PLANE('',#774);
#682=PLANE('',#775);
#683=PLANE('',#776);
#684=PLANE('',#777);
#685=PLANE('',#778);
#686=ADVANCED_FACE('',(#612),#650,.F.);
#687=ADVANCED_FACE('',(#613),#651,.T.);
#688=ADVANCED_FACE('',(#614),#16,.T.);
#689=ADVANCED_FACE('',(#615),#652,.F.);
#690=ADVANCED_FACE('',(#616),#653,.T.);
#691=ADVANCED_FACE('',(#617),#654,.T.);
#692=ADVANCED_FACE('',(#618),#17,.F.);
#693=ADVANCED_FACE('',(#619),#655,.T.);
#694=ADVANCED_FACE('',(#620),#656,.F.);
#695=ADVANCED_FACE('',(#621),#657,.T.);
#696=ADVANCED_FACE('',(#622),#658,.T.);
#697=ADVANCED_FACE('',(#623),#659,.T.);
#698=ADVANCED_FACE('',(#624),#660,.F.);
#699=ADVANCED_FACE('',(#625),#661,.F.);
#700=ADVANCED_FACE('',(#626),#662,.T.);
#701=ADVANCED_FACE('',(#627),#663,.T.);
#702=ADVANCED_FACE('',(#628),#664,.F.);
#703=ADVANCED_FACE('',(#629),#665,.F.);
#704=ADVANCED_FACE('',(#630),#666,.T.);
#705=ADVANCED_FACE('',(#631),#667,.T.);
#706=ADVANCED_FACE('',(#632),#668,.T.);
#707=ADVANCED_FACE('',(#633),#669,.T.);
#708=ADVANCED_FACE('',(#634),#670,.F.);
#709=ADVANCED_FACE('',(#635),#671,.F.);
#710=ADVANCED_FACE('',(#636),#672,.T.);
#711=ADVANCED_FACE('',(#637),#673,.T.);
#712=ADVANCED_FACE('',(#638),#674,.F.);
#713=ADVANCED_FACE('',(#639),#675,.F.);
#714=ADVANCED_FACE('',(#640),#676,.F.);
#715=ADVANCED_FACE('',(#641),#677,.F.);
#716=ADVANCED_FACE('',(#642),#678,.F.);
#717=ADVANCED_FACE('',(#643),#679,.T.);
#718=ADVANCED_FACE('',(#644),#680,.F.);
#719=ADVANCED_FACE('',(#645),#681,.T.);
#720=ADVANCED_FACE('',(#646),#682,.F.);
#721=ADVANCED_FACE('',(#647),#683,.F.);
#722=ADVANCED_FACE('',(#648),#684,.F.);
#723=ADVANCED_FACE('',(#649),#685,.F.);
#724=CLOSED_SHELL('',(#686,#687,#688,#689,#690,#691,#692,#693,#694,#695,
#696,#697,#698,#699,#700,#701,#702,#703,#704,#705,#706,#707,#708,#709,#710,
#711,#712,#713,#714,#715,#716,#717,#718,#719,#720,#721,#722,#723));
#725=STYLED_ITEM('',(#726),#733);
#726=PRESENTATION_STYLE_ASSIGNMENT((#727));
#727=SURFACE_STYLE_USAGE(.BOTH.,#728);
#728=SURFACE_SIDE_STYLE('',(#729));
#729=SURFACE_STYLE_FILL_AREA(#730);
#730=FILL_AREA_STYLE('',(#731));
#731=FILL_AREA_STYLE_COLOUR('',#732);
#732=COLOUR_RGB('',0.615686274509804,0.811764705882353,0.929411764705882);
#733=MANIFOLD_SOLID_BREP('Part 1',#724);
#734=SHAPE_DEFINITION_REPRESENTATION(#1170,#735);
#735=SHAPE_REPRESENTATION('Part 1',(#736),#1165);
#736=AXIS2_PLACEMENT_3D('',#961,#779,#780);
#737=AXIS2_PLACEMENT_3D('',#962,#781,#782);
#738=AXIS2_PLACEMENT_3D('',#977,#790,#791);
#739=AXIS2_PLACEMENT_3D('',#1002,#804,#805);
#740=AXIS2_PLACEMENT_3D('',#1003,#806,#807);
#741=AXIS2_PLACEMENT_3D('',#1014,#813,#814);
#742=AXIS2_PLACEMENT_3D('',#1017,#817,#818);
#743=AXIS2_PLACEMENT_3D('',#1018,#819,#820);
#744=AXIS2_PLACEMENT_3D('',#1021,#822,#823);
#745=AXIS2_PLACEMENT_3D('',#1022,#824,#825);
#746=AXIS2_PLACEMENT_3D('',#1025,#827,#828);
#747=AXIS2_PLACEMENT_3D('',#1035,#835,#836);
#748=AXIS2_PLACEMENT_3D('',#1036,#837,#838);
#749=AXIS2_PLACEMENT_3D('',#1048,#845,#846);
#750=AXIS2_PLACEMENT_3D('',#1050,#848,#849);
#751=AXIS2_PLACEMENT_3D('',#1053,#852,#853);
#752=AXIS2_PLACEMENT_3D('',#1055,#855,#856);
#753=AXIS2_PLACEMENT_3D('',#1067,#863,#864);
#754=AXIS2_PLACEMENT_3D('',#1071,#867,#868);
#755=AXIS2_PLACEMENT_3D('',#1081,#874,#875);
#756=AXIS2_PLACEMENT_3D('',#1084,#878,#879);
#757=AXIS2_PLACEMENT_3D('',#1086,#881,#882);
#758=AXIS2_PLACEMENT_3D('',#1092,#886,#887);
#759=AXIS2_PLACEMENT_3D('',#1102,#893,#894);
#760=AXIS2_PLACEMENT_3D('',#1108,#898,#899);
#761=AXIS2_PLACEMENT_3D('',#1115,#904,#905);
#762=AXIS2_PLACEMENT_3D('',#1117,#907,#908);
#763=AXIS2_PLACEMENT_3D('',#1129,#915,#916);
#764=AXIS2_PLACEMENT_3D('',#1133,#919,#920);
#765=AXIS2_PLACEMENT_3D('',#1143,#926,#927);
#766=AXIS2_PLACEMENT_3D('',#1146,#930,#931);
#767=AXIS2_PLACEMENT_3D('',#1148,#933,#934);
#768=AXIS2_PLACEMENT_3D('',#1150,#936,#937);
#769=AXIS2_PLACEMENT_3D('',#1151,#938,#939);
#770=AXIS2_PLACEMENT_3D('',#1153,#941,#942);
#771=AXIS2_PLACEMENT_3D('',#1154,#943,#944);
#772=AXIS2_PLACEMENT_3D('',#1156,#946,#947);
#773=AXIS2_PLACEMENT_3D('',#1157,#948,#949);
#774=AXIS2_PLACEMENT_3D('',#1159,#951,#952);
#775=AXIS2_PLACEMENT_3D('',#1160,#953,#954);
#776=AXIS2_PLACEMENT_3D('',#1161,#955,#956);
#777=AXIS2_PLACEMENT_3D('',#1162,#957,#958);
#778=AXIS2_PLACEMENT_3D('',#1163,#959,#960);
#779=DIRECTION('',(0.,0.,1.));
#780=DIRECTION('',(1.,0.,0.));
#781=DIRECTION('',(-1.,0.,0.));
#782=DIRECTION('',(0.,0.,1.));
#783=DIRECTION('',(0.,0.,-1.));
#784=DIRECTION('',(0.,0.707106781186548,-0.707106781186548));
#785=DIRECTION('',(0.,1.,0.));
#786=DIRECTION('',(0.,0.,-1.));
#787=DIRECTION('',(0.,1.,0.));
#788=DIRECTION('',(0.,0.,1.));
#789=DIRECTION('',(0.,-1.,0.));
#790=DIRECTION('',(0.,0.,1.));
#791=DIRECTION('',(1.,0.,0.));
#792=DIRECTION('',(0.,1.,0.));
#793=DIRECTION('',(-1.,0.,0.));
#794=DIRECTION('',(0.,1.,0.));
#795=DIRECTION('',(-1.,-1.23908819712629E-16,0.));
#796=DIRECTION('',(0.,-1.,0.));
#797=DIRECTION('',(1.,0.,0.));
#798=DIRECTION('',(0.,-1.,0.));
#799=DIRECTION('',(-1.,-1.23908819712629E-16,0.));
#800=DIRECTION('',(0.,-1.,0.));
#801=DIRECTION('',(1.,0.,0.));
#802=DIRECTION('',(0.,-1.,0.));
#803=DIRECTION('',(-1.,-1.23908819712629E-16,0.));
#804=DIRECTION('',(-1.,-1.39397422176708E-16,0.));
#805=DIRECTION('',(1.39397422176708E-16,-1.,0.));
#806=DIRECTION('',(-1.,0.,0.));
#807=DIRECTION('',(0.,0.,1.));
#808=DIRECTION('',(-1.,-1.23908819712629E-16,0.));
#809=DIRECTION('',(1.,0.,0.));
#810=DIRECTION('',(-1.,-1.23908819712629E-16,0.));
#811=DIRECTION('',(1.,0.,0.));
#812=DIRECTION('',(-1.,-1.23908819712629E-16,0.));
#813=DIRECTION('',(-1.,0.,0.));
#814=DIRECTION('',(0.,0.,1.));
#815=DIRECTION('',(-1.,-1.23908819712629E-16,0.));
#816=DIRECTION('',(-1.,-1.23908819712629E-16,0.));
#817=DIRECTION('',(-1.,0.,0.));
#818=DIRECTION('',(0.,0.,1.));
#819=DIRECTION('',(-1.,0.,0.));
#820=DIRECTION('',(0.,0.,1.));
#821=DIRECTION('',(0.,1.,0.));
#822=DIRECTION('',(-1.,0.,0.));
#823=DIRECTION('',(0.,0.,1.));
#824=DIRECTION('',(-1.,0.,0.));
#825=DIRECTION('',(0.,0.,1.));
#826=DIRECTION('',(0.,1.,0.));
#827=DIRECTION('',(0.,0.,1.));
#828=DIRECTION('',(1.,0.,0.));
#829=DIRECTION('',(-1.,0.,0.));
#830=DIRECTION('',(0.,1.,0.));
#831=DIRECTION('',(1.,0.,0.));
#832=DIRECTION('',(0.,1.,0.));
#833=DIRECTION('',(0.,1.,0.));
#834=DIRECTION('',(1.,0.,0.));
#835=DIRECTION('',(-1.,0.,0.));
#836=DIRECTION('',(0.,0.,1.));
#837=DIRECTION('',(-1.,0.,0.));
#838=DIRECTION('',(0.,0.,1.));
#839=DIRECTION('',(0.,1.,0.));
#840=DIRECTION('',(0.,-0.707106781186548,0.707106781186548));
#841=DIRECTION('',(0.,0.,-1.));
#842=DIRECTION('',(0.,1.,0.));
#843=DIRECTION('',(0.,0.,-1.));
#844=DIRECTION('',(0.,0.,-1.));
#845=DIRECTION('',(0.,1.,0.));
#846=DIRECTION('',(0.,0.,1.));
#847=DIRECTION('',(1.,0.,0.));
#848=DIRECTION('',(-5.42101086242752E-17,1.,0.));
#849=DIRECTION('',(-1.,-5.42101086242752E-17,0.));
#850=DIRECTION('',(1.,5.42101086242752E-17,0.));
#851=DIRECTION('',(1.,5.42101086242752E-17,0.));
#852=DIRECTION('',(0.,0.,1.));
#853=DIRECTION('',(1.,0.,0.));
#854=DIRECTION('',(-1.,-5.42101086242752E-17,0.));
#855=DIRECTION('',(-1.,0.,0.));
#856=DIRECTION('',(0.,0.,1.));
#857=DIRECTION('',(0.,1.,0.));
#858=DIRECTION('',(0.,-0.707106781186548,0.707106781186548));
#859=DIRECTION('',(0.,0.,-1.));
#860=DIRECTION('',(0.,1.,0.));
#861=DIRECTION('',(0.,0.,-1.));
#862=DIRECTION('',(0.,0.,-1.));
#863=DIRECTION('',(0.,1.,0.));
#864=DIRECTION('',(0.,0.,1.));
#865=DIRECTION('',(0.,0.,-1.));
#866=DIRECTION('',(1.,0.,0.));
#867=DIRECTION('',(-1.,0.,0.));
#868=DIRECTION('',(0.,0.,1.));
#869=DIRECTION('',(0.,0.,-1.));
#870=DIRECTION('',(0.,0.707106781186548,-0.707106781186548));
#871=DIRECTION('',(0.,1.,0.));
#872=DIRECTION('',(0.,0.,-1.));
#873=DIRECTION('',(0.,1.,0.));
#874=DIRECTION('',(-5.42101086242752E-17,1.,0.));
#875=DIRECTION('',(-1.,-5.42101086242752E-17,0.));
#876=DIRECTION('',(1.,5.42101086242752E-17,0.));
#877=DIRECTION('',(1.,5.42101086242752E-17,0.));
#878=DIRECTION('',(0.,0.,1.));
#879=DIRECTION('',(1.,0.,0.));
#880=DIRECTION('',(-1.,-5.42101086242752E-17,0.));
#881=DIRECTION('',(1.23908819712629E-16,-1.,0.));
#882=DIRECTION('',(1.,1.23908819712629E-16,0.));
#883=DIRECTION('',(0.,0.,-1.));
#884=DIRECTION('',(-1.,-1.23908819712629E-16,0.));
#885=DIRECTION('',(0.,0.,-1.));
#886=DIRECTION('',(1.,0.,0.));
#887=DIRECTION('',(0.,0.,-1.));
#888=DIRECTION('',(0.,0.,-1.));
#889=DIRECTION('',(0.,-0.707106781186548,-0.707106781186548));
#890=DIRECTION('',(0.,-1.,0.));
#891=DIRECTION('',(0.,0.,1.));
#892=DIRECTION('',(0.,-1.,0.));
#893=DIRECTION('',(0.,-1.,0.));
#894=DIRECTION('',(0.,0.,-1.));
#895=DIRECTION('',(0.,0.,-1.));
#896=DIRECTION('',(-1.,0.,0.));
#897=DIRECTION('',(-1.,0.,0.));
#898=DIRECTION('',(1.,0.,0.));
#899=DIRECTION('',(0.,0.,-1.));
#900=DIRECTION('',(0.,-1.,0.));
#901=DIRECTION('',(0.,0.707106781186548,0.707106781186548));
#902=DIRECTION('',(0.,-1.,0.));
#903=DIRECTION('',(0.,0.,1.));
#904=DIRECTION('',(0.,0.,1.));
#905=DIRECTION('',(1.,0.,0.));
#906=DIRECTION('',(1.,0.,0.));
#907=DIRECTION('',(1.,0.,0.));
#908=DIRECTION('',(0.,0.,-1.));
#909=DIRECTION('',(0.,-1.,0.));
#910=DIRECTION('',(0.,0.707106781186548,0.707106781186548));
#911=DIRECTION('',(0.,0.,-1.));
#912=DIRECTION('',(0.,-1.,0.));
#913=DIRECTION('',(0.,0.,1.));
#914=DIRECTION('',(0.,0.,-1.));
#915=DIRECTION('',(1.23908819712629E-16,-1.,0.));
#916=DIRECTION('',(1.,1.23908819712629E-16,0.));
#917=DIRECTION('',(0.,0.,-1.));
#918=DIRECTION('',(-1.,-1.23908819712629E-16,0.));
#919=DIRECTION('',(1.,0.,0.));
#920=DIRECTION('',(0.,0.,-1.));
#921=DIRECTION('',(0.,0.,-1.));
#922=DIRECTION('',(0.,-0.707106781186548,-0.707106781186548));
#923=DIRECTION('',(0.,-1.,0.));
#924=DIRECTION('',(0.,0.,1.));
#925=DIRECTION('',(0.,-1.,0.));
#926=DIRECTION('',(0.,-1.,0.));
#927=DIRECTION('',(0.,0.,-1.));
#928=DIRECTION('',(-1.,0.,0.));
#929=DIRECTION('',(-1.,0.,0.));
#930=DIRECTION('',(0.,0.,1.));
#931=DIRECTION('',(1.,0.,0.));
#932=DIRECTION('',(1.,0.,0.));
#933=DIRECTION('',(0.,0.,1.));
#934=DIRECTION('',(1.,0.,0.));
#935=DIRECTION('',(1.,0.,0.));
#936=DIRECTION('',(0.,1.,0.));
#937=DIRECTION('',(0.,0.,1.));
#938=DIRECTION('',(0.,0.,1.));
#939=DIRECTION('',(1.,0.,0.));
#940=DIRECTION('',(1.,0.,0.));
#941=DIRECTION('',(0.,1.,0.));
#942=DIRECTION('',(0.,0.,1.));
#943=DIRECTION('',(0.,0.,1.));
#944=DIRECTION('',(1.,0.,0.));
#945=DIRECTION('',(1.,0.,0.));
#946=DIRECTION('',(0.,1.,0.));
#947=DIRECTION('',(0.,0.,1.));
#948=DIRECTION('',(0.,0.,1.));
#949=DIRECTION('',(1.,0.,0.));
#950=DIRECTION('',(1.,0.,0.));
#951=DIRECTION('',(0.,1.,0.));
#952=DIRECTION('',(0.,0.,1.));
#953=DIRECTION('',(3.83323354170843E-17,-0.707106781186548,-0.707106781186548));
#954=DIRECTION('',(1.,5.42101086242752E-17,0.));
#955=DIRECTION('',(3.83323354170843E-17,-0.707106781186548,-0.707106781186548));
#956=DIRECTION('',(1.,5.42101086242752E-17,0.));
#957=DIRECTION('',(0.,0.707106781186548,-0.707106781186548));
#958=DIRECTION('',(-1.,0.,0.));
#959=DIRECTION('',(0.,0.707106781186548,-0.707106781186548));
#960=DIRECTION('',(-1.,0.,0.));
#961=CARTESIAN_POINT('',(0.,0.,0.));
#962=CARTESIAN_POINT('',(0.0055,-0.0015,0.005));
#963=CARTESIAN_POINT('',(0.0055,-0.0005,0.005));
#964=CARTESIAN_POINT('',(0.0055,-0.0005,0.0035));
#965=CARTESIAN_POINT('',(0.0055,-0.0005,0.003));
#966=CARTESIAN_POINT('',(0.0055,-0.0005,0.0035));
#967=CARTESIAN_POINT('',(0.0055,-0.002,0.005));
#968=CARTESIAN_POINT('',(0.0055,-0.0015,0.005));
#969=CARTESIAN_POINT('',(0.0055,-0.0025,0.005));
#970=CARTESIAN_POINT('',(0.0055,-0.0025,0.005));
#971=CARTESIAN_POINT('',(0.0055,-0.0025,0.0025));
#972=CARTESIAN_POINT('',(0.0055,-0.0015,0.0025));
#973=CARTESIAN_POINT('',(0.0055,-0.0015,0.0025));
#974=CARTESIAN_POINT('',(0.0055,-0.0015,0.00275));
#975=CARTESIAN_POINT('',(0.0055,-0.0015,0.003));
#976=CARTESIAN_POINT('',(0.0055,0.,0.003));
#977=CARTESIAN_POINT('',(0.,1.7347234759768E-18,0.0025));
#978=CARTESIAN_POINT('',(-0.007,-4.33680868994202E-19,0.0025));
#979=CARTESIAN_POINT('',(-0.007,0.0005,0.0025));
#980=CARTESIAN_POINT('',(-0.007,0.0025,0.0025));
#981=CARTESIAN_POINT('',(0.018,0.0005,0.0025));
#982=CARTESIAN_POINT('',(0.007,0.0005,0.0025));
#983=CARTESIAN_POINT('',(0.007,1.3010426069826E-18,0.0025));
#984=CARTESIAN_POINT('',(0.007,0.0025,0.0025));
#985=CARTESIAN_POINT('',(0.,0.0025,0.0025));
#986=CARTESIAN_POINT('',(0.0055,0.0025,0.0025));
#987=CARTESIAN_POINT('',(0.0055,0.0015,0.0025));
#988=CARTESIAN_POINT('',(0.0055,0.0015,0.0025));
#989=CARTESIAN_POINT('',(-0.0195,0.0015,0.0025));
#990=CARTESIAN_POINT('',(0.0035,0.0015,0.0025));
#991=CARTESIAN_POINT('',(0.0035,0.0015,0.0025));
#992=CARTESIAN_POINT('',(0.0035,0.0025,0.0025));
#993=CARTESIAN_POINT('',(0.,0.0025,0.0025));
#994=CARTESIAN_POINT('',(-0.0035,0.0025,0.0025));
#995=CARTESIAN_POINT('',(-0.0035,0.0015,0.0025));
#996=CARTESIAN_POINT('',(-0.0035,0.0015,0.0025));
#997=CARTESIAN_POINT('',(-0.0195,0.0015,0.0025));
#998=CARTESIAN_POINT('',(-0.0055,0.0015,0.0025));
#999=CARTESIAN_POINT('',(-0.0055,0.0015,0.0025));
#1000=CARTESIAN_POINT('',(-0.0055,0.0025,0.0025));
#1001=CARTESIAN_POINT('',(0.,0.0025,0.0025));
#1002=CARTESIAN_POINT('',(0.007,1.7347234759768E-18,0.0025));
#1003=CARTESIAN_POINT('',(0.007,1.7347234759768E-18,0.0025));
#1004=CARTESIAN_POINT('',(0.007,-0.0025,0.0025));
#1005=CARTESIAN_POINT('',(0.,-0.0025,0.0025));
#1006=CARTESIAN_POINT('',(0.0045,-0.0025,0.0025));
#1007=CARTESIAN_POINT('',(0.0035,-0.0025,0.0025));
#1008=CARTESIAN_POINT('',(0.,-0.0025,0.0025));
#1009=CARTESIAN_POINT('',(-0.0035,-0.0025,0.0025));
#1010=CARTESIAN_POINT('',(-0.0045,-0.0025,0.0025));
#1011=CARTESIAN_POINT('',(-0.0055,-0.0025,0.0025));
#1012=CARTESIAN_POINT('',(0.,-0.0025,0.0025));
#1013=CARTESIAN_POINT('',(-0.007,-0.0025,0.0025));
#1014=CARTESIAN_POINT('',(-0.007,-2.16840434497101E-19,0.0025));
#1015=CARTESIAN_POINT('',(0.,0.0025,0.0025));
#1016=CARTESIAN_POINT('',(0.,0.0025,0.0025));
#1017=CARTESIAN_POINT('',(0.007,1.3010426069826E-18,0.0025));
#1018=CARTESIAN_POINT('',(0.007,-4.33680868994202E-19,0.0025));
#1019=CARTESIAN_POINT('',(0.007,-0.0005,0.0025));
#1020=CARTESIAN_POINT('',(0.007,1.3010426069826E-18,0.0025));
#1021=CARTESIAN_POINT('',(-0.007,-4.33680868994202E-19,0.0025));
#1022=CARTESIAN_POINT('',(-0.007,-4.33680868994202E-19,0.0025));
#1023=CARTESIAN_POINT('',(-0.007,-0.0005,0.0025));
#1024=CARTESIAN_POINT('',(-0.007,-4.33680868994202E-19,0.0025));
#1025=CARTESIAN_POINT('',(0.,1.7347234759768E-18,0.0025));
#1026=CARTESIAN_POINT('',(0.018,-0.0005,0.0025));
#1027=CARTESIAN_POINT('',(-0.0055,-0.0015,0.0025));
#1028=CARTESIAN_POINT('',(-0.0055,-0.0015,0.0025));
#1029=CARTESIAN_POINT('',(-0.0195,-0.0015,0.0025));
#1030=CARTESIAN_POINT('',(-0.0035,-0.0015,0.0025));
#1031=CARTESIAN_POINT('',(-0.0035,-0.0015,0.0025));
#1032=CARTESIAN_POINT('',(0.0035,-0.0015,0.0025));
#1033=CARTESIAN_POINT('',(0.0035,-0.0015,0.0025));
#1034=CARTESIAN_POINT('',(-0.0195,-0.0015,0.0025));
#1035=CARTESIAN_POINT('',(0.018,-4.33680868994202E-19,0.0025));
#1036=CARTESIAN_POINT('',(0.0035,-0.0015,0.005));
#1037=CARTESIAN_POINT('',(0.0035,-0.0015,0.005));
#1038=CARTESIAN_POINT('',(0.0035,-0.0025,0.005));
#1039=CARTESIAN_POINT('',(0.0035,-0.002,0.005));
#1040=CARTESIAN_POINT('',(0.0035,-0.00175,0.00475));
#1041=CARTESIAN_POINT('',(0.0035,-0.0005,0.0035));
#1042=CARTESIAN_POINT('',(0.0035,-0.0005,0.005));
#1043=CARTESIAN_POINT('',(0.0035,-0.0005,0.003));
#1044=CARTESIAN_POINT('',(0.0035,-0.0015,0.003));
#1045=CARTESIAN_POINT('',(0.0035,-0.0015,0.003));
#1046=CARTESIAN_POINT('',(0.0035,-0.0015,0.005));
#1047=CARTESIAN_POINT('',(0.0035,-0.0025,0.005));
#1048=CARTESIAN_POINT('',(0.0045,-0.0025,0.005));
#1049=CARTESIAN_POINT('',(0.0045,-0.0025,0.005));
#1050=CARTESIAN_POINT('',(0.0045,-0.0005,0.005));
#1051=CARTESIAN_POINT('',(0.0045,-0.0005,0.0035));
#1052=CARTESIAN_POINT('',(0.0045,-0.0005,0.003));
#1053=CARTESIAN_POINT('',(0.,8.67361737988404E-19,0.005));
#1054=CARTESIAN_POINT('',(1.0842021724855E-19,-0.002,0.005));
#1055=CARTESIAN_POINT('',(-0.0055,-0.0015,0.005));
#1056=CARTESIAN_POINT('',(-0.0055,-0.0015,0.005));
#1057=CARTESIAN_POINT('',(-0.0055,-0.0025,0.005));
#1058=CARTESIAN_POINT('',(-0.0055,-0.002,0.005));
#1059=CARTESIAN_POINT('',(-0.0055,-0.00175,0.00475));
#1060=CARTESIAN_POINT('',(-0.0055,-0.0005,0.0035));
#1061=CARTESIAN_POINT('',(-0.0055,-0.0005,0.005));
#1062=CARTESIAN_POINT('',(-0.0055,-0.0005,0.003));
#1063=CARTESIAN_POINT('',(-0.0055,-0.0015,0.003));
#1064=CARTESIAN_POINT('',(-0.0055,-0.0015,0.003));
#1065=CARTESIAN_POINT('',(-0.0055,-0.0015,0.005));
#1066=CARTESIAN_POINT('',(-0.0055,-0.0025,0.005));
#1067=CARTESIAN_POINT('',(-0.0045,-0.0025,0.005));
#1068=CARTESIAN_POINT('',(-0.0035,-0.0025,0.005));
#1069=CARTESIAN_POINT('',(-0.0035,-0.0025,0.005));
#1070=CARTESIAN_POINT('',(-0.0045,-0.0025,0.005));
#1071=CARTESIAN_POINT('',(-0.0035,-0.0015,0.005));
#1072=CARTESIAN_POINT('',(-0.0035,-0.0005,0.005));
#1073=CARTESIAN_POINT('',(-0.0035,-0.0005,0.0035));
#1074=CARTESIAN_POINT('',(-0.0035,-0.0005,0.003));
#1075=CARTESIAN_POINT('',(-0.0035,-0.0005,0.0035));
#1076=CARTESIAN_POINT('',(-0.0035,-0.002,0.005));
#1077=CARTESIAN_POINT('',(-0.0035,-0.0015,0.005));
#1078=CARTESIAN_POINT('',(-0.0035,-0.0015,0.005));
#1079=CARTESIAN_POINT('',(-0.0035,-0.0015,0.003));
#1080=CARTESIAN_POINT('',(-0.0035,-0.0015,0.003));
#1081=CARTESIAN_POINT('',(-0.0045,-0.0005,0.005));
#1082=CARTESIAN_POINT('',(-0.0045,-0.0005,0.0035));
#1083=CARTESIAN_POINT('',(-0.0045,-0.0005,0.003));
#1084=CARTESIAN_POINT('',(0.,8.67361737988404E-19,0.005));
#1085=CARTESIAN_POINT('',(1.0842021724855E-19,-0.002,0.005));
#1086=CARTESIAN_POINT('',(0.,0.0025,0.005));
#1087=CARTESIAN_POINT('',(-0.0055,0.0025,0.005));
#1088=CARTESIAN_POINT('',(-0.0055,0.0025,0.005));
#1089=CARTESIAN_POINT('',(0.,0.0025,0.005));
#1090=CARTESIAN_POINT('',(-0.0035,0.0025,0.005));
#1091=CARTESIAN_POINT('',(-0.0035,0.0025,0.005));
#1092=CARTESIAN_POINT('',(-0.0055,0.0015,0.005));
#1093=CARTESIAN_POINT('',(-0.0055,0.0005,0.005));
#1094=CARTESIAN_POINT('',(-0.0055,0.0005,0.0035));
#1095=CARTESIAN_POINT('',(-0.0055,0.0005,0.003));
#1096=CARTESIAN_POINT('',(-0.0055,0.0005,0.0035));
#1097=CARTESIAN_POINT('',(-0.0055,0.002,0.005));
#1098=CARTESIAN_POINT('',(-0.0055,0.0015,0.005));
#1099=CARTESIAN_POINT('',(-0.0055,0.0015,0.005));
#1100=CARTESIAN_POINT('',(-0.0055,0.0015,0.003));
#1101=CARTESIAN_POINT('',(-0.0055,0.0015,0.003));
#1102=CARTESIAN_POINT('',(0.018,0.0005,0.005));
#1103=CARTESIAN_POINT('',(-0.0035,0.0005,0.005));
#1104=CARTESIAN_POINT('',(-0.0035,0.0005,0.0035));
#1105=CARTESIAN_POINT('',(-0.0035,0.0005,0.003));
#1106=CARTESIAN_POINT('',(0.018,0.0005,0.0035));
#1107=CARTESIAN_POINT('',(0.018,0.0005,0.003));
#1108=CARTESIAN_POINT('',(-0.0035,0.0015,0.005));
#1109=CARTESIAN_POINT('',(-0.0035,0.0015,0.005));
#1110=CARTESIAN_POINT('',(-0.0035,0.002,0.005));
#1111=CARTESIAN_POINT('',(-0.0035,0.00175,0.00475));
#1112=CARTESIAN_POINT('',(-0.0035,0.0015,0.003));
#1113=CARTESIAN_POINT('',(-0.0035,0.0015,0.003));
#1114=CARTESIAN_POINT('',(-0.0035,0.0015,0.005));
#1115=CARTESIAN_POINT('',(0.,8.67361737988404E-19,0.005));
#1116=CARTESIAN_POINT('',(0.,0.002,0.005));
#1117=CARTESIAN_POINT('',(0.0055,0.0015,0.005));
#1118=CARTESIAN_POINT('',(0.0055,0.0015,0.005));
#1119=CARTESIAN_POINT('',(0.0055,0.0025,0.005));
#1120=CARTESIAN_POINT('',(0.0055,0.002,0.005));
#1121=CARTESIAN_POINT('',(0.0055,0.00175,0.00475));
#1122=CARTESIAN_POINT('',(0.0055,0.0005,0.0035));
#1123=CARTESIAN_POINT('',(0.0055,0.0005,0.005));
#1124=CARTESIAN_POINT('',(0.0055,0.0005,0.003));
#1125=CARTESIAN_POINT('',(0.0055,0.,0.003));
#1126=CARTESIAN_POINT('',(0.0055,0.0015,0.003));
#1127=CARTESIAN_POINT('',(0.0055,0.0015,0.00275));
#1128=CARTESIAN_POINT('',(0.0055,0.0025,0.005));
#1129=CARTESIAN_POINT('',(0.,0.0025,0.005));
#1130=CARTESIAN_POINT('',(0.0035,0.0025,0.005));
#1131=CARTESIAN_POINT('',(0.0035,0.0025,0.005));
#1132=CARTESIAN_POINT('',(0.,0.0025,0.005));
#1133=CARTESIAN_POINT('',(0.0035,0.0015,0.005));
#1134=CARTESIAN_POINT('',(0.0035,0.0005,0.005));
#1135=CARTESIAN_POINT('',(0.0035,0.0005,0.0035));
#1136=CARTESIAN_POINT('',(0.0035,0.0005,0.003));
#1137=CARTESIAN_POINT('',(0.0035,0.0005,0.0035));
#1138=CARTESIAN_POINT('',(0.0035,0.002,0.005));
#1139=CARTESIAN_POINT('',(0.0035,0.0015,0.005));
#1140=CARTESIAN_POINT('',(0.0035,0.0015,0.005));
#1141=CARTESIAN_POINT('',(0.0035,0.0015,0.003));
#1142=CARTESIAN_POINT('',(0.0035,0.0015,0.003));
#1143=CARTESIAN_POINT('',(0.018,0.0005,0.005));
#1144=CARTESIAN_POINT('',(0.018,0.0005,0.0035));
#1145=CARTESIAN_POINT('',(0.018,0.0005,0.003));
#1146=CARTESIAN_POINT('',(0.,8.67361737988404E-19,0.005));
#1147=CARTESIAN_POINT('',(0.,0.002,0.005));
#1148=CARTESIAN_POINT('',(-0.0195,0.,0.003));
#1149=CARTESIAN_POINT('',(-0.0195,0.0015,0.003));
#1150=CARTESIAN_POINT('',(-0.0195,0.0015,0.00275));
#1151=CARTESIAN_POINT('',(-0.0195,0.,0.003));
#1152=CARTESIAN_POINT('',(-0.0195,0.0015,0.003));
#1153=CARTESIAN_POINT('',(-0.0195,0.0015,0.00275));
#1154=CARTESIAN_POINT('',(-0.0195,0.,0.003));
#1155=CARTESIAN_POINT('',(-0.0195,-0.0015,0.003));
#1156=CARTESIAN_POINT('',(-0.0195,-0.0015,0.00275));
#1157=CARTESIAN_POINT('',(-0.0195,0.,0.003));
#1158=CARTESIAN_POINT('',(-0.0195,-0.0015,0.003));
#1159=CARTESIAN_POINT('',(-0.0195,-0.0015,0.00275));
#1160=CARTESIAN_POINT('',(0.0045,-0.0005,0.0035));
#1161=CARTESIAN_POINT('',(-0.0045,-0.0005,0.0035));
#1162=CARTESIAN_POINT('',(0.018,0.0005,0.0035));
#1163=CARTESIAN_POINT('',(0.018,0.0005,0.0035));
#1164=MECHANICAL_DESIGN_GEOMETRIC_PRESENTATION_REPRESENTATION('',(#725),
#1165);
#1165=(
GEOMETRIC_REPRESENTATION_CONTEXT(3)
GLOBAL_UNCERTAINTY_ASSIGNED_CONTEXT((#1166))
GLOBAL_UNIT_ASSIGNED_CONTEXT((#1169,#1168,#1167))
REPRESENTATION_CONTEXT('Part 1','TOP_LEVEL_ASSEMBLY_PART')
);
#1166=UNCERTAINTY_MEASURE_WITH_UNIT(LENGTH_MEASURE(1.E-8),#1169,
'DISTANCE_ACCURACY_VALUE','Maximum Tolerance applied to model');
#1167=(
NAMED_UNIT(*)
SI_UNIT($,.STERADIAN.)
SOLID_ANGLE_UNIT()
);
#1168=(
NAMED_UNIT(*)
PLANE_ANGLE_UNIT()
SI_UNIT($,.RADIAN.)
);
#1169=(
LENGTH_UNIT()
NAMED_UNIT(*)
SI_UNIT($,.METRE.)
);
#1170=PRODUCT_DEFINITION_SHAPE('','',#1171);
#1171=PRODUCT_DEFINITION('','',#1173,#1172);
#1172=PRODUCT_DEFINITION_CONTEXT('',#1179,'design');
#1173=PRODUCT_DEFINITION_FORMATION_WITH_SPECIFIED_SOURCE('','',#1175,
 .NOT_KNOWN.);
#1174=PRODUCT_RELATED_PRODUCT_CATEGORY('','',(#1175));
#1175=PRODUCT('Part 1','Part 1','Part 1',(#1177));
#1176=PRODUCT_CATEGORY('','');
#1177=PRODUCT_CONTEXT('',#1179,'mechanical');
#1178=APPLICATION_PROTOCOL_DEFINITION('international standard',
'ap242_managed_model_based_3d_engineering',2020,#1179);
#1179=APPLICATION_CONTEXT('managed model based 3d engineering');
ENDSEC;
END-ISO-10303-21;
