ISO-10303-21;
HEADER;
/* Generated by software containing ST-Developer
 * from STEP Tools, Inc. (www.steptools.com) 
 */
/* OPTION: using custom renumber hook */

FILE_DESCRIPTION(
/* description */ ('STEP AP242 Edition 2',
'CAx-IF Rec.Pracs.---Representation and Presentation of Product Manufa
cturing Information (PMI)---4.0---2014-10-13',
'CAx-IF Rec.Pracs.---3D Tessellated Geometry---0.4---2014-09-14','2;1',
'CAx-IF Rec.Pracs.---User Defined Attributes---1.5---2016-08-15'),
/* implementation_level */ '2;1');

FILE_NAME(
/* name */ 'Face',
/* time_stamp */ '2026-07-29T14:41:53Z',
/* author */ (''),
/* organization */ (''),
/* preprocessor_version */ 'ST-DEVELOPER v20',
/* originating_system */ 'ONSHAPE BY PTC INC, 1.218',
/* authorisation */ '  ');

FILE_SCHEMA (('AP242_MANAGED_MODEL_BASED_3D_ENGINEERING_MIM_LF { 1 0 10303 442 3 1 4 }'));
ENDSEC;

DATA;
#10=SHAPE_REPRESENTATION_RELATIONSHIP('','',#722,#11);
#11=ADVANCED_BREP_SHAPE_REPRESENTATION('',(#720),#1199);
#12=PLANE('',#734);
#13=PLANE('',#744);
#14=PLANE('',#747);
#15=PLANE('',#748);
#16=PLANE('',#749);
#17=PLANE('',#752);
#18=PLANE('',#753);
#19=PLANE('',#754);
#20=PLANE('',#755);
#21=PLANE('',#758);
#22=PLANE('',#759);
#23=PLANE('',#760);
#24=PLANE('',#763);
#25=PLANE('',#764);
#26=PLANE('',#765);
#27=PLANE('',#766);
#28=PLANE('',#767);
#29=PLANE('',#768);
#30=PLANE('',#769);
#31=PLANE('',#770);
#32=PLANE('',#771);
#33=PLANE('',#772);
#34=PLANE('',#773);
#35=PLANE('',#774);
#36=PLANE('',#775);
#37=PLANE('',#776);
#38=PLANE('',#779);
#39=PLANE('',#783);
#40=PLANE('',#787);
#41=PLANE('',#790);
#42=LINE('',#1002,#110);
#43=LINE('',#1006,#111);
#44=LINE('',#1010,#112);
#45=LINE('',#1014,#113);
#46=LINE('',#1018,#114);
#47=LINE('',#1022,#115);
#48=LINE('',#1026,#116);
#49=LINE('',#1030,#117);
#50=LINE('',#1038,#118);
#51=LINE('',#1042,#119);
#52=LINE('',#1043,#120);
#53=LINE('',#1047,#121);
#54=LINE('',#1048,#122);
#55=LINE('',#1052,#123);
#56=LINE('',#1053,#124);
#57=LINE('',#1057,#125);
#58=LINE('',#1063,#126);
#59=LINE('',#1067,#127);
#60=LINE('',#1069,#128);
#61=LINE('',#1072,#129);
#62=LINE('',#1074,#130);
#63=LINE('',#1075,#131);
#64=LINE('',#1077,#132);
#65=LINE('',#1079,#133);
#66=LINE('',#1081,#134);
#67=LINE('',#1083,#135);
#68=LINE('',#1085,#136);
#69=LINE('',#1087,#137);
#70=LINE('',#1091,#138);
#71=LINE('',#1093,#139);
#72=LINE('',#1096,#140);
#73=LINE('',#1098,#141);
#74=LINE('',#1099,#142);
#75=LINE('',#1101,#143);
#76=LINE('',#1103,#144);
#77=LINE('',#1105,#145);
#78=LINE('',#1107,#146);
#79=LINE('',#1109,#147);
#80=LINE('',#1111,#148);
#81=LINE('',#1114,#149);
#82=LINE('',#1116,#150);
#83=LINE('',#1118,#151);
#84=LINE('',#1119,#152);
#85=LINE('',#1121,#153);
#86=LINE('',#1125,#154);
#87=LINE('',#1128,#155);
#88=LINE('',#1130,#156);
#89=LINE('',#1131,#157);
#90=LINE('',#1133,#158);
#91=LINE('',#1135,#159);
#92=LINE('',#1138,#160);
#93=LINE('',#1140,#161);
#94=LINE('',#1142,#162);
#95=LINE('',#1143,#163);
#96=LINE('',#1145,#164);
#97=LINE('',#1149,#165);
#98=LINE('',#1152,#166);
#99=LINE('',#1154,#167);
#100=LINE('',#1155,#168);
#101=LINE('',#1157,#169);
#102=LINE('',#1159,#170);
#103=LINE('',#1160,#171);
#104=LINE('',#1163,#172);
#105=LINE('',#1164,#173);
#106=LINE('',#1167,#174);
#107=LINE('',#1168,#175);
#108=LINE('',#1171,#176);
#109=LINE('',#1172,#177);
#110=VECTOR('',#799,1.);
#111=VECTOR('',#802,1.);
#112=VECTOR('',#805,1.);
#113=VECTOR('',#808,1.);
#114=VECTOR('',#811,1.);
#115=VECTOR('',#814,1.);
#116=VECTOR('',#817,1.);
#117=VECTOR('',#820,1.);
#118=VECTOR('',#829,1.);
#119=VECTOR('',#832,1.);
#120=VECTOR('',#833,1.);
#121=VECTOR('',#836,1.);
#122=VECTOR('',#837,1.);
#123=VECTOR('',#840,1.);
#124=VECTOR('',#841,1.);
#125=VECTOR('',#844,1.);
#126=VECTOR('',#853,1.);
#127=VECTOR('',#856,1.);
#128=VECTOR('',#859,1.);
#129=VECTOR('',#860,1.);
#130=VECTOR('',#861,1.);
#131=VECTOR('',#862,1.);
#132=VECTOR('',#865,1.);
#133=VECTOR('',#866,1.);
#134=VECTOR('',#867,1.);
#135=VECTOR('',#868,1.);
#136=VECTOR('',#871,1.);
#137=VECTOR('',#874,1.);
#138=VECTOR('',#877,1.);
#139=VECTOR('',#880,1.);
#140=VECTOR('',#881,1.);
#141=VECTOR('',#882,1.);
#142=VECTOR('',#883,1.);
#143=VECTOR('',#886,1.);
#144=VECTOR('',#887,1.);
#145=VECTOR('',#888,1.);
#146=VECTOR('',#889,1.);
#147=VECTOR('',#892,1.);
#148=VECTOR('',#895,1.);
#149=VECTOR('',#896,1.);
#150=VECTOR('',#897,1.);
#151=VECTOR('',#898,1.);
#152=VECTOR('',#899,1.);
#153=VECTOR('',#902,1.);
#154=VECTOR('',#907,1.);
#155=VECTOR('',#908,1.);
#156=VECTOR('',#909,1.);
#157=VECTOR('',#910,1.);
#158=VECTOR('',#913,1.);
#159=VECTOR('',#916,1.);
#160=VECTOR('',#917,1.);
#161=VECTOR('',#918,1.);
#162=VECTOR('',#919,1.);
#163=VECTOR('',#920,1.);
#164=VECTOR('',#923,1.);
#165=VECTOR('',#928,1.);
#166=VECTOR('',#929,1.);
#167=VECTOR('',#930,1.);
#168=VECTOR('',#931,1.);
#169=VECTOR('',#934,1.);
#170=VECTOR('',#937,1.);
#171=VECTOR('',#938,1.);
#172=VECTOR('',#943,1.);
#173=VECTOR('',#944,1.);
#174=VECTOR('',#949,1.);
#175=VECTOR('',#950,1.);
#176=VECTOR('',#955,1.);
#177=VECTOR('',#956,1.);
#178=ORIENTED_EDGE('',*,*,#368,.T.);
#179=ORIENTED_EDGE('',*,*,#369,.F.);
#180=ORIENTED_EDGE('',*,*,#370,.T.);
#181=ORIENTED_EDGE('',*,*,#371,.F.);
#182=ORIENTED_EDGE('',*,*,#372,.F.);
#183=ORIENTED_EDGE('',*,*,#373,.F.);
#184=ORIENTED_EDGE('',*,*,#374,.T.);
#185=ORIENTED_EDGE('',*,*,#375,.F.);
#186=ORIENTED_EDGE('',*,*,#376,.F.);
#187=ORIENTED_EDGE('',*,*,#377,.F.);
#188=ORIENTED_EDGE('',*,*,#378,.T.);
#189=ORIENTED_EDGE('',*,*,#379,.F.);
#190=ORIENTED_EDGE('',*,*,#380,.F.);
#191=ORIENTED_EDGE('',*,*,#381,.F.);
#192=ORIENTED_EDGE('',*,*,#382,.T.);
#193=ORIENTED_EDGE('',*,*,#383,.F.);
#194=ORIENTED_EDGE('',*,*,#384,.F.);
#195=ORIENTED_EDGE('',*,*,#385,.F.);
#196=ORIENTED_EDGE('',*,*,#386,.F.);
#197=ORIENTED_EDGE('',*,*,#387,.F.);
#198=ORIENTED_EDGE('',*,*,#371,.T.);
#199=ORIENTED_EDGE('',*,*,#388,.T.);
#200=ORIENTED_EDGE('',*,*,#389,.T.);
#201=ORIENTED_EDGE('',*,*,#390,.F.);
#202=ORIENTED_EDGE('',*,*,#383,.T.);
#203=ORIENTED_EDGE('',*,*,#391,.T.);
#204=ORIENTED_EDGE('',*,*,#392,.T.);
#205=ORIENTED_EDGE('',*,*,#393,.F.);
#206=ORIENTED_EDGE('',*,*,#379,.T.);
#207=ORIENTED_EDGE('',*,*,#394,.T.);
#208=ORIENTED_EDGE('',*,*,#395,.T.);
#209=ORIENTED_EDGE('',*,*,#396,.F.);
#210=ORIENTED_EDGE('',*,*,#375,.T.);
#211=ORIENTED_EDGE('',*,*,#397,.T.);
#212=ORIENTED_EDGE('',*,*,#398,.T.);
#213=ORIENTED_EDGE('',*,*,#399,.F.);
#214=ORIENTED_EDGE('',*,*,#387,.T.);
#215=ORIENTED_EDGE('',*,*,#400,.F.);
#216=ORIENTED_EDGE('',*,*,#400,.T.);
#217=ORIENTED_EDGE('',*,*,#368,.F.);
#218=ORIENTED_EDGE('',*,*,#398,.F.);
#219=ORIENTED_EDGE('',*,*,#401,.F.);
#220=ORIENTED_EDGE('',*,*,#402,.T.);
#221=ORIENTED_EDGE('',*,*,#403,.T.);
#222=ORIENTED_EDGE('',*,*,#404,.F.);
#223=ORIENTED_EDGE('',*,*,#405,.T.);
#224=ORIENTED_EDGE('',*,*,#406,.T.);
#225=ORIENTED_EDGE('',*,*,#401,.T.);
#226=ORIENTED_EDGE('',*,*,#397,.F.);
#227=ORIENTED_EDGE('',*,*,#374,.F.);
#228=ORIENTED_EDGE('',*,*,#407,.F.);
#229=ORIENTED_EDGE('',*,*,#408,.F.);
#230=ORIENTED_EDGE('',*,*,#409,.T.);
#231=ORIENTED_EDGE('',*,*,#410,.T.);
#232=ORIENTED_EDGE('',*,*,#411,.F.);
#233=ORIENTED_EDGE('',*,*,#372,.T.);
#234=ORIENTED_EDGE('',*,*,#399,.T.);
#235=ORIENTED_EDGE('',*,*,#403,.F.);
#236=ORIENTED_EDGE('',*,*,#406,.F.);
#237=ORIENTED_EDGE('',*,*,#412,.T.);
#238=ORIENTED_EDGE('',*,*,#408,.T.);
#239=ORIENTED_EDGE('',*,*,#402,.F.);
#240=ORIENTED_EDGE('',*,*,#395,.F.);
#241=ORIENTED_EDGE('',*,*,#413,.F.);
#242=ORIENTED_EDGE('',*,*,#414,.T.);
#243=ORIENTED_EDGE('',*,*,#415,.T.);
#244=ORIENTED_EDGE('',*,*,#416,.F.);
#245=ORIENTED_EDGE('',*,*,#417,.T.);
#246=ORIENTED_EDGE('',*,*,#418,.T.);
#247=ORIENTED_EDGE('',*,*,#413,.T.);
#248=ORIENTED_EDGE('',*,*,#394,.F.);
#249=ORIENTED_EDGE('',*,*,#378,.F.);
#250=ORIENTED_EDGE('',*,*,#419,.F.);
#251=ORIENTED_EDGE('',*,*,#420,.F.);
#252=ORIENTED_EDGE('',*,*,#421,.T.);
#253=ORIENTED_EDGE('',*,*,#422,.T.);
#254=ORIENTED_EDGE('',*,*,#423,.F.);
#255=ORIENTED_EDGE('',*,*,#376,.T.);
#256=ORIENTED_EDGE('',*,*,#396,.T.);
#257=ORIENTED_EDGE('',*,*,#415,.F.);
#258=ORIENTED_EDGE('',*,*,#418,.F.);
#259=ORIENTED_EDGE('',*,*,#424,.T.);
#260=ORIENTED_EDGE('',*,*,#420,.T.);
#261=ORIENTED_EDGE('',*,*,#414,.F.);
#262=ORIENTED_EDGE('',*,*,#425,.F.);
#263=ORIENTED_EDGE('',*,*,#426,.T.);
#264=ORIENTED_EDGE('',*,*,#427,.T.);
#265=ORIENTED_EDGE('',*,*,#428,.F.);
#266=ORIENTED_EDGE('',*,*,#380,.T.);
#267=ORIENTED_EDGE('',*,*,#393,.T.);
#268=ORIENTED_EDGE('',*,*,#429,.F.);
#269=ORIENTED_EDGE('',*,*,#392,.F.);
#270=ORIENTED_EDGE('',*,*,#430,.F.);
#271=ORIENTED_EDGE('',*,*,#431,.T.);
#272=ORIENTED_EDGE('',*,*,#429,.T.);
#273=ORIENTED_EDGE('',*,*,#432,.F.);
#274=ORIENTED_EDGE('',*,*,#433,.T.);
#275=ORIENTED_EDGE('',*,*,#434,.T.);
#276=ORIENTED_EDGE('',*,*,#430,.T.);
#277=ORIENTED_EDGE('',*,*,#391,.F.);
#278=ORIENTED_EDGE('',*,*,#382,.F.);
#279=ORIENTED_EDGE('',*,*,#435,.F.);
#280=ORIENTED_EDGE('',*,*,#434,.F.);
#281=ORIENTED_EDGE('',*,*,#436,.T.);
#282=ORIENTED_EDGE('',*,*,#425,.T.);
#283=ORIENTED_EDGE('',*,*,#431,.F.);
#284=ORIENTED_EDGE('',*,*,#437,.F.);
#285=ORIENTED_EDGE('',*,*,#438,.T.);
#286=ORIENTED_EDGE('',*,*,#439,.T.);
#287=ORIENTED_EDGE('',*,*,#440,.F.);
#288=ORIENTED_EDGE('',*,*,#384,.T.);
#289=ORIENTED_EDGE('',*,*,#390,.T.);
#290=ORIENTED_EDGE('',*,*,#441,.F.);
#291=ORIENTED_EDGE('',*,*,#389,.F.);
#292=ORIENTED_EDGE('',*,*,#442,.F.);
#293=ORIENTED_EDGE('',*,*,#443,.T.);
#294=ORIENTED_EDGE('',*,*,#441,.T.);
#295=ORIENTED_EDGE('',*,*,#444,.F.);
#296=ORIENTED_EDGE('',*,*,#445,.T.);
#297=ORIENTED_EDGE('',*,*,#446,.T.);
#298=ORIENTED_EDGE('',*,*,#442,.T.);
#299=ORIENTED_EDGE('',*,*,#388,.F.);
#300=ORIENTED_EDGE('',*,*,#370,.F.);
#301=ORIENTED_EDGE('',*,*,#447,.F.);
#302=ORIENTED_EDGE('',*,*,#446,.F.);
#303=ORIENTED_EDGE('',*,*,#448,.T.);
#304=ORIENTED_EDGE('',*,*,#437,.T.);
#305=ORIENTED_EDGE('',*,*,#443,.F.);
#306=ORIENTED_EDGE('',*,*,#410,.F.);
#307=ORIENTED_EDGE('',*,*,#449,.T.);
#308=ORIENTED_EDGE('',*,*,#404,.T.);
#309=ORIENTED_EDGE('',*,*,#450,.F.);
#310=ORIENTED_EDGE('',*,*,#407,.T.);
#311=ORIENTED_EDGE('',*,*,#373,.T.);
#312=ORIENTED_EDGE('',*,*,#411,.T.);
#313=ORIENTED_EDGE('',*,*,#450,.T.);
#314=ORIENTED_EDGE('',*,*,#422,.F.);
#315=ORIENTED_EDGE('',*,*,#451,.T.);
#316=ORIENTED_EDGE('',*,*,#416,.T.);
#317=ORIENTED_EDGE('',*,*,#452,.F.);
#318=ORIENTED_EDGE('',*,*,#419,.T.);
#319=ORIENTED_EDGE('',*,*,#377,.T.);
#320=ORIENTED_EDGE('',*,*,#423,.T.);
#321=ORIENTED_EDGE('',*,*,#452,.T.);
#322=ORIENTED_EDGE('',*,*,#427,.F.);
#323=ORIENTED_EDGE('',*,*,#453,.T.);
#324=ORIENTED_EDGE('',*,*,#432,.T.);
#325=ORIENTED_EDGE('',*,*,#454,.F.);
#326=ORIENTED_EDGE('',*,*,#435,.T.);
#327=ORIENTED_EDGE('',*,*,#381,.T.);
#328=ORIENTED_EDGE('',*,*,#428,.T.);
#329=ORIENTED_EDGE('',*,*,#454,.T.);
#330=ORIENTED_EDGE('',*,*,#439,.F.);
#331=ORIENTED_EDGE('',*,*,#455,.T.);
#332=ORIENTED_EDGE('',*,*,#444,.T.);
#333=ORIENTED_EDGE('',*,*,#456,.F.);
#334=ORIENTED_EDGE('',*,*,#447,.T.);
#335=ORIENTED_EDGE('',*,*,#369,.T.);
#336=ORIENTED_EDGE('',*,*,#440,.T.);
#337=ORIENTED_EDGE('',*,*,#456,.T.);
#338=ORIENTED_EDGE('',*,*,#409,.F.);
#339=ORIENTED_EDGE('',*,*,#412,.F.);
#340=ORIENTED_EDGE('',*,*,#405,.F.);
#341=ORIENTED_EDGE('',*,*,#449,.F.);
#342=ORIENTED_EDGE('',*,*,#421,.F.);
#343=ORIENTED_EDGE('',*,*,#424,.F.);
#344=ORIENTED_EDGE('',*,*,#417,.F.);
#345=ORIENTED_EDGE('',*,*,#451,.F.);
#346=ORIENTED_EDGE('',*,*,#426,.F.);
#347=ORIENTED_EDGE('',*,*,#436,.F.);
#348=ORIENTED_EDGE('',*,*,#433,.F.);
#349=ORIENTED_EDGE('',*,*,#453,.F.);
#350=ORIENTED_EDGE('',*,*,#438,.F.);
#351=ORIENTED_EDGE('',*,*,#448,.F.);
#352=ORIENTED_EDGE('',*,*,#445,.F.);
#353=ORIENTED_EDGE('',*,*,#455,.F.);
#354=ORIENTED_EDGE('',*,*,#457,.F.);
#355=ORIENTED_EDGE('',*,*,#386,.T.);
#356=ORIENTED_EDGE('',*,*,#458,.F.);
#357=ORIENTED_EDGE('',*,*,#457,.T.);
#358=ORIENTED_EDGE('',*,*,#459,.F.);
#359=ORIENTED_EDGE('',*,*,#385,.T.);
#360=ORIENTED_EDGE('',*,*,#460,.F.);
#361=ORIENTED_EDGE('',*,*,#459,.T.);
#362=ORIENTED_EDGE('',*,*,#461,.F.);
#363=ORIENTED_EDGE('',*,*,#460,.T.);
#364=ORIENTED_EDGE('',*,*,#461,.T.);
#365=ORIENTED_EDGE('',*,*,#462,.F.);
#366=ORIENTED_EDGE('',*,*,#458,.T.);
#367=ORIENTED_EDGE('',*,*,#462,.T.);
#368=EDGE_CURVE('',#463,#463,#530,.T.);
#369=EDGE_CURVE('',#464,#465,#531,.T.);
#370=EDGE_CURVE('',#464,#466,#42,.T.);
#371=EDGE_CURVE('',#467,#466,#532,.T.);
#372=EDGE_CURVE('',#468,#467,#43,.T.);
#373=EDGE_CURVE('',#469,#468,#533,.T.);
#374=EDGE_CURVE('',#469,#470,#44,.T.);
#375=EDGE_CURVE('',#471,#470,#534,.T.);
#376=EDGE_CURVE('',#472,#471,#45,.T.);
#377=EDGE_CURVE('',#473,#472,#535,.T.);
#378=EDGE_CURVE('',#473,#474,#46,.T.);
#379=EDGE_CURVE('',#475,#474,#536,.T.);
#380=EDGE_CURVE('',#476,#475,#47,.T.);
#381=EDGE_CURVE('',#477,#476,#537,.T.);
#382=EDGE_CURVE('',#477,#478,#48,.T.);
#383=EDGE_CURVE('',#479,#478,#538,.T.);
#384=EDGE_CURVE('',#465,#479,#49,.T.);
#385=EDGE_CURVE('',#480,#480,#539,.T.);
#386=EDGE_CURVE('',#481,#481,#540,.T.);
#387=EDGE_CURVE('',#482,#482,#541,.T.);
#388=EDGE_CURVE('',#466,#483,#50,.T.);
#389=EDGE_CURVE('',#483,#484,#542,.T.);
#390=EDGE_CURVE('',#479,#484,#51,.T.);
#391=EDGE_CURVE('',#478,#485,#52,.T.);
#392=EDGE_CURVE('',#485,#486,#543,.T.);
#393=EDGE_CURVE('',#475,#486,#53,.T.);
#394=EDGE_CURVE('',#474,#487,#54,.T.);
#395=EDGE_CURVE('',#487,#488,#544,.T.);
#396=EDGE_CURVE('',#471,#488,#55,.T.);
#397=EDGE_CURVE('',#470,#489,#56,.T.);
#398=EDGE_CURVE('',#489,#490,#545,.T.);
#399=EDGE_CURVE('',#467,#490,#57,.T.);
#400=EDGE_CURVE('',#491,#491,#546,.T.);
#401=EDGE_CURVE('',#492,#489,#58,.T.);
#402=EDGE_CURVE('',#492,#493,#547,.T.);
#403=EDGE_CURVE('',#493,#490,#59,.T.);
#404=EDGE_CURVE('',#494,#495,#60,.T.);
#405=EDGE_CURVE('',#494,#496,#61,.F.);
#406=EDGE_CURVE('',#496,#492,#62,.T.);
#407=EDGE_CURVE('',#495,#469,#63,.T.);
#408=EDGE_CURVE('',#497,#493,#64,.T.);
#409=EDGE_CURVE('',#497,#498,#65,.F.);
#410=EDGE_CURVE('',#498,#499,#66,.T.);
#411=EDGE_CURVE('',#468,#499,#67,.T.);
#412=EDGE_CURVE('',#496,#497,#68,.T.);
#413=EDGE_CURVE('',#500,#487,#69,.T.);
#414=EDGE_CURVE('',#500,#501,#548,.T.);
#415=EDGE_CURVE('',#501,#488,#70,.T.);
#416=EDGE_CURVE('',#502,#503,#71,.T.);
#417=EDGE_CURVE('',#502,#504,#72,.F.);
#418=EDGE_CURVE('',#504,#500,#73,.T.);
#419=EDGE_CURVE('',#503,#473,#74,.T.);
#420=EDGE_CURVE('',#505,#501,#75,.T.);
#421=EDGE_CURVE('',#505,#506,#76,.F.);
#422=EDGE_CURVE('',#506,#507,#77,.T.);
#423=EDGE_CURVE('',#472,#507,#78,.T.);
#424=EDGE_CURVE('',#504,#505,#79,.T.);
#425=EDGE_CURVE('',#508,#509,#80,.T.);
#426=EDGE_CURVE('',#508,#510,#81,.F.);
#427=EDGE_CURVE('',#510,#511,#82,.T.);
#428=EDGE_CURVE('',#476,#511,#83,.T.);
#429=EDGE_CURVE('',#509,#486,#84,.T.);
#430=EDGE_CURVE('',#512,#485,#85,.T.);
#431=EDGE_CURVE('',#512,#509,#549,.T.);
#432=EDGE_CURVE('',#513,#514,#86,.T.);
#433=EDGE_CURVE('',#513,#515,#87,.F.);
#434=EDGE_CURVE('',#515,#512,#88,.T.);
#435=EDGE_CURVE('',#514,#477,#89,.T.);
#436=EDGE_CURVE('',#515,#508,#90,.T.);
#437=EDGE_CURVE('',#516,#517,#91,.T.);
#438=EDGE_CURVE('',#516,#518,#92,.F.);
#439=EDGE_CURVE('',#518,#519,#93,.T.);
#440=EDGE_CURVE('',#465,#519,#94,.T.);
#441=EDGE_CURVE('',#517,#484,#95,.T.);
#442=EDGE_CURVE('',#520,#483,#96,.T.);
#443=EDGE_CURVE('',#520,#517,#550,.T.);
#444=EDGE_CURVE('',#521,#522,#97,.T.);
#445=EDGE_CURVE('',#521,#523,#98,.F.);
#446=EDGE_CURVE('',#523,#520,#99,.T.);
#447=EDGE_CURVE('',#522,#464,#100,.T.);
#448=EDGE_CURVE('',#523,#516,#101,.T.);
#449=EDGE_CURVE('',#498,#494,#102,.T.);
#450=EDGE_CURVE('',#499,#495,#103,.T.);
#451=EDGE_CURVE('',#506,#502,#104,.T.);
#452=EDGE_CURVE('',#507,#503,#105,.T.);
#453=EDGE_CURVE('',#510,#513,#106,.T.);
#454=EDGE_CURVE('',#511,#514,#107,.T.);
#455=EDGE_CURVE('',#518,#521,#108,.T.);
#456=EDGE_CURVE('',#519,#522,#109,.T.);
#457=EDGE_CURVE('',#524,#524,#551,.T.);
#458=EDGE_CURVE('',#525,#525,#552,.T.);
#459=EDGE_CURVE('',#526,#526,#553,.T.);
#460=EDGE_CURVE('',#527,#527,#554,.T.);
#461=EDGE_CURVE('',#528,#528,#555,.T.);
#462=EDGE_CURVE('',#529,#529,#556,.T.);
#463=VERTEX_POINT('',#998);
#464=VERTEX_POINT('',#1000);
#465=VERTEX_POINT('',#1001);
#466=VERTEX_POINT('',#1003);
#467=VERTEX_POINT('',#1005);
#468=VERTEX_POINT('',#1007);
#469=VERTEX_POINT('',#1009);
#470=VERTEX_POINT('',#1011);
#471=VERTEX_POINT('',#1013);
#472=VERTEX_POINT('',#1015);
#473=VERTEX_POINT('',#1017);
#474=VERTEX_POINT('',#1019);
#475=VERTEX_POINT('',#1021);
#476=VERTEX_POINT('',#1023);
#477=VERTEX_POINT('',#1025);
#478=VERTEX_POINT('',#1027);
#479=VERTEX_POINT('',#1029);
#480=VERTEX_POINT('',#1033);
#481=VERTEX_POINT('',#1035);
#482=VERTEX_POINT('',#1037);
#483=VERTEX_POINT('',#1039);
#484=VERTEX_POINT('',#1041);
#485=VERTEX_POINT('',#1044);
#486=VERTEX_POINT('',#1046);
#487=VERTEX_POINT('',#1049);
#488=VERTEX_POINT('',#1051);
#489=VERTEX_POINT('',#1054);
#490=VERTEX_POINT('',#1056);
#491=VERTEX_POINT('',#1060);
#492=VERTEX_POINT('',#1064);
#493=VERTEX_POINT('',#1066);
#494=VERTEX_POINT('',#1070);
#495=VERTEX_POINT('',#1071);
#496=VERTEX_POINT('',#1073);
#497=VERTEX_POINT('',#1078);
#498=VERTEX_POINT('',#1080);
#499=VERTEX_POINT('',#1082);
#500=VERTEX_POINT('',#1088);
#501=VERTEX_POINT('',#1090);
#502=VERTEX_POINT('',#1094);
#503=VERTEX_POINT('',#1095);
#504=VERTEX_POINT('',#1097);
#505=VERTEX_POINT('',#1102);
#506=VERTEX_POINT('',#1104);
#507=VERTEX_POINT('',#1106);
#508=VERTEX_POINT('',#1112);
#509=VERTEX_POINT('',#1113);
#510=VERTEX_POINT('',#1115);
#511=VERTEX_POINT('',#1117);
#512=VERTEX_POINT('',#1122);
#513=VERTEX_POINT('',#1126);
#514=VERTEX_POINT('',#1127);
#515=VERTEX_POINT('',#1129);
#516=VERTEX_POINT('',#1136);
#517=VERTEX_POINT('',#1137);
#518=VERTEX_POINT('',#1139);
#519=VERTEX_POINT('',#1141);
#520=VERTEX_POINT('',#1146);
#521=VERTEX_POINT('',#1150);
#522=VERTEX_POINT('',#1151);
#523=VERTEX_POINT('',#1153);
#524=VERTEX_POINT('',#1180);
#525=VERTEX_POINT('',#1183);
#526=VERTEX_POINT('',#1186);
#527=VERTEX_POINT('',#1189);
#528=VERTEX_POINT('',#1192);
#529=VERTEX_POINT('',#1196);
#530=CIRCLE('',#725,0.04339784);
#531=CIRCLE('',#726,0.04339784);
#532=CIRCLE('',#727,0.04339784);
#533=CIRCLE('',#728,0.04339784);
#534=CIRCLE('',#729,0.04339784);
#535=CIRCLE('',#730,0.04339784);
#536=CIRCLE('',#731,0.04339784);
#537=CIRCLE('',#732,0.04339784);
#538=CIRCLE('',#733,0.04339784);
#539=CIRCLE('',#735,0.001);
#540=CIRCLE('',#736,0.001);
#541=CIRCLE('',#737,0.02667);
#542=CIRCLE('',#738,0.0404127685206299);
#543=CIRCLE('',#739,0.0404127685206297);
#544=CIRCLE('',#740,0.0404127685206297);
#545=CIRCLE('',#741,0.0404127685206297);
#546=CIRCLE('',#743,0.02667);
#547=CIRCLE('',#746,0.0404127685206297);
#548=CIRCLE('',#751,0.0404127685206297);
#549=CIRCLE('',#757,0.0404127685206297);
#550=CIRCLE('',#762,0.0404127685206299);
#551=CIRCLE('',#778,0.001);
#552=CIRCLE('',#780,0.0005);
#553=CIRCLE('',#782,0.001);
#554=CIRCLE('',#784,0.0005);
#555=CIRCLE('',#786,0.0005);
#556=CIRCLE('',#789,0.0005);
#557=EDGE_LOOP('',(#178));
#558=EDGE_LOOP('',(#179,#180,#181,#182,#183,#184,#185,#186,#187,#188,#189,
#190,#191,#192,#193,#194));
#559=EDGE_LOOP('',(#195));
#560=EDGE_LOOP('',(#196));
#561=EDGE_LOOP('',(#197));
#562=EDGE_LOOP('',(#198,#199,#200,#201,#202,#203,#204,#205,#206,#207,#208,
#209,#210,#211,#212,#213));
#563=EDGE_LOOP('',(#214));
#564=EDGE_LOOP('',(#215));
#565=EDGE_LOOP('',(#216));
#566=EDGE_LOOP('',(#217));
#567=EDGE_LOOP('',(#218,#219,#220,#221));
#568=EDGE_LOOP('',(#222,#223,#224,#225,#226,#227,#228));
#569=EDGE_LOOP('',(#229,#230,#231,#232,#233,#234,#235));
#570=EDGE_LOOP('',(#236,#237,#238,#239));
#571=EDGE_LOOP('',(#240,#241,#242,#243));
#572=EDGE_LOOP('',(#244,#245,#246,#247,#248,#249,#250));
#573=EDGE_LOOP('',(#251,#252,#253,#254,#255,#256,#257));
#574=EDGE_LOOP('',(#258,#259,#260,#261));
#575=EDGE_LOOP('',(#262,#263,#264,#265,#266,#267,#268));
#576=EDGE_LOOP('',(#269,#270,#271,#272));
#577=EDGE_LOOP('',(#273,#274,#275,#276,#277,#278,#279));
#578=EDGE_LOOP('',(#280,#281,#282,#283));
#579=EDGE_LOOP('',(#284,#285,#286,#287,#288,#289,#290));
#580=EDGE_LOOP('',(#291,#292,#293,#294));
#581=EDGE_LOOP('',(#295,#296,#297,#298,#299,#300,#301));
#582=EDGE_LOOP('',(#302,#303,#304,#305));
#583=EDGE_LOOP('',(#306,#307,#308,#309));
#584=EDGE_LOOP('',(#310,#311,#312,#313));
#585=EDGE_LOOP('',(#314,#315,#316,#317));
#586=EDGE_LOOP('',(#318,#319,#320,#321));
#587=EDGE_LOOP('',(#322,#323,#324,#325));
#588=EDGE_LOOP('',(#326,#327,#328,#329));
#589=EDGE_LOOP('',(#330,#331,#332,#333));
#590=EDGE_LOOP('',(#334,#335,#336,#337));
#591=EDGE_LOOP('',(#338,#339,#340,#341));
#592=EDGE_LOOP('',(#342,#343,#344,#345));
#593=EDGE_LOOP('',(#346,#347,#348,#349));
#594=EDGE_LOOP('',(#350,#351,#352,#353));
#595=EDGE_LOOP('',(#354));
#596=EDGE_LOOP('',(#355));
#597=EDGE_LOOP('',(#356));
#598=EDGE_LOOP('',(#357));
#599=EDGE_LOOP('',(#358));
#600=EDGE_LOOP('',(#359));
#601=EDGE_LOOP('',(#360));
#602=EDGE_LOOP('',(#361));
#603=EDGE_LOOP('',(#362));
#604=EDGE_LOOP('',(#363));
#605=EDGE_LOOP('',(#364));
#606=EDGE_LOOP('',(#365));
#607=EDGE_LOOP('',(#366));
#608=EDGE_LOOP('',(#367));
#609=FACE_BOUND('',#557,.T.);
#610=FACE_BOUND('',#558,.T.);
#611=FACE_BOUND('',#559,.T.);
#612=FACE_BOUND('',#560,.T.);
#613=FACE_BOUND('',#561,.T.);
#614=FACE_BOUND('',#562,.T.);
#615=FACE_BOUND('',#563,.T.);
#616=FACE_BOUND('',#564,.T.);
#617=FACE_BOUND('',#565,.T.);
#618=FACE_BOUND('',#566,.T.);
#619=FACE_BOUND('',#567,.T.);
#620=FACE_BOUND('',#568,.T.);
#621=FACE_BOUND('',#569,.T.);
#622=FACE_BOUND('',#570,.T.);
#623=FACE_BOUND('',#571,.T.);
#624=FACE_BOUND('',#572,.T.);
#625=FACE_BOUND('',#573,.T.);
#626=FACE_BOUND('',#574,.T.);
#627=FACE_BOUND('',#575,.T.);
#628=FACE_BOUND('',#576,.T.);
#629=FACE_BOUND('',#577,.T.);
#630=FACE_BOUND('',#578,.T.);
#631=FACE_BOUND('',#579,.T.);
#632=FACE_BOUND('',#580,.T.);
#633=FACE_BOUND('',#581,.T.);
#634=FACE_BOUND('',#582,.T.);
#635=FACE_BOUND('',#583,.T.);
#636=FACE_BOUND('',#584,.T.);
#637=FACE_BOUND('',#585,.T.);
#638=FACE_BOUND('',#586,.T.);
#639=FACE_BOUND('',#587,.T.);
#640=FACE_BOUND('',#588,.T.);
#641=FACE_BOUND('',#589,.T.);
#642=FACE_BOUND('',#590,.T.);
#643=FACE_BOUND('',#591,.T.);
#644=FACE_BOUND('',#592,.T.);
#645=FACE_BOUND('',#593,.T.);
#646=FACE_BOUND('',#594,.T.);
#647=FACE_BOUND('',#595,.T.);
#648=FACE_BOUND('',#596,.T.);
#649=FACE_BOUND('',#597,.T.);
#650=FACE_BOUND('',#598,.T.);
#651=FACE_BOUND('',#599,.T.);
#652=FACE_BOUND('',#600,.T.);
#653=FACE_BOUND('',#601,.T.);
#654=FACE_BOUND('',#602,.T.);
#655=FACE_BOUND('',#603,.T.);
#656=FACE_BOUND('',#604,.T.);
#657=FACE_BOUND('',#605,.T.);
#658=FACE_BOUND('',#606,.T.);
#659=FACE_BOUND('',#607,.T.);
#660=FACE_BOUND('',#608,.T.);
#661=CYLINDRICAL_SURFACE('',#724,0.04339784);
#662=CYLINDRICAL_SURFACE('',#742,0.02667);
#663=CYLINDRICAL_SURFACE('',#745,0.0404127685206297);
#664=CYLINDRICAL_SURFACE('',#750,0.0404127685206297);
#665=CYLINDRICAL_SURFACE('',#756,0.0404127685206297);
#666=CYLINDRICAL_SURFACE('',#761,0.0404127685206299);
#667=CYLINDRICAL_SURFACE('',#777,0.001);
#668=CYLINDRICAL_SURFACE('',#781,0.001);
#669=CYLINDRICAL_SURFACE('',#785,0.0005);
#670=CYLINDRICAL_SURFACE('',#788,0.0005);
#671=ADVANCED_FACE('',(#609,#610),#661,.T.);
#672=ADVANCED_FACE('',(#611,#612,#613,#614),#12,.T.);
#673=ADVANCED_FACE('',(#615,#616),#662,.F.);
#674=ADVANCED_FACE('',(#617,#618),#13,.F.);
#675=ADVANCED_FACE('',(#619),#663,.F.);
#676=ADVANCED_FACE('',(#620),#14,.T.);
#677=ADVANCED_FACE('',(#621),#15,.F.);
#678=ADVANCED_FACE('',(#622),#16,.T.);
#679=ADVANCED_FACE('',(#623),#664,.F.);
#680=ADVANCED_FACE('',(#624),#17,.T.);
#681=ADVANCED_FACE('',(#625),#18,.F.);
#682=ADVANCED_FACE('',(#626),#19,.T.);
#683=ADVANCED_FACE('',(#627),#20,.F.);
#684=ADVANCED_FACE('',(#628),#665,.F.);
#685=ADVANCED_FACE('',(#629),#21,.T.);
#686=ADVANCED_FACE('',(#630),#22,.T.);
#687=ADVANCED_FACE('',(#631),#23,.F.);
#688=ADVANCED_FACE('',(#632),#666,.F.);
#689=ADVANCED_FACE('',(#633),#24,.T.);
#690=ADVANCED_FACE('',(#634),#25,.T.);
#691=ADVANCED_FACE('',(#635),#26,.T.);
#692=ADVANCED_FACE('',(#636),#27,.F.);
#693=ADVANCED_FACE('',(#637),#28,.T.);
#694=ADVANCED_FACE('',(#638),#29,.F.);
#695=ADVANCED_FACE('',(#639),#30,.T.);
#696=ADVANCED_FACE('',(#640),#31,.F.);
#697=ADVANCED_FACE('',(#641),#32,.T.);
#698=ADVANCED_FACE('',(#642),#33,.F.);
#699=ADVANCED_FACE('',(#643),#34,.F.);
#700=ADVANCED_FACE('',(#644),#35,.F.);
#701=ADVANCED_FACE('',(#645),#36,.F.);
#702=ADVANCED_FACE('',(#646),#37,.F.);
#703=ADVANCED_FACE('',(#647,#648),#667,.T.);
#704=ADVANCED_FACE('',(#649,#650),#38,.T.);
#705=ADVANCED_FACE('',(#651,#652),#668,.T.);
#706=ADVANCED_FACE('',(#653,#654),#39,.T.);
#707=ADVANCED_FACE('',(#655,#656),#669,.F.);
#708=ADVANCED_FACE('',(#657),#40,.T.);
#709=ADVANCED_FACE('',(#658,#659),#670,.F.);
#710=ADVANCED_FACE('',(#660),#41,.T.);
#711=CLOSED_SHELL('',(#671,#672,#673,#674,#675,#676,#677,#678,#679,#680,
#681,#682,#683,#684,#685,#686,#687,#688,#689,#690,#691,#692,#693,#694,#695,
#696,#697,#698,#699,#700,#701,#702,#703,#704,#705,#706,#707,#708,#709,#710));
#712=STYLED_ITEM('',(#713),#720);
#713=PRESENTATION_STYLE_ASSIGNMENT((#714));
#714=SURFACE_STYLE_USAGE(.BOTH.,#715);
#715=SURFACE_SIDE_STYLE('',(#716));
#716=SURFACE_STYLE_FILL_AREA(#717);
#717=FILL_AREA_STYLE('',(#718));
#718=FILL_AREA_STYLE_COLOUR('',#719);
#719=COLOUR_RGB('',0.615686274509804,0.811764705882353,0.929411764705882);
#720=MANIFOLD_SOLID_BREP('Part 1',#711);
#721=SHAPE_DEFINITION_REPRESENTATION(#1204,#722);
#722=SHAPE_REPRESENTATION('Part 1',(#723),#1199);
#723=AXIS2_PLACEMENT_3D('',#995,#791,#792);
#724=AXIS2_PLACEMENT_3D('',#996,#793,#794);
#725=AXIS2_PLACEMENT_3D('',#997,#795,#796);
#726=AXIS2_PLACEMENT_3D('',#999,#797,#798);
#727=AXIS2_PLACEMENT_3D('',#1004,#800,#801);
#728=AXIS2_PLACEMENT_3D('',#1008,#803,#804);
#729=AXIS2_PLACEMENT_3D('',#1012,#806,#807);
#730=AXIS2_PLACEMENT_3D('',#1016,#809,#810);
#731=AXIS2_PLACEMENT_3D('',#1020,#812,#813);
#732=AXIS2_PLACEMENT_3D('',#1024,#815,#816);
#733=AXIS2_PLACEMENT_3D('',#1028,#818,#819);
#734=AXIS2_PLACEMENT_3D('',#1031,#821,#822);
#735=AXIS2_PLACEMENT_3D('',#1032,#823,#824);
#736=AXIS2_PLACEMENT_3D('',#1034,#825,#826);
#737=AXIS2_PLACEMENT_3D('',#1036,#827,#828);
#738=AXIS2_PLACEMENT_3D('',#1040,#830,#831);
#739=AXIS2_PLACEMENT_3D('',#1045,#834,#835);
#740=AXIS2_PLACEMENT_3D('',#1050,#838,#839);
#741=AXIS2_PLACEMENT_3D('',#1055,#842,#843);
#742=AXIS2_PLACEMENT_3D('',#1058,#845,#846);
#743=AXIS2_PLACEMENT_3D('',#1059,#847,#848);
#744=AXIS2_PLACEMENT_3D('',#1061,#849,#850);
#745=AXIS2_PLACEMENT_3D('',#1062,#851,#852);
#746=AXIS2_PLACEMENT_3D('',#1065,#854,#855);
#747=AXIS2_PLACEMENT_3D('',#1068,#857,#858);
#748=AXIS2_PLACEMENT_3D('',#1076,#863,#864);
#749=AXIS2_PLACEMENT_3D('',#1084,#869,#870);
#750=AXIS2_PLACEMENT_3D('',#1086,#872,#873);
#751=AXIS2_PLACEMENT_3D('',#1089,#875,#876);
#752=AXIS2_PLACEMENT_3D('',#1092,#878,#879);
#753=AXIS2_PLACEMENT_3D('',#1100,#884,#885);
#754=AXIS2_PLACEMENT_3D('',#1108,#890,#891);
#755=AXIS2_PLACEMENT_3D('',#1110,#893,#894);
#756=AXIS2_PLACEMENT_3D('',#1120,#900,#901);
#757=AXIS2_PLACEMENT_3D('',#1123,#903,#904);
#758=AXIS2_PLACEMENT_3D('',#1124,#905,#906);
#759=AXIS2_PLACEMENT_3D('',#1132,#911,#912);
#760=AXIS2_PLACEMENT_3D('',#1134,#914,#915);
#761=AXIS2_PLACEMENT_3D('',#1144,#921,#922);
#762=AXIS2_PLACEMENT_3D('',#1147,#924,#925);
#763=AXIS2_PLACEMENT_3D('',#1148,#926,#927);
#764=AXIS2_PLACEMENT_3D('',#1156,#932,#933);
#765=AXIS2_PLACEMENT_3D('',#1158,#935,#936);
#766=AXIS2_PLACEMENT_3D('',#1161,#939,#940);
#767=AXIS2_PLACEMENT_3D('',#1162,#941,#942);
#768=AXIS2_PLACEMENT_3D('',#1165,#945,#946);
#769=AXIS2_PLACEMENT_3D('',#1166,#947,#948);
#770=AXIS2_PLACEMENT_3D('',#1169,#951,#952);
#771=AXIS2_PLACEMENT_3D('',#1170,#953,#954);
#772=AXIS2_PLACEMENT_3D('',#1173,#957,#958);
#773=AXIS2_PLACEMENT_3D('',#1174,#959,#960);
#774=AXIS2_PLACEMENT_3D('',#1175,#961,#962);
#775=AXIS2_PLACEMENT_3D('',#1176,#963,#964);
#776=AXIS2_PLACEMENT_3D('',#1177,#965,#966);
#777=AXIS2_PLACEMENT_3D('',#1178,#967,#968);
#778=AXIS2_PLACEMENT_3D('',#1179,#969,#970);
#779=AXIS2_PLACEMENT_3D('',#1181,#971,#972);
#780=AXIS2_PLACEMENT_3D('',#1182,#973,#974);
#781=AXIS2_PLACEMENT_3D('',#1184,#975,#976);
#782=AXIS2_PLACEMENT_3D('',#1185,#977,#978);
#783=AXIS2_PLACEMENT_3D('',#1187,#979,#980);
#784=AXIS2_PLACEMENT_3D('',#1188,#981,#982);
#785=AXIS2_PLACEMENT_3D('',#1190,#983,#984);
#786=AXIS2_PLACEMENT_3D('',#1191,#985,#986);
#787=AXIS2_PLACEMENT_3D('',#1193,#987,#988);
#788=AXIS2_PLACEMENT_3D('',#1194,#989,#990);
#789=AXIS2_PLACEMENT_3D('',#1195,#991,#992);
#790=AXIS2_PLACEMENT_3D('',#1197,#993,#994);
#791=DIRECTION('',(0.,0.,1.));
#792=DIRECTION('',(1.,0.,0.));
#793=DIRECTION('',(0.,0.,-1.));
#794=DIRECTION('',(-1.,0.,0.));
#795=DIRECTION('',(0.,0.,1.));
#796=DIRECTION('',(1.,0.,0.));
#797=DIRECTION('',(0.,0.,1.));
#798=DIRECTION('',(1.,0.,0.));
#799=DIRECTION('',(0.,0.,-1.));
#800=DIRECTION('',(0.,0.,1.));
#801=DIRECTION('',(1.,0.,0.));
#802=DIRECTION('',(0.,0.,-1.));
#803=DIRECTION('',(0.,0.,1.));
#804=DIRECTION('',(1.,0.,0.));
#805=DIRECTION('',(0.,0.,-1.));
#806=DIRECTION('',(0.,0.,1.));
#807=DIRECTION('',(1.,0.,0.));
#808=DIRECTION('',(0.,0.,-1.));
#809=DIRECTION('',(0.,0.,1.));
#810=DIRECTION('',(1.,0.,0.));
#811=DIRECTION('',(0.,0.,-1.));
#812=DIRECTION('',(0.,0.,1.));
#813=DIRECTION('',(1.,0.,0.));
#814=DIRECTION('',(0.,0.,-1.));
#815=DIRECTION('',(0.,0.,1.));
#816=DIRECTION('',(1.,0.,0.));
#817=DIRECTION('',(0.,0.,-1.));
#818=DIRECTION('',(0.,0.,1.));
#819=DIRECTION('',(1.,0.,0.));
#820=DIRECTION('',(0.,0.,-1.));
#821=DIRECTION('',(0.,0.,1.));
#822=DIRECTION('',(1.,0.,0.));
#823=DIRECTION('',(0.,0.,1.));
#824=DIRECTION('',(1.,0.,0.));
#825=DIRECTION('',(0.,0.,1.));
#826=DIRECTION('',(1.,0.,0.));
#827=DIRECTION('',(0.,0.,1.));
#828=DIRECTION('',(1.,0.,0.));
#829=DIRECTION('',(-1.,0.,0.));
#830=DIRECTION('',(0.,0.,1.));
#831=DIRECTION('',(1.,0.,0.));
#832=DIRECTION('',(-1.,0.,0.));
#833=DIRECTION('',(2.90048287611924E-16,-1.,0.));
#834=DIRECTION('',(0.,0.,1.));
#835=DIRECTION('',(1.,0.,0.));
#836=DIRECTION('',(2.90048287611925E-16,-1.,0.));
#837=DIRECTION('',(1.,2.90048287611924E-16,0.));
#838=DIRECTION('',(0.,0.,1.));
#839=DIRECTION('',(1.,0.,0.));
#840=DIRECTION('',(1.,2.90048287611925E-16,0.));
#841=DIRECTION('',(-2.90048287611924E-16,1.,0.));
#842=DIRECTION('',(0.,0.,1.));
#843=DIRECTION('',(1.,0.,0.));
#844=DIRECTION('',(-2.90048287611925E-16,1.,0.));
#845=DIRECTION('',(0.,0.,-1.));
#846=DIRECTION('',(-1.,0.,0.));
#847=DIRECTION('',(0.,0.,1.));
#848=DIRECTION('',(1.,0.,0.));
#849=DIRECTION('',(0.,0.,1.));
#850=DIRECTION('',(1.,0.,0.));
#851=DIRECTION('',(0.,0.,-1.));
#852=DIRECTION('',(-1.,0.,0.));
#853=DIRECTION('',(0.,0.,-1.));
#854=DIRECTION('',(0.,0.,1.));
#855=DIRECTION('',(1.,0.,0.));
#856=DIRECTION('',(0.,0.,-1.));
#857=DIRECTION('',(-1.,-2.90048287611924E-16,0.));
#858=DIRECTION('',(2.90048287611924E-16,-1.,0.));
#859=DIRECTION('',(0.,0.,-1.));
#860=DIRECTION('',(2.69303074278856E-16,-0.92847669088526,-0.371390676354103));
#861=DIRECTION('',(-2.90048287611924E-16,1.,0.));
#862=DIRECTION('',(0.,1.,0.));
#863=DIRECTION('',(-1.,-2.90048287611925E-16,0.));
#864=DIRECTION('',(2.90048287611925E-16,-1.,0.));
#865=DIRECTION('',(-2.90048287611925E-16,1.,0.));
#866=DIRECTION('',(-2.69303074278856E-16,0.92847669088526,0.371390676354103));
#867=DIRECTION('',(0.,0.,-1.));
#868=DIRECTION('',(0.,-1.,0.));
#869=DIRECTION('',(0.,0.,1.));
#870=DIRECTION('',(1.,0.,0.));
#871=DIRECTION('',(1.,0.,0.));
#872=DIRECTION('',(0.,0.,-1.));
#873=DIRECTION('',(-1.,0.,0.));
#874=DIRECTION('',(0.,0.,-1.));
#875=DIRECTION('',(0.,0.,1.));
#876=DIRECTION('',(1.,0.,0.));
#877=DIRECTION('',(0.,0.,-1.));
#878=DIRECTION('',(-2.90048287611924E-16,1.,0.));
#879=DIRECTION('',(-1.,-2.90048287611924E-16,0.));
#880=DIRECTION('',(0.,0.,-1.));
#881=DIRECTION('',(-0.92847669088526,-2.69303074278856E-16,-0.371390676354103));
#882=DIRECTION('',(1.,2.90048287611924E-16,0.));
#883=DIRECTION('',(1.,0.,0.));
#884=DIRECTION('',(-2.90048287611925E-16,1.,0.));
#885=DIRECTION('',(-1.,-2.90048287611925E-16,0.));
#886=DIRECTION('',(1.,2.90048287611925E-16,0.));
#887=DIRECTION('',(0.92847669088526,2.69303074278856E-16,0.371390676354103));
#888=DIRECTION('',(0.,0.,-1.));
#889=DIRECTION('',(-1.,0.,0.));
#890=DIRECTION('',(0.,0.,1.));
#891=DIRECTION('',(1.,0.,0.));
#892=DIRECTION('',(0.,-1.,0.));
#893=DIRECTION('',(1.,2.90048287611925E-16,0.));
#894=DIRECTION('',(-2.90048287611925E-16,1.,0.));
#895=DIRECTION('',(2.90048287611925E-16,-1.,0.));
#896=DIRECTION('',(2.69303074278856E-16,-0.92847669088526,0.371390676354103));
#897=DIRECTION('',(0.,0.,-1.));
#898=DIRECTION('',(0.,1.,0.));
#899=DIRECTION('',(0.,0.,-1.));
#900=DIRECTION('',(0.,0.,-1.));
#901=DIRECTION('',(-1.,0.,0.));
#902=DIRECTION('',(0.,0.,-1.));
#903=DIRECTION('',(0.,0.,1.));
#904=DIRECTION('',(1.,0.,0.));
#905=DIRECTION('',(1.,2.90048287611924E-16,0.));
#906=DIRECTION('',(-2.90048287611924E-16,1.,0.));
#907=DIRECTION('',(0.,0.,-1.));
#908=DIRECTION('',(-2.69303074278856E-16,0.92847669088526,-0.371390676354103));
#909=DIRECTION('',(2.90048287611924E-16,-1.,0.));
#910=DIRECTION('',(0.,-1.,0.));
#911=DIRECTION('',(0.,0.,1.));
#912=DIRECTION('',(1.,0.,0.));
#913=DIRECTION('',(-1.,0.,0.));
#914=DIRECTION('',(0.,-1.,0.));
#915=DIRECTION('',(0.,0.,-1.));
#916=DIRECTION('',(-1.,0.,0.));
#917=DIRECTION('',(-0.92847669088526,0.,0.371390676354103));
#918=DIRECTION('',(0.,0.,-1.));
#919=DIRECTION('',(1.,0.,0.));
#920=DIRECTION('',(0.,0.,-1.));
#921=DIRECTION('',(0.,0.,-1.));
#922=DIRECTION('',(-1.,0.,0.));
#923=DIRECTION('',(0.,0.,-1.));
#924=DIRECTION('',(0.,0.,1.));
#925=DIRECTION('',(1.,0.,0.));
#926=DIRECTION('',(0.,-1.,0.));
#927=DIRECTION('',(0.,0.,-1.));
#928=DIRECTION('',(0.,0.,-1.));
#929=DIRECTION('',(0.92847669088526,0.,-0.371390676354103));
#930=DIRECTION('',(-1.,0.,0.));
#931=DIRECTION('',(-1.,0.,0.));
#932=DIRECTION('',(0.,0.,1.));
#933=DIRECTION('',(1.,0.,0.));
#934=DIRECTION('',(0.,1.,0.));
#935=DIRECTION('',(0.,-1.,0.));
#936=DIRECTION('',(0.,0.,-1.));
#937=DIRECTION('',(-1.,0.,0.));
#938=DIRECTION('',(-1.,0.,0.));
#939=DIRECTION('',(0.,0.,1.));
#940=DIRECTION('',(1.,0.,0.));
#941=DIRECTION('',(-1.,0.,0.));
#942=DIRECTION('',(0.,0.,1.));
#943=DIRECTION('',(0.,1.,0.));
#944=DIRECTION('',(0.,1.,0.));
#945=DIRECTION('',(0.,0.,1.));
#946=DIRECTION('',(1.,0.,0.));
#947=DIRECTION('',(0.,1.,0.));
#948=DIRECTION('',(0.,0.,1.));
#949=DIRECTION('',(1.,0.,0.));
#950=DIRECTION('',(1.,0.,0.));
#951=DIRECTION('',(0.,0.,1.));
#952=DIRECTION('',(1.,0.,0.));
#953=DIRECTION('',(1.,0.,0.));
#954=DIRECTION('',(0.,0.,-1.));
#955=DIRECTION('',(0.,-1.,0.));
#956=DIRECTION('',(0.,-1.,0.));
#957=DIRECTION('',(0.,0.,1.));
#958=DIRECTION('',(1.,0.,0.));
#959=DIRECTION('',(0.,0.371390676354103,-0.92847669088526));
#960=DIRECTION('',(-1.,0.,0.));
#961=DIRECTION('',(0.371390676354103,0.,-0.92847669088526));
#962=DIRECTION('',(0.,1.,0.));
#963=DIRECTION('',(0.,-0.371390676354103,-0.92847669088526));
#964=DIRECTION('',(1.,0.,0.));
#965=DIRECTION('',(-0.371390676354103,0.,-0.92847669088526));
#966=DIRECTION('',(0.,-1.,0.));
#967=DIRECTION('',(0.,0.,-1.));
#968=DIRECTION('',(-1.,0.,0.));
#969=DIRECTION('',(0.,0.,1.));
#970=DIRECTION('',(1.,0.,0.));
#971=DIRECTION('',(0.,0.,1.));
#972=DIRECTION('',(1.,0.,0.));
#973=DIRECTION('',(0.,0.,1.));
#974=DIRECTION('',(1.,0.,0.));
#975=DIRECTION('',(0.,0.,-1.));
#976=DIRECTION('',(-1.,0.,0.));
#977=DIRECTION('',(0.,0.,1.));
#978=DIRECTION('',(1.,0.,0.));
#979=DIRECTION('',(0.,0.,1.));
#980=DIRECTION('',(1.,0.,0.));
#981=DIRECTION('',(0.,0.,1.));
#982=DIRECTION('',(1.,0.,0.));
#983=DIRECTION('',(0.,0.,1.));
#984=DIRECTION('',(1.,0.,0.));
#985=DIRECTION('',(0.,0.,1.));
#986=DIRECTION('',(1.,0.,0.));
#987=DIRECTION('',(0.,0.,1.));
#988=DIRECTION('',(1.,0.,0.));
#989=DIRECTION('',(0.,0.,1.));
#990=DIRECTION('',(1.,0.,0.));
#991=DIRECTION('',(0.,0.,1.));
#992=DIRECTION('',(1.,0.,0.));
#993=DIRECTION('',(0.,0.,1.));
#994=DIRECTION('',(1.,0.,0.));
#995=CARTESIAN_POINT('',(0.,0.,0.));
#996=CARTESIAN_POINT('',(0.,2.65735129229545E-18,0.002));
#997=CARTESIAN_POINT('',(0.,2.65735129229545E-18,0.));
#998=CARTESIAN_POINT('',(0.04339784,2.65735129229545E-18,0.));
#999=CARTESIAN_POINT('',(0.,2.65735129229545E-18,0.009));
#1000=CARTESIAN_POINT('',(0.04332577196849,-0.0025,0.009));
#1001=CARTESIAN_POINT('',(0.04332577196849,0.0025,0.009));
#1002=CARTESIAN_POINT('',(0.04332577196849,-0.0025,0.01));
#1003=CARTESIAN_POINT('',(0.04332577196849,-0.0025,0.002));
#1004=CARTESIAN_POINT('',(0.,2.65735129229545E-18,0.002));
#1005=CARTESIAN_POINT('',(0.0025,-0.04332577196849,0.002));
#1006=CARTESIAN_POINT('',(0.0025,-0.04332577196849,0.01));
#1007=CARTESIAN_POINT('',(0.0025,-0.04332577196849,0.009));
#1008=CARTESIAN_POINT('',(0.,2.65735129229545E-18,0.009));
#1009=CARTESIAN_POINT('',(-0.0025,-0.04332577196849,0.009));
#1010=CARTESIAN_POINT('',(-0.0025,-0.04332577196849,0.01));
#1011=CARTESIAN_POINT('',(-0.0025,-0.04332577196849,0.002));
#1012=CARTESIAN_POINT('',(0.,2.65735129229545E-18,0.002));
#1013=CARTESIAN_POINT('',(-0.04332577196849,-0.0025,0.002));
#1014=CARTESIAN_POINT('',(-0.04332577196849,-0.0025,0.01));
#1015=CARTESIAN_POINT('',(-0.04332577196849,-0.0025,0.009));
#1016=CARTESIAN_POINT('',(0.,2.65735129229545E-18,0.009));
#1017=CARTESIAN_POINT('',(-0.04332577196849,0.0025,0.009));
#1018=CARTESIAN_POINT('',(-0.04332577196849,0.0025,0.01));
#1019=CARTESIAN_POINT('',(-0.04332577196849,0.0025,0.002));
#1020=CARTESIAN_POINT('',(0.,2.65735129229545E-18,0.002));
#1021=CARTESIAN_POINT('',(-0.0025,0.04332577196849,0.002));
#1022=CARTESIAN_POINT('',(-0.0025,0.04332577196849,0.01));
#1023=CARTESIAN_POINT('',(-0.0025,0.04332577196849,0.009));
#1024=CARTESIAN_POINT('',(0.,2.65735129229545E-18,0.009));
#1025=CARTESIAN_POINT('',(0.0025,0.04332577196849,0.009));
#1026=CARTESIAN_POINT('',(0.0025,0.04332577196849,0.01));
#1027=CARTESIAN_POINT('',(0.0025,0.04332577196849,0.002));
#1028=CARTESIAN_POINT('',(0.,2.65735129229545E-18,0.002));
#1029=CARTESIAN_POINT('',(0.04332577196849,0.0025,0.002));
#1030=CARTESIAN_POINT('',(0.04332577196849,0.0025,0.01));
#1031=CARTESIAN_POINT('',(0.,0.,0.002));
#1032=CARTESIAN_POINT('',(0.01144,-0.03133,0.002));
#1033=CARTESIAN_POINT('',(0.01244,-0.03133,0.002));
#1034=CARTESIAN_POINT('',(-0.01144,-0.03133,0.002));
#1035=CARTESIAN_POINT('',(-0.01044,-0.03133,0.002));
#1036=CARTESIAN_POINT('',(0.,1.63306650666299E-18,0.002));
#1037=CARTESIAN_POINT('',(0.02667,1.63306650666299E-18,0.002));
#1038=CARTESIAN_POINT('',(0.0418305696607472,-0.0025,0.002));
#1039=CARTESIAN_POINT('',(0.0403353673530044,-0.0025,0.002));
#1040=CARTESIAN_POINT('',(-2.38697950294408E-15,0.,0.002));
#1041=CARTESIAN_POINT('',(0.0403353673530044,0.0025,0.002));
#1042=CARTESIAN_POINT('',(0.0418305696607472,0.0025,0.002));
#1043=CARTESIAN_POINT('',(0.0025,0.0418305696607472,0.002));
#1044=CARTESIAN_POINT('',(0.0025,0.0403353673530044,0.002));
#1045=CARTESIAN_POINT('',(2.53832679731934E-18,-2.22738494315422E-15,0.002));
#1046=CARTESIAN_POINT('',(-0.0025,0.0403353673530044,0.002));
#1047=CARTESIAN_POINT('',(-0.0025,0.0418305696607472,0.002));
#1048=CARTESIAN_POINT('',(-0.0418305696607472,0.0025,0.002));
#1049=CARTESIAN_POINT('',(-0.0403353673530044,0.0025,0.002));
#1050=CARTESIAN_POINT('',(2.22044604925032E-15,4.42613229114737E-18,0.002));
#1051=CARTESIAN_POINT('',(-0.0403353673530044,-0.0025,0.002));
#1052=CARTESIAN_POINT('',(-0.0418305696607472,-0.0025,0.002));
#1053=CARTESIAN_POINT('',(-0.0025,-0.0418305696607472,0.002));
#1054=CARTESIAN_POINT('',(-0.0025,-0.0403353673530044,0.002));
#1055=CARTESIAN_POINT('',(-6.96445908846671E-18,2.22044604925032E-15,0.002));
#1056=CARTESIAN_POINT('',(0.0025,-0.0403353673530044,0.002));
#1057=CARTESIAN_POINT('',(0.0025,-0.0418305696607472,0.002));
#1058=CARTESIAN_POINT('',(0.,1.63306650666299E-18,0.002));
#1059=CARTESIAN_POINT('',(0.,1.63306650666299E-18,0.));
#1060=CARTESIAN_POINT('',(0.02667,1.63306650666299E-18,0.));
#1061=CARTESIAN_POINT('',(0.,0.,0.));
#1062=CARTESIAN_POINT('',(-6.96445908846671E-18,2.22044604925032E-15,0.01));
#1063=CARTESIAN_POINT('',(-0.0025,-0.0403353673530044,0.01));
#1064=CARTESIAN_POINT('',(-0.0025,-0.0403353673530044,0.01));
#1065=CARTESIAN_POINT('',(-6.96445908846671E-18,2.22044604925032E-15,0.01));
#1066=CARTESIAN_POINT('',(0.0025,-0.0403353673530044,0.01));
#1067=CARTESIAN_POINT('',(0.0025,-0.0403353673530044,0.01));
#1068=CARTESIAN_POINT('',(-0.0025,-0.0418305696607472,0.01));
#1069=CARTESIAN_POINT('',(-0.0025,-0.04439784,0.01));
#1070=CARTESIAN_POINT('',(-0.0025,-0.04439784,0.0096));
#1071=CARTESIAN_POINT('',(-0.0025,-0.04439784,0.009));
#1072=CARTESIAN_POINT('',(-0.0025,-0.0420467448799546,0.0105404380480182));
#1073=CARTESIAN_POINT('',(-0.0025,-0.04339784,0.01));
#1074=CARTESIAN_POINT('',(-0.0025,-0.0418305696607472,0.01));
#1075=CARTESIAN_POINT('',(-0.0025,-0.043361805984245,0.009));
#1076=CARTESIAN_POINT('',(0.0025,-0.0418305696607472,0.01));
#1077=CARTESIAN_POINT('',(0.0025,-0.0418305696607472,0.01));
#1078=CARTESIAN_POINT('',(0.0025,-0.04339784,0.01));
#1079=CARTESIAN_POINT('',(0.0025,-0.04439784,0.0096));
#1080=CARTESIAN_POINT('',(0.0025,-0.04439784,0.0096));
#1081=CARTESIAN_POINT('',(0.0025,-0.04439784,0.01));
#1082=CARTESIAN_POINT('',(0.0025,-0.04439784,0.009));
#1083=CARTESIAN_POINT('',(0.0025,-0.04389784,0.009));
#1084=CARTESIAN_POINT('',(0.,0.,0.01));
#1085=CARTESIAN_POINT('',(0.,-0.04339784,0.01));
#1086=CARTESIAN_POINT('',(2.22044604925032E-15,4.42613229114737E-18,0.01));
#1087=CARTESIAN_POINT('',(-0.0403353673530044,0.0025,0.01));
#1088=CARTESIAN_POINT('',(-0.0403353673530044,0.0025,0.01));
#1089=CARTESIAN_POINT('',(2.22044604925032E-15,4.42613229114737E-18,0.01));
#1090=CARTESIAN_POINT('',(-0.0403353673530044,-0.0025,0.01));
#1091=CARTESIAN_POINT('',(-0.0403353673530044,-0.0025,0.01));
#1092=CARTESIAN_POINT('',(-0.0418305696607472,0.0025,0.01));
#1093=CARTESIAN_POINT('',(-0.04439784,0.0025,0.01));
#1094=CARTESIAN_POINT('',(-0.04439784,0.0025,0.0096));
#1095=CARTESIAN_POINT('',(-0.04439784,0.0025,0.009));
#1096=CARTESIAN_POINT('',(-0.0420467448799546,0.0025,0.0105404380480182));
#1097=CARTESIAN_POINT('',(-0.04339784,0.0025,0.01));
#1098=CARTESIAN_POINT('',(-0.0418305696607472,0.0025,0.01));
#1099=CARTESIAN_POINT('',(-0.043361805984245,0.0025,0.009));
#1100=CARTESIAN_POINT('',(-0.0418305696607472,-0.0025,0.01));
#1101=CARTESIAN_POINT('',(-0.0418305696607472,-0.0025,0.01));
#1102=CARTESIAN_POINT('',(-0.04339784,-0.0025,0.01));
#1103=CARTESIAN_POINT('',(-0.04439784,-0.0025,0.0096));
#1104=CARTESIAN_POINT('',(-0.04439784,-0.0025,0.0096));
#1105=CARTESIAN_POINT('',(-0.04439784,-0.0025,0.01));
#1106=CARTESIAN_POINT('',(-0.04439784,-0.0025,0.009));
#1107=CARTESIAN_POINT('',(-0.04389784,-0.0025,0.009));
#1108=CARTESIAN_POINT('',(0.,0.,0.01));
#1109=CARTESIAN_POINT('',(-0.04339784,0.,0.01));
#1110=CARTESIAN_POINT('',(-0.0025,0.0418305696607472,0.01));
#1111=CARTESIAN_POINT('',(-0.0025,0.0418305696607472,0.01));
#1112=CARTESIAN_POINT('',(-0.0025,0.04339784,0.01));
#1113=CARTESIAN_POINT('',(-0.0025,0.0403353673530044,0.01));
#1114=CARTESIAN_POINT('',(-0.0025,0.04439784,0.0096));
#1115=CARTESIAN_POINT('',(-0.0025,0.04439784,0.0096));
#1116=CARTESIAN_POINT('',(-0.0025,0.04439784,0.01));
#1117=CARTESIAN_POINT('',(-0.0025,0.04439784,0.009));
#1118=CARTESIAN_POINT('',(-0.0025,0.04389784,0.009));
#1119=CARTESIAN_POINT('',(-0.0025,0.0403353673530044,0.01));
#1120=CARTESIAN_POINT('',(2.53832679731934E-18,-2.22738494315422E-15,0.01));
#1121=CARTESIAN_POINT('',(0.0025,0.0403353673530044,0.01));
#1122=CARTESIAN_POINT('',(0.0025,0.0403353673530044,0.01));
#1123=CARTESIAN_POINT('',(2.53832679731934E-18,-2.22738494315422E-15,0.01));
#1124=CARTESIAN_POINT('',(0.0025,0.0418305696607472,0.01));
#1125=CARTESIAN_POINT('',(0.0025,0.04439784,0.01));
#1126=CARTESIAN_POINT('',(0.0025,0.04439784,0.0096));
#1127=CARTESIAN_POINT('',(0.0025,0.04439784,0.009));
#1128=CARTESIAN_POINT('',(0.0025,0.0420467448799546,0.0105404380480182));
#1129=CARTESIAN_POINT('',(0.0025,0.04339784,0.01));
#1130=CARTESIAN_POINT('',(0.0025,0.0418305696607472,0.01));
#1131=CARTESIAN_POINT('',(0.0025,0.043361805984245,0.009));
#1132=CARTESIAN_POINT('',(0.,0.,0.01));
#1133=CARTESIAN_POINT('',(0.,0.04339784,0.01));
#1134=CARTESIAN_POINT('',(0.0418305696607472,0.0025,0.01));
#1135=CARTESIAN_POINT('',(0.0418305696607472,0.0025,0.01));
#1136=CARTESIAN_POINT('',(0.04339784,0.0025,0.01));
#1137=CARTESIAN_POINT('',(0.0403353673530044,0.0025,0.01));
#1138=CARTESIAN_POINT('',(0.04439784,0.0025,0.0096));
#1139=CARTESIAN_POINT('',(0.04439784,0.0025,0.0096));
#1140=CARTESIAN_POINT('',(0.04439784,0.0025,0.01));
#1141=CARTESIAN_POINT('',(0.04439784,0.0025,0.009));
#1142=CARTESIAN_POINT('',(0.04389784,0.0025,0.009));
#1143=CARTESIAN_POINT('',(0.0403353673530044,0.0025,0.01));
#1144=CARTESIAN_POINT('',(-2.38697950294408E-15,0.,0.01));
#1145=CARTESIAN_POINT('',(0.0403353673530044,-0.0025,0.01));
#1146=CARTESIAN_POINT('',(0.0403353673530044,-0.0025,0.01));
#1147=CARTESIAN_POINT('',(-2.38697950294408E-15,0.,0.01));
#1148=CARTESIAN_POINT('',(0.0418305696607472,-0.0025,0.01));
#1149=CARTESIAN_POINT('',(0.04439784,-0.0025,0.01));
#1150=CARTESIAN_POINT('',(0.04439784,-0.0025,0.0096));
#1151=CARTESIAN_POINT('',(0.04439784,-0.0025,0.009));
#1152=CARTESIAN_POINT('',(0.0420467448799546,-0.0025,0.0105404380480182));
#1153=CARTESIAN_POINT('',(0.04339784,-0.0025,0.01));
#1154=CARTESIAN_POINT('',(0.0418305696607472,-0.0025,0.01));
#1155=CARTESIAN_POINT('',(0.043361805984245,-0.0025,0.009));
#1156=CARTESIAN_POINT('',(0.,0.,0.01));
#1157=CARTESIAN_POINT('',(0.04339784,0.,0.01));
#1158=CARTESIAN_POINT('',(-8.23993651088983E-18,-0.04439784,0.01));
#1159=CARTESIAN_POINT('',(-8.23993651088983E-18,-0.04439784,0.0096));
#1160=CARTESIAN_POINT('',(-8.23993651088983E-18,-0.04439784,0.009));
#1161=CARTESIAN_POINT('',(0.,0.,0.009));
#1162=CARTESIAN_POINT('',(-0.04439784,5.63785129692462E-18,0.01));
#1163=CARTESIAN_POINT('',(-0.04439784,5.63785129692462E-18,0.0096));
#1164=CARTESIAN_POINT('',(-0.04439784,5.63785129692462E-18,0.009));
#1165=CARTESIAN_POINT('',(0.,0.,0.009));
#1166=CARTESIAN_POINT('',(2.60208521396521E-18,0.04439784,0.01));
#1167=CARTESIAN_POINT('',(2.60208521396521E-18,0.04439784,0.0096));
#1168=CARTESIAN_POINT('',(2.60208521396521E-18,0.04439784,0.009));
#1169=CARTESIAN_POINT('',(0.,0.,0.009));
#1170=CARTESIAN_POINT('',(0.04439784,0.,0.01));
#1171=CARTESIAN_POINT('',(0.04439784,0.,0.0096));
#1172=CARTESIAN_POINT('',(0.04439784,0.,0.009));
#1173=CARTESIAN_POINT('',(0.,0.,0.009));
#1174=CARTESIAN_POINT('',(-8.23993651088983E-18,-0.04439784,0.0096));
#1175=CARTESIAN_POINT('',(-0.04439784,5.63785129692462E-18,0.0096));
#1176=CARTESIAN_POINT('',(2.60208521396521E-18,0.04439784,0.0096));
#1177=CARTESIAN_POINT('',(0.04439784,0.,0.0096));
#1178=CARTESIAN_POINT('',(-0.01144,-0.03133,0.0035));
#1179=CARTESIAN_POINT('',(-0.01144,-0.03133,0.0035));
#1180=CARTESIAN_POINT('',(-0.01044,-0.03133,0.0035));
#1181=CARTESIAN_POINT('',(0.,0.,0.0035));
#1182=CARTESIAN_POINT('',(-0.01144,-0.03133,0.0035));
#1183=CARTESIAN_POINT('',(-0.01094,-0.03133,0.0035));
#1184=CARTESIAN_POINT('',(0.01144,-0.03133,0.0035));
#1185=CARTESIAN_POINT('',(0.01144,-0.03133,0.0035));
#1186=CARTESIAN_POINT('',(0.01244,-0.03133,0.0035));
#1187=CARTESIAN_POINT('',(0.,0.,0.0035));
#1188=CARTESIAN_POINT('',(0.01144,-0.03133,0.0035));
#1189=CARTESIAN_POINT('',(0.01194,-0.03133,0.0035));
#1190=CARTESIAN_POINT('',(0.01144,-0.03133,0.0015));
#1191=CARTESIAN_POINT('',(0.01144,-0.03133,0.0015));
#1192=CARTESIAN_POINT('',(0.01194,-0.03133,0.0015));
#1193=CARTESIAN_POINT('',(0.01144,-0.03133,0.0015));
#1194=CARTESIAN_POINT('',(-0.01144,-0.03133,0.0015));
#1195=CARTESIAN_POINT('',(-0.01144,-0.03133,0.0015));
#1196=CARTESIAN_POINT('',(-0.01094,-0.03133,0.0015));
#1197=CARTESIAN_POINT('',(-0.01144,-0.03133,0.0015));
#1198=MECHANICAL_DESIGN_GEOMETRIC_PRESENTATION_REPRESENTATION('',(#712),
#1199);
#1199=(
GEOMETRIC_REPRESENTATION_CONTEXT(3)
GLOBAL_UNCERTAINTY_ASSIGNED_CONTEXT((#1200))
GLOBAL_UNIT_ASSIGNED_CONTEXT((#1203,#1202,#1201))
REPRESENTATION_CONTEXT('Part 1','TOP_LEVEL_ASSEMBLY_PART')
);
#1200=UNCERTAINTY_MEASURE_WITH_UNIT(LENGTH_MEASURE(1.E-8),#1203,
'DISTANCE_ACCURACY_VALUE','Maximum Tolerance applied to model');
#1201=(
NAMED_UNIT(*)
SI_UNIT($,.STERADIAN.)
SOLID_ANGLE_UNIT()
);
#1202=(
NAMED_UNIT(*)
PLANE_ANGLE_UNIT()
SI_UNIT($,.RADIAN.)
);
#1203=(
LENGTH_UNIT()
NAMED_UNIT(*)
SI_UNIT($,.METRE.)
);
#1204=PRODUCT_DEFINITION_SHAPE('','',#1205);
#1205=PRODUCT_DEFINITION('','',#1207,#1206);
#1206=PRODUCT_DEFINITION_CONTEXT('',#1213,'design');
#1207=PRODUCT_DEFINITION_FORMATION_WITH_SPECIFIED_SOURCE('','',#1209,
 .NOT_KNOWN.);
#1208=PRODUCT_RELATED_PRODUCT_CATEGORY('','',(#1209));
#1209=PRODUCT('Part 1','Part 1','Part 1',(#1211));
#1210=PRODUCT_CATEGORY('','');
#1211=PRODUCT_CONTEXT('',#1213,'mechanical');
#1212=APPLICATION_PROTOCOL_DEFINITION('international standard',
'ap242_managed_model_based_3d_engineering',2020,#1213);
#1213=APPLICATION_CONTEXT('managed model based 3d engineering');
ENDSEC;
END-ISO-10303-21;
